<?xml version="1.0" encoding="utf-8"?>
<!-- Generator: Adobe Illustrator 16.0.0, SVG Export Plug-In . SVG Version: 6.00 Build 0)  -->
<!DOCTYPE svg PUBLIC "-//W3C//DTD SVG 1.1//EN" "http://www.w3.org/Graphics/SVG/1.1/DTD/svg11.dtd">
<svg version="1.1" id="Calque_1" xmlns="http://www.w3.org/2000/svg" xmlns:xlink="http://www.w3.org/1999/xlink" x="0px" y="0px"
	 width="400px" height="400px" viewBox="0 0 400 400" enable-background="new 0 0 400 400" xml:space="preserve">
<g>
	<path fill="#9ACAEB" d="M323.158,165.059c0,74.868-60.694,135.556-135.561,135.556c-74.864,0-135.559-60.688-135.559-135.556
		c0-74.869,60.695-135.56,135.559-135.56C262.464,29.5,323.158,90.19,323.158,165.059z"/>
	<path fill="#FFFFFF" d="M187.598,304.805c-77.057,0-139.747-62.691-139.747-139.745c0-77.058,62.69-139.748,139.747-139.748
		c77.059,0,139.749,62.69,139.749,139.748C327.347,242.113,264.656,304.805,187.598,304.805z M187.598,33.688
		c-72.438,0-131.371,58.932-131.371,131.372c0,72.436,58.933,131.367,131.371,131.367S318.97,237.495,318.97,165.059
		C318.97,92.62,260.036,33.688,187.598,33.688z"/>
</g>
<g>
	<path fill="#00BD70" d="M189.194,310.292c10.342-1.644,23.857-4.526,33.797-14.131c7.436-7.19,8.608-12.509,7.368-20.259
		c0,0-23.418-123.759-29.033-159.448c-4.741-30.122-4.811-41.003-24.103-48.107c-12.14-4.468-16.432-16.743-17.24-22.696
		c-0.559-4.147-3.624-21.691-5.272-32.031c-1.648-10.338-2.372-11.55-17.882-9.078l2.07-0.329
		c-15.511,2.472-15.822,3.849-14.174,14.188c1.65,10.34,4.604,27.896,5.272,32.034c0.943,5.804,0.217,18.618-9.644,26.98
		c-13.219,11.207-13.636,17.548-7.949,53.222c5.688,35.67,29.035,159.441,29.035,159.441c1.238,7.756,4.008,12.447,13.309,16.962
		c12.432,6.037,26.176,4.573,36.514,2.925"/>
	<path fill="#FFFFFF" d="M189.144,309.98c7.509-1.244,15.002-2.961,21.84-6.254c6.773-3.242,12.982-8.172,16.873-14.516
		c1.893-3.197,2.521-6.934,2.105-10.638c-0.156-1.854-0.561-3.683-0.927-5.576l-1.097-5.623l-4.366-22.495l-8.658-45.002
		l-8.517-45.035l-4.021-22.576c-1.311-7.53-2.749-15.043-3.89-22.604c-1.237-7.515-2.248-15.131-4.427-22.166
		c-1.123-3.49-2.655-6.765-4.935-9.398c-2.258-2.653-5.256-4.632-8.548-6.166c-0.816-0.396-1.668-0.736-2.513-1.088l-1.292-0.491
		l-1.406-0.575c-0.854-0.319-1.805-0.81-2.766-1.337c-0.976-0.493-1.763-1.117-2.649-1.679c-3.321-2.48-6.073-5.665-8.065-9.221
		c-2.016-3.558-3.413-7.381-4.063-11.501l-1.898-11.274l-3.856-22.536c-0.325-1.795-0.702-3.65-1.307-4.777
		c-0.304-0.561-0.581-0.826-0.974-1.051c-0.415-0.212-1.045-0.382-1.808-0.448c-3.182-0.202-7.071,0.491-10.754,1.065l-0.787-4.953
		l2.065-0.342l0.793,4.978c-3.665,0.642-7.577,1.246-10.485,2.456c-0.693,0.304-1.212,0.663-1.509,0.975
		c-0.269,0.315-0.417,0.607-0.52,1.205c-0.197,1.197,0.039,3.062,0.311,4.855l3.849,22.528l1.947,11.357
		c0.62,4.136,0.393,8.359-0.482,12.41c-0.855,4.069-2.514,8.021-4.881,11.55c-1.246,1.72-2.582,3.399-4.164,4.826
		c-1.584,1.501-2.898,2.523-4.174,3.812c-2.568,2.499-4.571,5.147-5.671,8.18c-1.103,3.039-1.397,6.534-1.358,10.143
		c0.058,3.616,0.409,7.33,0.865,11.055c0.44,3.729,0.958,7.479,1.518,11.234c1.082,7.517,2.468,14.979,3.728,22.527l3.814,22.572
		l15.632,90.181l3.851,22.565l1.94,11.206c0.718,3.551,2.348,6.663,4.981,9.072c1.301,1.21,2.802,2.261,4.384,3.206
		c0.767,0.479,1.649,0.925,2.397,1.333c0.861,0.396,1.73,0.844,2.583,1.199c3.358,1.418,7.033,2.396,10.728,2.939
		c7.44,1.092,15.091,0.549,22.632-0.438l0.098,0.621c-7.493,1.424-15.207,2.396-22.949,1.584c-3.873-0.406-7.675-1.215-11.416-2.611
		c-0.92-0.338-1.771-0.727-2.661-1.091c-0.949-0.459-1.788-0.843-2.667-1.33c-1.731-0.937-3.432-2.003-4.986-3.324
		c-3.19-2.585-5.335-6.528-6.233-10.43l-2.325-11.281l-4.564-22.438l-4.503-22.448l-4.365-22.482l-8.636-45.003l-4.014-22.539
		c-1.292-7.496-2.73-15.038-3.865-22.619c-1.143-7.593-2.319-15.187-2.417-23.209c0-3.998,0.313-8.244,1.847-12.399
		c1.536-4.168,4.348-7.695,7.264-10.466c1.423-1.414,3.121-2.75,4.307-3.874c1.276-1.106,2.335-2.427,3.354-3.773
		c1.914-2.784,3.327-5.966,4.085-9.356c0.779-3.387,1.021-6.91,0.546-10.33l-1.769-11.233l-3.548-22.652
		c-0.229-1.972-0.605-3.943-0.211-6.536c0.203-1.285,0.855-2.808,1.902-3.886c1.035-1.063,2.191-1.695,3.239-2.151
		c2.121-0.884,4.078-1.289,6.023-1.689c1.938-0.384,3.849-0.691,5.753-0.982l0.793,4.978l-2.072,0.317l-0.79-4.953
		c1.904-0.292,3.82-0.57,5.785-0.787c1.976-0.199,3.963-0.397,6.231-0.192c1.131,0.119,2.403,0.372,3.679,1.057
		c1.292,0.7,2.335,1.914,2.899,3.051c1.127,2.299,1.366,4.282,1.734,6.225l3.627,22.671l1.781,11.342
		c0.497,3.429,1.708,6.922,3.432,10.017c1.706,3.127,4.039,5.853,6.81,7.979c0.727,0.458,1.439,1.042,2.172,1.407l1.09,0.609
		c0.372,0.202,0.859,0.38,1.282,0.573l1.237,0.523l1.381,0.542c0.914,0.389,1.83,0.77,2.729,1.217
		c3.593,1.718,7.113,4.055,9.79,7.27c2.704,3.192,4.401,7.015,5.569,10.788c2.258,7.604,3.149,15.224,4.319,22.772
		c1.055,7.558,2.424,15.063,3.658,22.595l3.781,22.578l7.936,45.125l8.078,45.104l4.076,22.545l1.023,5.636
		c0.336,1.857,0.732,3.775,0.869,5.733c0.396,3.883-0.356,8.041-2.438,11.411c-4.225,6.654-10.597,11.492-17.576,14.736
		c-7.013,3.247-14.605,4.866-22.148,6.008L189.144,309.98z"/>
</g>
<g>
	<g>
		<path fill="#2AA137" stroke="#FFFFFF" stroke-width="0.5" stroke-miterlimit="10" d="M166.315,250.745"/>
	</g>
	<g>
		<path fill="#00BD70" d="M161.096,291.262c4.589,3.918,10.822,6.094,17.612,5.361c13.17-1.419,22.7-13.244,21.28-26.417
			c-1.413-13.175-13.243-22.705-26.415-21.285c-2.559,0.274-4.979,0.945-7.212,1.938c0,0,7.362-3.519,16.479,0.752
			c9.434,4.418,15.227,12.625,9.462,25.354c-4.562,11.229-15.953,11.894-15.953,11.894s0.117,2.553,0.208,3.424
			c0.094,0.871-0.691,1.039-2.253,0.646c-1.568-0.394-7.493-3.285-12.364-8.373c-1.18-1.354-1.607-1.513-0.257-3.897
			c0.989-1.954,4.932-7.741,10.09-9.746c2.671-1.248,2.049,0.421,2.188,0.969c0.14,0.55,0.393,2.927,0.393,2.927
			s8.008-1.584,12.333-9.806c1.18-2.413,1.188-2.813-0.529-4.928c-1.019-1.257-5.21-5.576-12.532-8.075
			c-1.979-0.675-1.668,1.027-1.622,1.453c0.084,0.719,0.274,2.779,0.274,2.779s-6.988,0.586-12.526,7.281
			c-5.742,6.949-5.742,12.68-5.215,16.348C155.19,284.402,158.544,289.085,161.096,291.262z"/>
	</g>
</g>
<polygon fill="#FFFFFF" points="191.916,47.433 185.169,88.681 225.514,87.443 187.237,97.83 213.975,146.539 178.787,101.368 
	99.391,148.552 172.057,92.448 141.249,65.642 177.449,87.601 "/>
<g>
	<path fill="#00BD70" d="M297.271,388.33c0,0,0.938-14.839,1.197-21.489c0.287-7.309-1.748-30.413-2.55-38.503
		c-0.565-5.714-3.315-19.322-4.405-24.3c-1.053-4.961-2.115-8.937-2.992-13.334c-0.443-2.228-0.752-4.318-1.033-6.285
		c5.943,14.953,17.575,25.959,17.575,25.959c-5.363-13.326-6.873-32.267-6.873-32.267l0,0c0.591,0.602,1.144,1.162,1.747,1.755
		c1.429,1.405,2.872,2.81,4.373,4.151c4.402,4.037,8.349,6.912,14.799,10.743l13.237,7.466c0,0-15.597-15.043-21.691-28.61
		c-12.091-26.892,16.884-63.05,9.085-88.459c-2.314-7.546-12.605-14.328-7.06-21.137c4.639-5.693,40.978-17.428,40.978-17.428
		s-9.45-0.969-15.726-1.354c-5.114-0.315-11.189-1.505-11.189-1.505s9.11-1.898,12.576-2.678c10.398-2.037,27.7-11.131,27.7-11.131
		s-12.021,3.019-25.612,3.42c-2.705,0.079-7.159-0.172-9.646-0.594c0,0,13.957-1.642,19.144-3.315
		c20.38-5.407,28.216-19.155,28.216-19.155s-6.374,5.305-14.16,7.491c-8.521,2.272-18.098,3.021-22.954,2.729
		c-24.674-0.973-35.313-14.92-55.367-14.734c-8.091,0.554-16.777,6.886-22.664,13.19l-53.891-4.752c0,0,55.913,34.531,58.875,36.625
		c2.98,2.024,2.395,4.949-2.939,9.448c-2.252,1.914-20.467,16.4-26.506,34.854c-1.094,3.087-5.828,3.391-10.938,1.901
		c-6.824-1.701-9.371-3.01-11.861-3.779l0.604,5.448c0,0,10.57,4.105,13.472,5.518c3.051,1.48,5.911,4.278,6.718,7.321
		c-0.502,0.69-1.267,2.185-1.96,3.083c-0.386,0.508-0.716,1.093-0.913,1.697l-0.477-0.203l-3.08-1.326
		c-1.021-0.393-2.122-0.973-3.176-1.452c0,0-13.631-5.014-14.936-7.778c-1.341-2.813-7.318-13.354-16.737-20.294
		c0,0,6.127,16.589,6.696,17.386c0,0-14.517-1.252-25.594-0.547l-2.201,0.24c0,0,6.378,3.047,12.832,4.622
		c6.219,1.505,10.405,2.404,10.405,2.404l-15.115,14.544c0,0,13.035-2.52,25.513-8.798c2.004-1.722,3.539-0.74,4.881-0.335
		c1.102,0.339,19.881,8.539,19.881,8.539l2.634,1.101c0.646,1.416,1.647,2.749,2.942,3.662c1.355,0.983,6.938,3.606,8.248,4.372
		c1.304,0.789,2.35,1.704,3.365,2.801c1.987,2.201,3.41,4.896,4.453,7.711c2.018,5.701,2.482,11.881,2.184,17.963
		c-0.297,6.1-1.375,12.164-2.787,18.118c-1.452,6.025-3.166,11.886-5.096,17.751c-1.908,5.854-4.057,11.657-5.822,17.629
		c-1.58,5.28-2.986,11.223-3.943,18.25c-0.854,6.163-1.295,12.363-1.598,18.561l-0.149,3.142l2.029-2.394
		c1.133-1.338,2.214-2.711,3.19-4.159c0.979-1.437,1.896-2.916,2.721-4.441c1.678-3.034,3.106-6.188,4.38-9.386
		c0.987-2.811,1.419-3.639,3.758-11.449c0,0-0.374,5.325-0.495,12.251c-0.053,3.464-0.206,6.937-0.01,10.408
		c0.301,5.31,1.686,16.59,1.686,16.59s3.247-13.122,4.219-16.655l4.479-15.86c0.521-1.769,2.21-7.08,2.775-8.817
		c-0.174,2.694,0.121,13.133,0.377,17.194c0.191,4.067,1.283,16.233,1.479,18.257l0.625,6.074l0.499,4.806
		c0,0,4.526-13.198,5.828-17.587c2.318-7.809,4.816-16.875,4.816-16.875c0.351,5.987,3.529,20.245,4.197,22.618
		c1.28,4.764,6.123,18.764,7.058,21.051C292.451,378.32,297.271,388.33,297.271,388.33z"/>
	<path fill="#FFFFFF" d="M298.856,396.447l-3.473-7.207c-0.198-0.413-4.866-10.117-5.772-12.487
		c-0.91-2.226-5.817-16.409-7.123-21.253c-0.439-1.568-1.766-7.386-2.828-13.098c-0.684,2.387-1.43,4.964-2.153,7.406
		c-1.301,4.379-5.671,17.131-5.854,17.67l-3.084,8.989l-2.105-20.333c-0.172-1.787-1.288-14.16-1.486-18.373
		c-0.063-1-0.127-2.352-0.187-3.869l-3.34,11.824c-0.948,3.451-4.167,16.456-4.2,16.588l-2.729,11.022l-1.383-11.271
		c-0.058-0.465-1.396-11.412-1.697-16.728c-0.157-2.782-0.099-5.565-0.039-8.259l0.007-0.312c-1.185,2.812-2.392,5.312-3.677,7.641
		c-0.813,1.504-1.769,3.061-2.824,4.609c-0.907,1.35-1.998,2.77-3.323,4.333l-6.01,7.091l0.44-9.293
		c0.37-7.566,0.867-13.348,1.615-18.748c0.868-6.367,2.182-12.44,4.014-18.562c1.129-3.822,2.428-7.615,3.683-11.289
		c0.729-2.13,1.459-4.257,2.155-6.39c2.037-6.199,3.688-11.951,5.052-17.592c1.601-6.764,2.469-12.399,2.729-17.729
		c0.33-6.688-0.345-12.304-2.063-17.165c-1.06-2.848-2.419-5.214-4.035-7.003c-0.961-1.036-1.858-1.787-2.896-2.415
		c-0.439-0.256-1.478-0.775-2.662-1.368c-2.778-1.396-4.815-2.435-5.733-3.101c-1.295-0.912-2.406-2.192-3.237-3.723l-1.916-0.802
		c-7.115-3.108-18.722-8.14-19.71-8.479c-0.202-0.061-0.44-0.146-0.687-0.232c-0.45-0.162-0.877-0.314-1.203-0.314
		c-0.118,0-0.434,0-0.99,0.479l-0.423,0.282c-12.59,6.335-25.511,8.878-26.055,8.98l-6.951,1.346l17.408-16.752
		c-1.746-0.396-4.011-0.926-6.638-1.562c-6.592-1.607-12.974-4.638-13.242-4.768l-6.636-3.17l9.511-1.042
		c2.381-0.154,4.982-0.228,7.825-0.228c5.683,0,11.293,0.295,14.746,0.52c-0.99-2.499-2.636-6.813-5.409-14.322l-2.423-6.562
		l5.63,4.149c11.193,8.249,17.325,20.952,17.385,21.081c0.865,1.29,7.824,4.525,13.767,6.714c0.524,0.233,0.912,0.417,1.301,0.604
		c0.646,0.31,1.288,0.623,1.904,0.858l1.849,0.794c0.065-0.095,0.135-0.188,0.205-0.277c0.355-0.461,0.721-1.088,1.055-1.656
		c0.092-0.147,0.177-0.295,0.261-0.434c-0.855-1.982-2.894-3.981-5.323-5.162c-2.791-1.357-13.211-5.406-13.314-5.447l-1.183-0.46
		l-1.099-9.885l3.052,0.941c0.789,0.246,1.582,0.54,2.503,0.882c2.049,0.762,4.6,1.71,9.248,2.869
		c1.836,0.532,3.514,0.804,4.928,0.804c0.915,0,3.09-0.133,3.53-1.372c3.804-11.631,13.288-24.214,26.688-35.387l0.438-0.365
		c3.779-3.19,4.009-4.678,3.99-5.058c-0.02-0.324-0.312-0.683-0.874-1.063c-2.331-1.649-39.478-24.644-58.796-36.577l-7.521-4.643
		l61.688,5.439c3.584-3.682,13.096-12.402,23.342-13.104l0.54-0.007c10.04,0,17.71,3.334,25.826,6.863
		c8.357,3.635,17.003,7.393,29.225,7.875c0.666,0.04,1.366,0.058,2.139,0.058c4.612,0,12.668-0.712,20.195-2.719
		c7.245-2.035,13.299-7.026,13.36-7.077l8.88-7.39l-5.72,10.036c-0.31,0.54-7.104,12.169-24.145,18.452
		c5.77-0.896,9.646-1.859,9.714-1.875l16.99-4.267l-15.508,8.151c-0.715,0.377-17.693,9.261-28.271,11.332
		c-0.157,0.035-0.323,0.073-0.506,0.113c6.191,0.42,14.565,1.277,14.653,1.286l9.906,1.016l-9.476,3.061
		c-13.822,4.463-36.901,12.96-39.996,16.758c-2.361,2.9-0.956,5.563,2.82,10.95c1.823,2.604,3.711,5.296,4.617,8.249
		c3.828,12.479-0.56,26.728-5.205,41.812c-4.963,16.119-10.096,32.785-3.975,46.403c5.857,13.032,21.085,27.813,21.238,27.962
		l11.792,11.379l-27.514-15.512c-6.557-3.895-10.659-6.877-15.187-11.025c-0.671-0.6-1.33-1.213-1.97-1.818
		c0.864,6.564,2.691,17.436,6.081,25.854l3.578,8.889l-6.961-6.584c-0.335-0.317-5.907-5.643-11.321-13.889
		c0.413,1.768,0.839,3.6,1.262,5.592c1.149,5.263,3.867,18.762,4.439,24.527c0.759,7.651,2.857,31.203,2.559,38.791
		c-0.257,6.602-1.188,21.393-1.199,21.541L298.856,396.447z M281.665,319.546l0.739,12.671c0.334,5.693,3.432,19.717,4.123,22.174
		c1.279,4.758,6.074,18.607,6.979,20.824c0.315,0.825,1.171,2.719,2.171,4.859c0.266-4.564,0.568-9.992,0.699-13.314
		c0.268-6.805-1.597-28.687-2.541-38.216c-0.523-5.276-3.104-18.272-4.365-24.058c-0.483-2.274-0.967-4.327-1.433-6.312
		c-0.558-2.378-1.092-4.658-1.569-7.061c-0.457-2.293-0.771-4.42-1.055-6.399l-2.48-17.428l6.502,16.356
		c2.84,7.148,7.056,13.404,10.587,17.896c-2.938-11.332-3.872-22.652-3.921-23.263l-0.457-5.742l4.037,4.107
		c0.583,0.594,1.128,1.146,1.724,1.729c1.274,1.257,2.767,2.711,4.3,4.085c4.371,4.005,8.152,6.748,14.473,10.504l1.551,0.875
		c-4.643-5.489-9.926-12.557-12.982-19.363c-6.771-15.055-1.401-32.49,3.791-49.35c4.45-14.452,8.654-28.103,5.203-39.352
		c-0.713-2.32-2.405-4.736-4.044-7.074c-3.229-4.608-7.247-10.342-2.639-16c3.464-4.253,21.199-10.956,32.577-14.935
		c-2.013-0.169-4.056-0.325-5.83-0.435c-5.191-0.32-11.211-1.491-11.465-1.54l-10.168-1.992l10.145-2.113
		c0.003,0,9.088-1.893,12.544-2.671c3.796-0.745,8.588-2.479,13.087-4.352c-3.24,0.373-6.794,0.668-10.478,0.776
		c-0.354,0.01-0.737,0.015-1.144,0.015c-2.562,0-6.446-0.219-8.915-0.637l-14.393-2.438l14.497-1.707
		c0.14-0.016,13.813-1.637,18.746-3.228c7.584-2.013,13.371-5.233,17.606-8.409c-0.765,0.276-1.545,0.53-2.343,0.754
		c-7.944,2.119-16.438,2.867-21.303,2.867c-0.863,0-1.647-0.021-2.345-0.063c-12.968-0.511-22.383-4.604-30.688-8.215
		c-7.706-3.351-14.986-6.517-24.155-6.517l-0.378,0.002c-7.42,0.512-15.812,6.807-21.15,12.525l-0.697,0.747l-46.11-4.067
		c15.413,9.529,49.125,30.397,51.47,32.054c2.09,1.419,2.607,3.117,2.668,4.289c0.131,2.522-1.604,5.214-5.466,8.469l-0.46,0.387
		c-12.805,10.676-21.826,22.58-25.408,33.52c-0.566,1.602-2.268,4.209-7.492,4.211c-1.807,0-3.889-0.329-6.021-0.952
		c-4.204-1.046-6.862-1.971-8.823-2.69l0.095,0.858c2.866,1.123,10.059,3.964,12.444,5.125c3.854,1.872,6.927,5.272,7.826,8.67
		l0.255,0.959l-0.584,0.806c-0.188,0.258-0.413,0.646-0.66,1.064c-0.404,0.682-0.863,1.455-1.336,2.068
		c-0.26,0.34-0.467,0.724-0.582,1.07l-0.711,2.176l-5.663-2.433c-0.637-0.246-1.388-0.603-2.136-0.962
		c-0.362-0.175-0.723-0.348-1.077-0.508c-5.25-1.926-14.511-5.715-15.964-8.793c-0.041-0.086-3.504-7.26-9.939-14.033
		c1.773,4.699,3.262,8.544,3.586,9.152l2.631,3.691l-4.604-0.527c-0.086-0.006-8.759-0.746-17.651-0.754
		c1.099,0.348,2.233,0.672,3.366,0.948c6.175,1.495,10.336,2.39,10.349,2.394l3.85,0.826l-12.273,11.81
		c4.72-1.372,11.061-3.526,17.229-6.606c1.09-0.871,2.268-1.313,3.505-1.313c1.056,0,1.921,0.312,2.616,0.562
		c0.178,0.062,0.349,0.127,0.518,0.176c1.137,0.354,15.682,6.691,20.111,8.627l3.359,1.401l0.342,0.749
		c0.535,1.176,1.335,2.176,2.244,2.818c0.736,0.535,3.41,1.877,5.177,2.765c1.286,0.646,2.413,1.216,2.922,1.513
		c1.394,0.842,2.604,1.851,3.845,3.186c1.994,2.207,3.631,5.029,4.881,8.404c1.918,5.418,2.67,11.556,2.312,18.795
		c-0.271,5.593-1.174,11.473-2.84,18.498c-1.389,5.762-3.073,11.621-5.145,17.924c-0.701,2.146-1.437,4.292-2.172,6.441
		c-1.24,3.629-2.525,7.383-3.633,11.125c-1.771,5.92-3.038,11.784-3.877,17.938c-0.623,4.499-1.069,9.282-1.413,15.204
		c0.385-0.514,0.739-1.014,1.074-1.508c0.981-1.44,1.862-2.877,2.616-4.269c1.515-2.743,2.91-5.733,4.272-9.165l0.533-1.484
		c0.679-1.865,1.319-3.627,3.166-9.789l5.417-18.09l-1.323,18.836c-0.002,0.053-0.368,5.357-0.489,12.142l-0.043,2.319
		c-0.059,2.615-0.117,5.316,0.029,7.934c0.076,1.33,0.221,3.053,0.396,4.88c0.572-2.258,1.095-4.271,1.397-5.38l4.483-15.878
		c0.529-1.8,2.229-7.147,2.799-8.896l5.152-15.808l-1.07,16.589c-0.163,2.543,0.126,12.924,0.377,16.928
		c0.186,3.91,1.244,15.832,1.473,18.188l0.135,1.314c1.099-3.281,2.192-6.617,2.727-8.414c2.287-7.697,4.781-16.746,4.807-16.838
		L281.665,319.546z"/>
</g>
<path fill="#FFFFFF" d="M293.439,129.859c-0.852,7.565-5.492,13.253-10.357,12.697c-4.859-0.544-8.109-7.124-7.256-14.691
	c0.857-7.564,5.492-13.254,10.35-12.703C291.041,115.712,294.297,122.295,293.439,129.859z"/>
<path fill="#00BD70" d="M285.303,125.775c-0.227-4.479-6.721-5.237-7.607,1.019c-1.646,11.585,3.433,11.92,5.156,11.511
	c3.396-0.801,3.441-6.611,3.399-8.583l-5.623-1.804L285.303,125.775z"/>
</svg>
