<?xml version="1.0" encoding="utf-8"?>
<!-- Generator: Adobe Illustrator 16.0.0, SVG Export Plug-In . SVG Version: 6.00 Build 0)  -->
<!DOCTYPE svg PUBLIC "-//W3C//DTD SVG 1.1//EN" "http://www.w3.org/Graphics/SVG/1.1/DTD/svg11.dtd">
<svg version="1.1" id="Calque_1" xmlns="http://www.w3.org/2000/svg" xmlns:xlink="http://www.w3.org/1999/xlink" x="0px" y="0px"
	 width="1216px" height="1383.311px" viewBox="0 0 1216 1383.311" enable-background="new 0 0 1216 1383.311" xml:space="preserve">
<path fill="#FFFFFF" d="M180.715,446.126L20.141,314.323C20.141,314.323,197.328,1,568.703,1
	c332.487,0,520.777,265.941,520.777,265.941L938.988,407.582c0,0-112.104-198.739-370.291-200.821
	C310.505,204.674,180.715,446.126,180.715,446.126z"/>
<g>
	<path fill="#9ACAEB" d="M1002.698,634.051c0,239.69-194.313,433.988-434,433.988c-239.682,0-433.996-194.296-433.996-433.988
		c0-239.694,194.314-433.996,433.996-433.996C808.383,200.055,1002.698,394.357,1002.698,634.051z"/>
	<path fill="#FFFFFF" d="M568.698,1081.447c-246.699,0-447.404-200.704-447.404-447.396c0-246.702,200.705-447.405,447.404-447.405
		c246.705,0,447.41,200.703,447.41,447.405C1016.109,880.742,815.404,1081.447,568.698,1081.447z M568.698,213.465
		c-231.913,0-420.587,188.673-420.587,420.589c0,231.905,188.673,420.578,420.587,420.578
		c231.916,0,420.592-188.673,420.592-420.578C989.29,402.135,800.615,213.465,568.698,213.465z"/>
</g>
<g>
	<path fill="#00BD70" d="M573.812,1099.02c33.106-5.264,76.379-14.495,108.196-45.242c23.808-23.021,27.563-40.04,23.598-64.855
		c0,0-74.979-396.221-92.957-510.479c-15.18-96.437-15.398-131.271-77.166-154.019c-38.864-14.305-52.607-53.602-55.193-72.658
		c-1.789-13.279-11.603-69.447-16.878-102.551c-5.277-33.097-7.596-36.979-57.25-29.062l6.626-1.054
		c-49.66,7.916-50.656,12.32-45.378,45.423c5.284,33.103,14.739,89.31,16.878,102.554c3.019,18.582,0.694,59.607-30.877,86.378
		c-42.321,35.877-43.656,56.182-25.448,170.392c18.208,114.198,92.956,510.459,92.956,510.459
		c3.962,24.827,12.834,39.849,42.61,54.305c39.801,19.326,83.804,14.641,116.897,9.36"/>
	<path fill="#FFFFFF" d="M573.648,1098.025c24.041-3.979,48.026-9.48,69.924-20.021c21.685-10.383,41.562-26.163,54.021-46.473
		c6.059-10.24,8.065-22.194,6.735-34.06c-0.498-5.931-1.787-11.783-2.966-17.848l-3.509-18.004l-13.979-72.021l-27.721-144.076
		l-27.265-144.181l-12.878-72.28c-4.194-24.104-8.799-48.157-12.451-72.363c-3.962-24.062-7.196-48.443-14.176-70.966
		c-3.594-11.177-8.499-21.657-15.799-30.092c-7.228-8.491-16.828-14.831-27.368-19.739c-2.61-1.271-5.343-2.355-8.046-3.481
		l-4.138-1.571l-4.499-1.84c-2.735-1.021-5.781-2.594-8.859-4.282c-3.123-1.577-5.643-3.573-8.479-5.376
		c-10.632-7.939-19.445-18.135-25.821-29.521c-6.456-11.392-10.928-23.629-13.01-36.822l-6.076-36.095l-12.349-72.149
		c-1.04-5.749-2.246-11.688-4.186-15.293c-0.974-1.795-1.856-2.646-3.116-3.366c-1.326-0.682-3.346-1.226-5.785-1.436
		c-10.188-0.646-22.643,1.571-34.434,3.411l-2.521-15.857l6.609-1.094l2.542,15.938c-11.732,2.056-24.258,3.987-33.566,7.859
		c-2.219,0.979-3.883,2.121-4.832,3.124c-0.858,1.011-1.335,1.944-1.662,3.857c-0.629,3.83,0.124,9.802,0.996,15.544l12.32,72.123
		l6.231,36.364c1.984,13.238,1.259,26.759-1.545,39.729c-2.736,13.028-8.048,25.678-15.628,36.979
		c-3.988,5.505-8.264,10.882-13.331,15.451c-5.073,4.807-9.277,8.078-13.363,12.204c-8.224,8.002-14.633,16.48-18.153,26.188
		c-3.528,9.729-4.473,20.917-4.349,32.475c0.185,11.575,1.312,23.465,2.771,35.395c1.406,11.936,3.062,23.942,4.856,35.965
		c3.463,24.065,7.901,47.958,11.937,72.122l12.21,72.265l50.046,288.719l12.329,72.241l6.213,35.879
		c2.297,11.366,7.516,21.331,15.949,29.044c4.164,3.875,8.97,7.241,14.038,10.267c2.453,1.531,5.276,2.959,7.674,4.27
		c2.757,1.27,5.539,2.697,8.269,3.837c10.751,4.544,22.517,7.674,34.347,9.414c23.818,3.497,48.312,1.755,72.457-1.399l0.313,1.989
		c-23.989,4.558-48.685,7.673-73.474,5.069c-12.4-1.297-24.572-3.892-36.547-8.356c-2.945-1.086-5.67-2.327-8.52-3.495
		c-3.037-1.466-5.722-2.694-8.538-4.256c-5.545-3-10.984-6.417-15.962-10.646c-10.212-8.275-17.081-20.897-19.955-33.393
		l-7.442-36.112l-14.613-71.836l-14.416-71.877l-13.974-71.979L339.49,648.012l-12.854-72.16c-4.139-24-8.739-48.146-12.375-72.417
		c-3.658-24.31-7.424-48.617-7.736-74.303c0-12.799,1.001-26.393,5.912-39.696c4.917-13.342,13.919-24.637,23.255-33.508
		c4.558-4.523,9.991-8.806,13.789-12.398c4.084-3.544,7.477-7.772,10.735-12.081c6.131-8.911,10.653-19.1,13.082-29.953
		c2.495-10.84,3.27-22.121,1.749-33.07l-5.664-35.963l-11.357-72.521c-0.732-6.314-1.939-12.624-0.675-20.928
		c0.647-4.11,2.734-8.987,6.088-12.438c3.312-3.406,7.013-5.427,10.371-6.887c6.789-2.829,13.055-4.125,19.279-5.408
		c6.208-1.231,12.322-2.213,18.417-3.145l2.542,15.937l-6.633,1.015l-2.525-15.856c6.095-0.938,12.229-1.826,18.521-2.521
		c6.325-0.635,12.688-1.27,19.949-0.616c3.619,0.38,7.69,1.191,11.778,3.384c4.138,2.238,7.477,6.13,9.282,9.771
		c3.608,7.359,4.374,13.71,5.556,19.93l11.612,72.582l5.702,36.312c1.59,10.979,5.467,22.162,10.987,32.067
		c5.46,10.012,12.931,18.737,21.802,25.547c2.324,1.468,4.61,3.331,6.954,4.503l3.489,1.951c1.189,0.647,2.75,1.217,4.104,1.834
		l3.96,1.675l4.42,1.735c2.927,1.244,5.858,2.462,8.739,3.896c11.504,5.5,22.772,12.98,31.343,23.272
		c8.655,10.221,14.092,22.457,17.827,34.537c7.229,24.342,10.083,48.736,13.829,72.904c3.378,24.197,7.76,48.227,11.713,72.34
		l12.105,72.284l25.403,144.469l25.868,144.406l13.05,72.175l3.277,18.046c1.074,5.945,2.343,12.085,2.785,18.356
		c1.263,12.429-1.146,25.743-7.806,36.534c-13.526,21.305-33.929,36.794-56.274,47.181c-22.448,10.396-46.759,15.583-70.905,19.233
		L573.648,1098.025z"/>
</g>
<path fill="#FFFFFF" d="M455.66,987.116c4.531,42.175,42.399,72.674,84.576,68.142c42.165-4.544,72.675-42.397,68.131-84.575
	c-4.524-42.178-42.399-72.688-84.571-68.144C481.62,907.081,451.116,944.939,455.66,987.116z"/>
<g>
	<path fill="#2AA137" stroke="#FFFFFF" stroke-width="0.5" stroke-miterlimit="10" d="M500.561,908.378"/>
</g>
<path fill="#00BD70" d="M486.451,1035.061c13.942,11.903,32.879,18.516,53.509,16.291c40.014-4.312,68.966-40.237,64.654-80.267
	c-4.292-40.029-40.239-68.979-80.259-64.67c-7.772,0.833-15.13,2.871-21.914,5.891c0,0,22.366-10.687,50.063,2.286
	c28.663,13.426,46.269,38.362,28.751,77.033c-13.859,34.126-48.469,36.141-48.469,36.141s0.354,7.755,0.633,10.402
	c0.287,2.646-2.098,3.153-6.845,1.963c-4.766-1.192-22.768-9.979-37.567-25.438c-3.586-4.112-4.885-4.599-0.78-11.844
	c3.006-5.938,14.983-23.523,30.654-29.612c8.115-3.79,6.229,1.278,6.648,2.947c0.421,1.663,1.191,8.886,1.191,8.886
	s24.33-4.812,37.473-29.788c3.584-7.333,3.609-8.551-1.608-14.976c-3.094-3.814-15.833-16.938-38.075-24.529
	c-6.017-2.053-5.07,3.12-4.929,4.413c0.255,2.186,0.832,8.446,0.832,8.446s-21.229,1.778-38.056,22.121
	c-17.447,21.113-17.446,38.524-15.842,49.672C468.505,1014.22,478.698,1028.448,486.451,1035.061z"/>
<g>
	<g>
		<path fill="#00BD70" d="M157.494,337.578l39.834,34.006l-20.407,23.897L65.396,300.246l34.013-39.834
			c18.136-21.239,37.83-22.792,59.077-4.646l7.96,6.803c21.247,18.141,22.797,37.828,4.655,59.075L157.494,337.578z
			 M109.698,296.757l23.896,20.408l13.605-15.93c4.538-5.312,4.144-10.233-1.167-14.771l-7.962-6.801
			c-5.315-4.532-10.24-4.15-14.771,1.164L109.698,296.757z"/>
	</g>
	<path fill="#00BD70" d="M178.798,182.331l95.155,111.599l-23.911,20.396l-95.155-111.6L178.798,182.331z"/>
	<path fill="#00BD70" d="M229.505,193.136c-14.678-23.769-10.135-42.989,13.642-57.668l8.908-5.499
		c23.769-14.681,42.989-10.137,57.669,13.631l5.508,8.917l-26.74,16.513l-5.505-8.918c-3.667-5.938-8.474-7.073-14.417-3.404
		l-8.91,5.5c-5.946,3.673-7.079,8.479-3.411,14.417l33.024,53.479c3.673,5.943,8.479,7.083,14.417,3.411l8.918-5.509
		c5.938-3.666,7.078-8.472,3.403-14.417l-5.5-8.909l26.738-16.514l5.5,8.911c14.68,23.773,10.135,42.996-13.631,57.668l-8.918,5.505
		c-23.765,14.682-42.99,10.139-57.667-13.637L229.505,193.136z"/>
	<path fill="#00BD70" d="M353.707,63.225c1.188-0.497,2.083,0.518,2.104,1.677l0.562,39.074c-0.06,0.956-0.492,1.603-1.284,1.938
		l-18.791,7.882c-0.792,0.326-1.833,0.064-1.971-0.812l-6.947-37.096c-0.136-0.877,0.016-1.64,1.001-2.044L353.707,63.225z"/>
	<path fill="#00BD70" d="M506.813,186.797L461.364,43.865l31.282-3.031l30.293,95.249l11.412-99.302l31.274-3.038L548.52,182.75
		L506.813,186.797z"/>
	<path fill="#00BD70" d="M702.405,49.319l-4.903,31.048l-62.087-9.821l-4.086,25.875l51.735,8.171l-4.91,31.048l-51.734-8.186
		l-4.086,25.874l62.08,9.811l-4.91,31.047l-93.121-14.727l22.902-144.855L702.405,49.319z"/>
	<path fill="#00BD70" d="M740.829,159.744l-19.417,48.637l-29.188-11.652l54.384-136.202l48.646,19.419
		c25.939,10.364,33.737,28.519,23.379,54.459l-3.89,9.729c-4.013,10.051-9.197,17.378-15.549,21.985
		c1.436,7.719,0.146,16.604-3.869,26.654l-15.543,38.916l-29.18-11.654l15.536-38.918c2.586-6.48,0.642-11.018-5.848-13.609
		L740.829,159.744z M771.944,138.322c6.489,2.593,11.023,0.642,13.609-5.84l3.891-9.729c2.588-6.487,0.642-11.022-5.849-13.619
		l-19.46-7.764l-11.65,29.188L771.944,138.322z"/>
	<path fill="#00BD70" d="M847.333,210.824l-29.003,43.617l-26.17-17.402l81.204-122.13l43.618,29.002
		c23.256,15.464,27.156,34.833,11.688,58.103l-5.799,8.721c-5.992,9.01-12.572,15.125-19.734,18.326
		c-0.184,7.851-3.271,16.275-9.264,25.294l-23.203,34.89l-26.17-17.403l23.203-34.889c3.86-5.812,2.887-10.66-2.927-14.521
		L847.333,210.824z M882.176,196.251c5.814,3.87,10.66,2.895,14.522-2.921l5.8-8.721c3.87-5.814,2.896-10.66-2.919-14.521
		l-17.45-11.603l-17.399,26.163L882.176,196.251z"/>
	<path fill="#00BD70" d="M1052.463,261.625L1030,283.605l-43.958-44.928l-18.72,18.317l36.634,37.438l-22.464,21.979l-36.632-37.437
		l-18.72,18.312l43.958,44.926l-22.463,21.979l-65.938-67.393l104.828-102.564L1052.463,261.625z"/>
</g>
<g>
	<path fill="#FFFFFF" d="M239.76,802.174c1.045,1.159,2.462,3.13,3.69,5.252c1.758,3.025,2.36,5.277,2.021,7.427
		c-0.201,1.739-1.169,3.277-3.014,4.348c-2.261,1.31-5.113,0.963-7.449-0.981l-0.065,0.04c0.732,2.555,0.396,6.226-3.083,8.235
		c-2.019,1.172-4.016,1.258-5.852,0.732c-2.439-0.76-4.668-2.997-6.888-6.836c-1.208-2.089-1.994-3.771-2.438-4.856L239.76,802.174z
		 M220.663,817.274c0.238,0.647,0.706,1.54,1.333,2.616c1.813,3.134,4.636,5.358,8.047,3.387c3.202-1.853,2.935-5.376,1.02-8.678
		l-1.451-2.512L220.663,817.274z M231.906,810.763l1.59,2.75c1.86,3.201,4.62,4.111,6.877,2.804c2.754-1.593,2.619-4.305,0.85-7.365
		c-0.806-1.396-1.372-2.135-1.761-2.562L231.906,810.763z"/>
	<path fill="#FFFFFF" d="M252.159,847.024c-7.834,5.056-15.062,2.973-18.806-2.828c-3.888-6.013-1.951-13.238,4.937-17.691
		c7.228-4.662,14.85-3.221,18.777,2.854C261.077,835.566,258.911,842.664,252.159,847.024z M240.384,829.61
		c-4.863,3.137-7.521,8.576-4.529,13.195c3.009,4.663,8.996,4.532,14.162,1.193c4.526-2.92,7.725-8.327,4.562-13.231
		C251.444,825.916,245.383,826.382,240.384,829.61z"/>
	<path fill="#FFFFFF" d="M265.493,843.344c1.329,1.217,2.976,3.161,4.383,5.119c2.189,3.03,3.047,5.396,2.795,7.661
		c-0.181,1.807-1.238,3.516-2.931,4.739c-2.907,2.095-6.154,1.648-8.608-0.104l-0.095,0.079c0.635,2.123-0.203,4.264-2.112,6.433
		c-2.549,2.933-4.295,4.979-4.816,6.049l-2.115-2.935c0.359-0.812,1.9-2.656,4.201-5.265c2.559-2.841,2.855-4.838,1.099-7.482
		l-1.931-2.678l-9.538,6.867l-2.042-2.841L265.493,843.344z M257.513,853.403l2.098,2.906c2.187,3.036,5.241,3.759,7.758,1.949
		c2.838-2.047,2.596-4.995,0.465-8.023c-0.988-1.377-1.826-2.254-2.284-2.619L257.513,853.403z"/>
	<path fill="#FFFFFF" d="M277.854,860.38c1.585,1.466,3.358,3.287,5.088,5.454c3.144,3.922,4.467,7.444,4.229,10.686
		c-0.219,3.269-1.788,6.316-5.208,9.057c-3.45,2.769-7.129,3.967-10.659,3.543c-3.562-0.387-7.236-2.796-10.532-6.907
		c-1.561-1.951-2.771-3.651-3.721-5.16L277.854,860.38z M261.338,878.09c0.431,0.792,1.205,1.827,2.058,2.89
		c4.672,5.84,10.474,6.39,16.188,1.818c5.016-3.967,5.923-9.33,1.296-15.098c-1.129-1.414-2.11-2.382-2.849-2.979L261.338,878.09z"
		/>
	<path fill="#FFFFFF" d="M293.216,900.632l-6.966-7.923l-7.35,6.456l7.761,8.825l-2.209,1.951l-10.067-11.457l20.375-17.921
		l9.68,11.007l-2.21,1.938l-7.361-8.372l-6.438,5.663l6.966,7.923L293.216,900.632z"/>
	<path fill="#FFFFFF" d="M297.205,911.139l-8.096,3.869l-2.5-2.617l25.908-12.104l2.926,3.044l-13.149,25.416l-2.589-2.698
		l4.15-7.984L297.205,911.139z M305.327,915.652l3.784-7.309c0.856-1.663,1.742-3.062,2.594-4.438l-0.052-0.054
		c-1.439,0.818-2.935,1.639-4.486,2.409l-7.493,3.503L305.327,915.652z"/>
	<path fill="#FFFFFF" d="M326.117,914.12l-11.05,11.614c-4.178,4.397-4,8.119-1.382,10.609c2.913,2.771,6.609,2.626,10.732-1.723
		l11.048-11.614l2.562,2.438l-10.884,11.442c-5.73,6.022-11.258,5.486-15.512,1.439c-4.021-3.824-4.859-9.003,0.925-15.086
		l10.998-11.562L326.117,914.12z"/>
	<path fill="#FFFFFF" d="M335.711,959.491l1.329-6.802c0.44-2.658,0.756-4.355,1.151-6.097l-0.062-0.052
		c-1.608,0.68-3.139,1.263-5.765,2.134l-6.37,2.345l-3.038-2.646l15.275-4.904l2.795-15.347l3.065,2.671l-1.476,7.157
		c-0.406,1.996-0.727,3.527-1.134,5.101l0.092,0.071c1.633-0.708,2.969-1.199,4.868-1.84l6.969-2.364l3.036,2.646l-14.899,4.529
		l-2.771,16.068L335.711,959.491z"/>
</g>
<polygon fill="#FFFFFF" points="582.525,257.467 560.922,389.524 690.088,385.563 567.543,418.816 653.144,574.757 540.49,430.144 
	286.299,581.203 518.943,401.584 420.31,315.761 536.208,386.069 "/>
<g>
	<path fill="#00BD70" d="M919.825,1348.863c0,0,3.005-47.507,3.836-68.8c0.917-23.399-5.596-97.37-8.163-123.271
		c-1.812-18.293-10.619-61.857-14.104-77.794c-3.371-15.884-6.775-28.61-9.584-42.687c-1.423-7.14-2.41-13.829-3.31-20.128
		c19.027,47.873,56.268,83.11,56.268,83.11c-17.174-42.662-22.004-103.302-22.004-103.302l0,0c1.893,1.924,3.658,3.719,5.593,5.615
		c4.575,4.505,9.198,8.995,14.004,13.291c14.096,12.924,26.727,22.13,47.378,34.398l42.386,23.897c0,0-49.936-48.161-69.453-91.598
		c-38.706-86.098,54.057-201.851,29.089-283.205c-7.409-24.16-40.354-45.869-22.599-67.668
		c14.847-18.228,131.185-55.796,131.185-55.796s-30.252-3.104-50.341-4.333c-16.373-1.009-35.824-4.818-35.824-4.818
		s29.168-6.075,40.266-8.572c33.293-6.521,88.682-35.637,88.682-35.637s-38.481,9.666-81.995,10.945
		c-8.662,0.258-22.922-0.551-30.883-1.897c0,0,44.686-5.257,61.287-10.613c65.245-17.31,90.334-61.327,90.334-61.327
		s-20.409,16.983-45.334,23.982c-27.281,7.271-57.939,9.668-73.49,8.74c-78.991-3.118-113.059-47.771-177.261-47.172
		c-25.899,1.771-53.714,22.043-72.555,42.229L640.7,471.237c0,0,179.009,110.554,188.488,117.257
		c9.541,6.481,7.669,15.844-9.408,30.248c-7.209,6.128-65.531,52.505-84.864,111.587c-3.498,9.886-18.661,10.855-35.021,6.09
		c-21.849-5.448-29.998-9.638-37.974-12.101l1.937,17.44c0,0,33.844,13.147,43.127,17.663c9.769,4.739,18.929,13.697,21.509,23.438
		c-1.604,2.213-4.054,6.993-6.271,9.874c-1.236,1.623-2.291,3.496-2.926,5.435l-1.523-0.655l-9.861-4.241
		c-3.268-1.259-6.79-3.117-10.166-4.649c0,0-43.639-16.054-47.813-24.904c-4.29-9.01-23.436-42.753-53.583-64.975
		c0,0,19.614,53.111,21.435,55.664c0,0-46.473-4.007-81.938-1.754l-7.045,0.771c0,0,20.422,9.755,41.084,14.796
		c19.911,4.82,33.312,7.701,33.312,7.701l-48.391,46.563c0,0,41.729-8.068,81.675-28.168c6.416-5.516,11.333-2.37,15.629-1.074
		c3.521,1.088,63.646,27.342,63.646,27.342l8.434,3.522c2.069,4.528,5.276,8.799,9.421,11.721
		c4.342,3.155,22.214,11.547,26.407,13.998c4.177,2.527,7.521,5.46,10.774,8.969c6.363,7.045,10.922,15.675,14.261,24.686
		c6.457,18.251,7.948,38.04,6.985,57.511c-0.951,19.522-4.399,38.939-8.918,58.009c-4.653,19.288-10.141,38.052-16.313,56.829
		c-6.114,18.739-12.99,37.319-18.642,56.438c-5.062,16.904-9.563,35.932-12.631,58.43c-2.729,19.73-4.142,39.583-5.111,59.424
		l-0.479,10.057l6.493-7.662c3.627-4.278,7.092-8.681,10.215-13.314c3.137-4.598,6.07-9.336,8.716-14.219
		c5.367-9.721,9.944-19.813,14.018-30.055c3.167-8.994,4.544-11.642,12.031-36.65c0,0-1.196,17.051-1.583,39.219
		c-0.171,11.091-0.66,22.208-0.031,33.324c0.962,16.996,5.396,53.109,5.396,53.109s10.396-42.007,13.506-53.317l14.338-50.781
		c1.673-5.656,7.079-22.665,8.894-28.229c-0.559,8.63,0.387,42.046,1.204,55.05c0.615,13.026,4.104,51.97,4.733,58.452l2.002,19.444
		l1.599,15.384c0,0,14.488-42.255,18.659-56.306c7.425-24.996,15.42-54.024,15.42-54.024c1.118,19.168,11.301,64.816,13.436,72.41
		c4.104,15.256,19.602,60.077,22.594,67.397C904.392,1316.819,919.825,1348.863,919.825,1348.863z"/>
	<path fill="#FFFFFF" d="M924.899,1374.847l-11.117-23.07c-0.635-1.322-15.583-32.392-18.482-39.979
		c-2.913-7.126-18.627-52.535-22.805-68.047c-1.407-5.021-5.649-23.643-9.056-41.927c-2.188,7.64-4.575,15.89-6.896,23.706
		c-4.164,14.021-18.154,54.847-18.744,56.572l-9.873,28.782l-6.745-65.101c-0.549-5.721-4.123-45.33-4.759-58.818
		c-0.205-3.203-0.405-7.529-0.595-12.389l-10.691,37.857c-3.039,11.052-13.344,52.684-13.448,53.104l-8.732,35.29l-4.427-36.081
		c-0.185-1.487-4.473-36.535-5.437-53.553c-0.503-8.909-0.313-17.821-0.124-26.443l0.021-0.995
		c-3.791,9.004-7.654,17.009-11.771,24.462c-2.605,4.812-5.657,9.793-9.042,14.76c-2.906,4.317-6.396,8.861-10.639,13.871
		l-19.241,22.698l1.415-29.75c1.185-24.225,2.774-42.733,5.173-60.023c2.775-20.382,6.979-39.827,12.845-59.423
		c3.612-12.235,7.772-24.383,11.789-36.142c2.338-6.822,4.67-13.632,6.903-20.453c6.521-19.852,11.811-38.27,16.172-56.326
		c5.125-21.649,7.9-39.694,8.732-56.758c1.062-21.41-1.101-39.389-6.606-54.958c-3.386-9.111-7.739-16.688-12.918-22.417
		c-3.076-3.316-5.951-5.723-9.271-7.729c-1.406-0.819-4.729-2.482-8.52-4.38c-8.898-4.468-15.418-7.792-18.358-9.928
		c-4.146-2.921-7.706-7.02-10.363-11.916l-6.137-2.563c-22.775-9.953-59.938-26.06-63.102-27.146
		c-0.648-0.196-1.414-0.465-2.199-0.746c-1.439-0.518-2.804-1.008-3.851-1.008c-0.381,0-1.389,0-3.17,1.531l-1.354,0.903
		c-40.308,20.283-81.673,28.422-83.414,28.757l-22.254,4.308l55.732-53.634c-5.589-1.271-12.843-2.966-21.25-5.003
		c-21.106-5.146-41.536-14.849-42.397-15.262l-21.244-10.147l30.449-3.338c7.624-0.493,15.952-0.729,25.053-0.729
		c18.195,0,36.159,0.941,47.209,1.665c-3.17-8.004-8.438-21.816-17.316-45.858l-7.76-21.005l18.026,13.285
		c35.836,26.405,55.463,67.076,55.66,67.488c2.77,4.135,25.05,14.489,44.075,21.494c1.677,0.746,2.921,1.336,4.164,1.938
		c2.066,0.987,4.125,1.988,6.095,2.749l5.92,2.541c0.208-0.304,0.426-0.599,0.654-0.892c1.14-1.479,2.305-3.482,3.378-5.304
		c0.287-0.472,0.562-0.942,0.832-1.388c-2.742-6.353-9.266-12.749-17.043-16.526c-8.938-4.347-42.296-17.311-42.629-17.441
		l-3.786-1.474l-3.515-31.642l9.77,3.013c2.527,0.785,5.066,1.729,8.013,2.822c6.562,2.438,14.729,5.474,29.607,9.187
		c5.88,1.701,11.249,2.572,15.778,2.572c2.926,0,9.894-0.426,11.303-4.394c12.177-37.237,42.542-77.522,85.438-113.294l1.402-1.169
		c12.099-10.21,12.831-14.974,12.771-16.189c-0.061-1.037-0.996-2.186-2.794-3.406c-7.465-5.278-126.389-78.895-188.238-117.1
		l-24.075-14.865l197.503,17.417c11.471-11.789,41.921-39.708,74.723-41.954l1.729-0.021c32.146,0,56.699,10.676,82.685,21.973
		c26.761,11.638,54.437,23.667,93.565,25.214c2.129,0.125,4.374,0.183,6.844,0.183c14.771,0,40.561-2.277,64.66-8.704
		c23.193-6.515,42.574-22.494,42.771-22.655l28.43-23.658l-18.312,32.131c-0.989,1.729-22.746,38.958-77.297,59.077
		c18.471-2.871,30.885-5.953,31.1-6.005l54.396-13.66l-49.646,26.096c-2.292,1.208-56.646,29.649-90.51,36.281
		c-0.504,0.111-1.041,0.232-1.618,0.361c19.819,1.345,46.63,4.087,46.911,4.116l31.716,3.25l-30.334,9.798
		c-44.253,14.29-118.145,41.491-128.052,53.649c-7.562,9.284-3.057,17.812,9.029,35.059c5.841,8.338,11.883,16.957,14.782,26.408
		c12.257,39.953-1.788,85.569-16.661,133.861c-15.892,51.605-32.324,104.964-12.722,148.562
		c18.751,41.725,67.501,89.048,67.991,89.52l37.751,36.428l-88.086-49.66c-20.983-12.468-34.125-22.013-48.612-35.293
		c-2.146-1.922-4.264-3.886-6.309-5.829c2.764,21.017,8.617,55.82,19.468,82.77l11.457,28.463l-22.288-21.083
		c-1.073-1.015-18.915-18.062-36.244-44.462c1.322,5.657,2.685,11.523,4.038,17.9c3.682,16.846,12.382,60.062,14.214,78.524
		c2.431,24.499,9.146,99.897,8.19,124.192c-0.823,21.13-3.809,68.485-3.842,68.963L924.899,1374.847z M869.856,1128.645
		l2.372,40.567c1.065,18.229,10.983,63.121,13.195,70.984c4.101,15.233,19.445,59.579,22.351,66.677
		c1.008,2.639,3.751,8.701,6.943,15.557c0.856-14.611,1.826-31.99,2.244-42.63c0.854-21.78-5.11-91.838-8.137-122.348
		c-1.676-16.894-9.935-58.5-13.979-77.021c-1.545-7.279-3.09-13.854-4.582-20.202c-1.78-7.615-3.496-14.916-5.027-22.604
		c-1.46-7.347-2.469-14.155-3.371-20.493l-7.943-55.794l20.814,52.37c9.094,22.885,22.588,42.913,33.895,57.289
		c-9.408-36.278-12.394-72.523-12.55-74.474l-1.467-18.387l12.931,13.154c1.865,1.898,3.609,3.667,5.514,5.532
		c4.084,4.023,8.857,8.682,13.77,13.079c13.991,12.82,26.099,21.604,46.335,33.629l4.964,2.802
		c-14.862-17.573-31.779-40.2-41.568-61.991c-21.672-48.199-4.484-104.021,12.139-157.997
		c14.246-46.268,27.707-89.971,16.654-125.982c-2.277-7.43-7.699-15.163-12.943-22.647c-10.34-14.751-23.203-33.109-8.446-51.222
		c11.092-13.618,67.869-35.076,104.298-47.813c-6.438-0.54-12.982-1.041-18.666-1.393c-16.621-1.024-35.891-4.772-36.701-4.932
		l-32.554-6.375l32.474-6.767c0.008,0,29.099-6.061,40.159-8.551c12.152-2.382,27.492-7.937,41.896-13.934
		c-10.369,1.194-21.75,2.139-33.54,2.484c-1.136,0.033-2.364,0.05-3.66,0.05c-8.197,0-20.639-0.7-28.54-2.038l-46.079-7.805
		l46.413-5.464c0.442-0.052,44.228-5.241,60.018-10.335c24.278-6.446,42.807-16.753,56.366-26.921
		c-2.441,0.884-4.943,1.693-7.496,2.413c-25.438,6.78-52.627,9.18-68.201,9.18c-2.766,0-5.276-0.069-7.504-0.206
		c-41.517-1.634-71.66-14.74-98.254-26.301c-24.671-10.729-47.979-20.862-77.337-20.862l-1.209,0.005
		c-23.756,1.642-50.623,21.793-67.714,40.103l-2.232,2.391l-147.625-13.019c49.346,30.507,157.275,97.312,164.779,102.618
		c6.689,4.544,8.348,9.979,8.544,13.73c0.42,8.075-5.142,16.69-17.499,27.114l-1.475,1.235
		c-40.991,34.182-69.881,72.292-81.345,107.315c-1.812,5.126-7.261,13.474-23.988,13.479c-5.781,0-12.446-1.055-19.273-3.044
		c-13.462-3.354-21.974-6.312-28.252-8.613l0.301,2.749c9.18,3.594,32.206,12.688,39.847,16.405
		c12.343,5.991,22.179,16.878,25.06,27.756l0.812,3.07l-1.866,2.578c-0.598,0.826-1.322,2.069-2.114,3.412
		c-1.296,2.18-2.765,4.654-4.274,6.618c-0.832,1.094-1.497,2.317-1.865,3.432l-2.276,6.965l-18.129-7.791
		c-2.036-0.784-4.438-1.924-6.837-3.077c-1.159-0.557-2.312-1.111-3.449-1.623c-16.808-6.168-46.453-18.293-51.107-28.151
		c-0.132-0.274-11.215-23.242-31.818-44.926c5.672,15.045,10.44,27.354,11.477,29.303l8.42,11.817l-14.736-1.688
		c-0.275-0.021-28.045-2.39-56.514-2.415c3.518,1.113,7.148,2.152,10.778,3.036c19.769,4.787,33.093,7.646,33.133,7.661
		l12.323,2.646l-39.291,37.81c15.109-4.395,35.41-11.293,55.159-21.152c3.489-2.79,7.261-4.203,11.224-4.203
		c3.378,0,6.146,0.994,8.373,1.793c0.569,0.204,1.121,0.406,1.657,0.563c3.64,1.126,50.205,21.421,64.392,27.615l10.76,4.49
		l1.086,2.396c1.723,3.765,4.273,6.965,7.188,9.021c2.357,1.719,10.914,6.014,16.57,8.854c4.119,2.067,7.728,3.889,9.356,4.839
		c4.459,2.696,8.341,5.924,12.31,10.199c6.384,7.064,11.621,16.101,15.63,26.909c6.133,17.344,8.543,36.991,7.396,60.176
		c-0.869,17.898-3.758,36.725-9.095,59.22c-4.442,18.444-9.834,37.201-16.467,57.381c-2.244,6.874-4.597,13.741-6.952,20.629
		c-3.975,11.614-8.086,23.631-11.628,35.61c-5.672,18.954-9.729,37.729-12.414,57.432c-1.996,14.403-3.426,29.72-4.525,48.681
		c1.23-1.646,2.366-3.242,3.439-4.825c3.146-4.616,5.964-9.213,8.38-13.665c4.845-8.785,9.312-18.358,13.676-29.345l1.71-4.753
		c2.174-5.974,4.222-11.609,10.136-31.346l17.344-57.908l-4.235,60.303c-0.006,0.17-1.186,17.151-1.563,38.871l-0.144,7.431
		c-0.187,8.368-0.375,17.016,0.097,25.396c0.243,4.259,0.707,9.771,1.271,15.621c1.831-7.228,3.502-13.675,4.478-17.226
		l14.354-50.832c1.692-5.762,7.14-22.884,8.96-28.479l16.493-50.604l-3.426,53.11c-0.522,8.137,0.397,41.371,1.202,54.19
		c0.591,12.519,3.987,50.688,4.715,58.231l0.436,4.209c3.518-10.512,7.02-21.188,8.727-26.94
		c7.319-24.645,15.309-53.608,15.386-53.903L869.856,1128.645z"/>
</g>
<path fill="#FFFFFF" d="M907.556,521.359c-2.726,24.22-17.587,42.43-33.162,40.647c-15.558-1.741-25.968-22.807-23.229-47.031
	c2.743-24.219,17.586-42.435,33.135-40.673C899.876,476.066,910.297,497.139,907.556,521.359z"/>
<path fill="#00BD70" d="M881.504,508.285c-0.729-14.338-21.515-16.771-24.354,3.259c-5.271,37.091,10.983,38.164,16.505,36.854
	c10.867-2.565,11.019-21.167,10.887-27.479l-18.003-5.772L881.504,508.285z"/>
</svg>
