<?xml version="1.0" encoding="utf-8"?>
<!-- Generator: Adobe Illustrator 19.0.0, SVG Export Plug-In . SVG Version: 6.00 Build 0)  -->
<svg version="1.1" id="Calque_1" xmlns="http://www.w3.org/2000/svg" xmlns:xlink="http://www.w3.org/1999/xlink" x="0px" y="0px"
	 viewBox="1194.7 -15 897.8 897.8" style="enable-background:new 1194.7 -15 897.8 897.8;" xml:space="preserve">
<style type="text/css">
	.st0{fill:#9ACAEB;}
	.st1{fill:#FFFFFF;}
	.st2{fill:#00BD70;}
	.st3{fill:#2AA137;stroke:#FFFFFF;stroke-width:0.5;stroke-miterlimit:10;}
	.st4{fill:#DC96BE;}
</style>
<g>
	<path class="st0" d="M1906.1,357.5c0,170-137.8,307.8-307.8,307.8c-170,0-307.8-137.8-307.8-307.8c0-170,137.8-307.8,307.8-307.8
		C1768.3,49.7,1906.1,187.5,1906.1,357.5z"/>
	<path class="st1" d="M1598.3,674.8c-175,0-317.3-142.3-317.3-317.3c0-175,142.3-317.3,317.3-317.3c175,0,317.3,142.3,317.3,317.3
		C1915.6,532.4,1773.3,674.8,1598.3,674.8z M1598.3,59.2C1433.8,59.2,1300,193,1300,357.5c0,164.5,133.8,298.3,298.3,298.3
		c164.5,0,298.3-133.8,298.3-298.3C1896.6,193,1762.8,59.2,1598.3,59.2z"/>
</g>
<g>
	<path class="st2" d="M1601.9,687.2c23.5-3.7,54.2-10.3,76.7-32.1c16.9-16.3,19.5-28.4,16.7-46c0,0-53.2-281-65.9-362
		c-10.8-68.4-10.9-93.1-54.7-109.2c-27.6-10.1-37.3-38-39.1-51.5c-1.3-9.4-8.2-49.3-12-72.7c-3.7-23.5-5.4-26.2-40.6-20.6l4.7-0.7
		c-35.2,5.6-35.9,8.7-32.2,32.2c3.7,23.5,10.5,63.3,12,72.7c2.1,13.2,0.5,42.3-21.9,61.3c-30,25.4-31,39.8-18,120.8
		c12.9,81,65.9,362,65.9,362c2.8,17.6,9.1,28.3,30.2,38.5c28.2,13.7,59.4,10.4,82.9,6.6"/>
	<path class="st1" d="M1601.8,686.5c17-2.8,34.1-6.7,49.6-14.2c15.4-7.4,29.5-18.6,38.3-33c4.3-7.3,5.7-15.7,4.8-24.2
		c-0.4-4.2-1.3-8.4-2.1-12.7l-2.5-12.8l-9.9-51.1l-19.7-102.2L1641,334.3l-9.1-51.3c-3-17.1-6.2-34.2-8.8-51.3
		c-2.8-17.1-5.1-34.4-10.1-50.3c-2.5-7.9-6-15.4-11.2-21.3c-5.1-6-11.9-10.5-19.4-14c-1.9-0.9-3.8-1.7-5.7-2.5l-2.9-1.1l-3.2-1.3
		c-1.9-0.7-4.1-1.8-6.3-3c-2.2-1.1-4-2.5-6-3.8c-7.5-5.6-13.8-12.9-18.3-20.9c-4.6-8.1-7.8-16.8-9.2-26.1l-4.3-25.6l-8.8-51.2
		c-0.7-4.1-1.6-8.3-3-10.8c-0.7-1.3-1.3-1.9-2.2-2.4c-0.9-0.5-2.4-0.9-4.1-1c-7.2-0.5-16.1,1.1-24.4,2.4l-1.8-11.2l4.7-0.8l1.8,11.3
		c-8.3,1.5-17.2,2.8-23.8,5.6c-1.6,0.7-2.8,1.5-3.4,2.2c-0.6,0.7-0.9,1.4-1.2,2.7c-0.4,2.7,0.1,7,0.7,11l8.7,51.1l4.4,25.8
		c1.4,9.4,0.9,19-1.1,28.2c-1.9,9.2-5.7,18.2-11.1,26.2c-2.8,3.9-5.9,7.7-9.5,11c-3.6,3.4-6.6,5.7-9.5,8.7
		c-5.8,5.7-10.4,11.7-12.9,18.6c-2.5,6.9-3.2,14.8-3.1,23c0.1,8.2,0.9,16.6,2,25.1c1,8.5,2.2,17,3.4,25.5c2.5,17.1,5.6,34,8.5,51.1
		l8.7,51.2l35.5,204.8l8.7,51.2l4.4,25.4c1.6,8.1,5.3,15.1,11.3,20.6c3,2.7,6.4,5.1,10,7.3c1.7,1.1,3.7,2.1,5.4,3
		c2,0.9,3.9,1.9,5.9,2.7c7.6,3.2,16,5.4,24.4,6.7c16.9,2.5,34.3,1.2,51.4-1l0.2,1.4c-17,3.2-34.5,5.4-52.1,3.6
		c-8.8-0.9-17.4-2.8-25.9-5.9c-2.1-0.8-4-1.7-6-2.5c-2.2-1-4.1-1.9-6.1-3c-3.9-2.1-7.8-4.6-11.3-7.5c-7.2-5.9-12.1-14.8-14.2-23.7
		l-5.3-25.6l-10.4-50.9l-10.2-51l-9.9-51l-19.6-102.2l-9.1-51.2c-2.9-17-6.2-34.1-8.8-51.4c-2.6-17.2-5.3-34.5-5.5-52.7
		c0-9.1,0.7-18.7,4.2-28.2c3.5-9.5,9.9-17.5,16.5-23.8c3.2-3.2,7.1-6.2,9.8-8.8c2.9-2.5,5.3-5.5,7.6-8.6c4.3-6.3,7.6-13.5,9.3-21.2
		c1.8-7.7,2.3-15.7,1.2-23.5l-4-25.5l-8.1-51.4c-0.5-4.5-1.4-9-0.5-14.8c0.5-2.9,1.9-6.4,4.3-8.8c2.3-2.4,5-3.8,7.4-4.9
		c4.8-2,9.3-2.9,13.7-3.8c4.4-0.9,8.7-1.6,13.1-2.2l1.8,11.3l-4.7,0.7l-1.8-11.2c4.3-0.7,8.7-1.3,13.1-1.8c4.5-0.5,9-0.9,14.1-0.4
		c2.6,0.3,5.5,0.8,8.4,2.4c2.9,1.6,5.3,4.3,6.6,6.9c2.6,5.2,3.1,9.7,3.9,14.1l8.2,51.5l4,25.8c1.1,7.8,3.9,15.7,7.8,22.7
		c3.9,7.1,9.2,13.3,15.5,18.1c1.6,1,3.3,2.4,4.9,3.2l2.5,1.4c0.8,0.5,2,0.9,2.9,1.3l2.8,1.2l3.1,1.2c2.1,0.9,4.2,1.7,6.2,2.8
		c8.2,3.9,16.1,9.2,22.2,16.5c6.1,7.2,10,15.9,12.6,24.5c5.1,17.3,7.2,34.6,9.8,51.7c2.4,17.2,5.5,34.2,8.3,51.3l8.6,51.3l18,102.5
		l18.3,102.4l9.3,51.2l2.3,12.8c0.8,4.2,1.7,8.6,2,13c0.9,8.8-0.8,18.3-5.5,25.9c-9.6,15.1-24.1,26.1-39.9,33.5
		c-15.9,7.4-33.2,11.1-50.3,13.6L1601.8,686.5z"/>
</g>
<path class="st1" d="M1518.1,607.9c3.2,29.9,30.1,51.5,60,48.3c29.9-3.2,51.5-30.1,48.3-60c-3.2-29.9-30.1-51.5-60-48.3
	C1536.5,551.1,1514.9,577.9,1518.1,607.9z"/>
<g>
	<path class="st3" d="M1550,552"/>
</g>
<path class="st2" d="M1540,641.9c9.9,8.4,23.3,13.1,37.9,11.6c28.4-3.1,48.9-28.5,45.9-56.9c-3-28.4-28.5-48.9-56.9-45.9
	c-5.5,0.6-10.7,2-15.5,4.2c0,0,15.9-7.6,35.5,1.6c20.3,9.5,32.8,27.2,20.4,54.6c-9.8,24.2-34.4,25.6-34.4,25.6s0.3,5.5,0.4,7.4
	c0.2,1.9-1.5,2.2-4.9,1.4c-3.4-0.8-16.1-7.1-26.6-18c-2.5-2.9-3.5-3.3-0.6-8.4c2.1-4.2,10.6-16.7,21.7-21c5.8-2.7,4.4,0.9,4.7,2.1
	c0.3,1.2,0.8,6.3,0.8,6.3s17.3-3.4,26.6-21.1c2.5-5.2,2.6-6.1-1.1-10.6c-2.2-2.7-11.2-12-27-17.4c-4.3-1.5-3.6,2.2-3.5,3.1
	c0.2,1.5,0.6,6,0.6,6s-15.1,1.3-27,15.7c-12.4,15-12.4,27.3-11.2,35.2C1527.2,627.1,1534.5,637.2,1540,641.9z"/>
<g>
	<path class="st1" d="M1365,476.7c0.7,0.8,1.7,2.2,2.6,3.7c1.2,2.1,1.7,3.7,1.4,5.3c-0.1,1.2-0.8,2.3-2.1,3.1
		c-1.6,0.9-3.6,0.7-5.3-0.7l0,0c0.5,1.8,0.3,4.4-2.2,5.8c-1.4,0.8-2.8,0.9-4.1,0.5c-1.7-0.5-3.3-2.1-4.9-4.8
		c-0.9-1.5-1.4-2.7-1.7-3.4L1365,476.7z M1351.5,487.4c0.2,0.5,0.5,1.1,0.9,1.9c1.3,2.2,3.3,3.8,5.7,2.4c2.3-1.3,2.1-3.8,0.7-6.2
		l-1-1.8L1351.5,487.4z M1359.5,482.8l1.1,2c1.3,2.3,3.3,2.9,4.9,2c2-1.1,1.9-3.1,0.6-5.2c-0.6-1-1-1.5-1.2-1.8L1359.5,482.8z"/>
	<path class="st1" d="M1373.8,508.5c-5.6,3.6-10.7,2.1-13.3-2c-2.8-4.3-1.4-9.4,3.5-12.5c5.1-3.3,10.5-2.3,13.3,2
		C1380.1,500.4,1378.6,505.4,1373.8,508.5z M1365.5,496.2c-3.4,2.2-5.3,6.1-3.2,9.4c2.1,3.3,6.4,3.2,10,0.8c3.2-2.1,5.5-5.9,3.2-9.4
		C1373.3,493.5,1369,493.9,1365.5,496.2z"/>
	<path class="st1" d="M1383.3,505.9c0.9,0.9,2.1,2.2,3.1,3.6c1.6,2.1,2.2,3.8,2,5.4c-0.1,1.3-0.9,2.5-2.1,3.4
		c-2.1,1.5-4.4,1.2-6.1-0.1l-0.1,0.1c0.4,1.5-0.1,3-1.5,4.6c-1.8,2.1-3,3.5-3.4,4.3l-1.5-2.1c0.3-0.6,1.3-1.9,3-3.7
		c1.8-2,2-3.4,0.8-5.3l-1.4-1.9l-6.8,4.9l-1.4-2L1383.3,505.9z M1377.6,513l1.5,2.1c1.6,2.2,3.7,2.7,5.5,1.4c2-1.5,1.8-3.5,0.3-5.7
		c-0.7-1-1.3-1.6-1.6-1.9L1377.6,513z"/>
	<path class="st1" d="M1392,518c1.1,1,2.4,2.3,3.6,3.9c2.2,2.8,3.2,5.3,3,7.6c-0.2,2.3-1.3,4.5-3.7,6.4c-2.4,2-5.1,2.8-7.6,2.5
		c-2.5-0.3-5.1-2-7.5-4.9c-1.1-1.4-2-2.6-2.6-3.7L1392,518z M1380.3,530.5c0.3,0.6,0.9,1.3,1.5,2c3.3,4.1,7.4,4.5,11.5,1.3
		c3.6-2.8,4.2-6.6,0.9-10.7c-0.8-1-1.5-1.7-2-2.1L1380.3,530.5z"/>
	<path class="st1" d="M1402.9,546.5l-4.9-5.6l-5.2,4.6l5.5,6.3l-1.6,1.4l-7.1-8.1l14.4-12.7l6.9,7.8l-1.6,1.4l-5.2-5.9l-4.6,4
		l4.9,5.6L1402.9,546.5z"/>
	<path class="st1" d="M1405.8,554l-5.7,2.7l-1.8-1.9l18.4-8.6l2.1,2.2l-9.3,18l-1.8-1.9l2.9-5.7L1405.8,554z M1411.5,557.2l2.7-5.2
		c0.6-1.2,1.2-2.2,1.8-3.1l0,0c-1,0.6-2.1,1.2-3.2,1.7l-5.3,2.5L1411.5,557.2z"/>
	<path class="st1" d="M1426.3,556.1l-7.8,8.2c-3,3.1-2.8,5.8-1,7.5c2.1,2,4.7,1.9,7.6-1.2l7.8-8.2l1.8,1.7l-7.7,8.1
		c-4.1,4.3-8,3.9-11,1c-2.9-2.7-3.4-6.4,0.7-10.7l7.8-8.2L1426.3,556.1z"/>
	<path class="st1" d="M1433.1,588.3l0.9-4.8c0.3-1.9,0.5-3.1,0.8-4.3l0,0c-1.1,0.5-2.2,0.9-4.1,1.5l-4.5,1.7l-2.2-1.9l10.8-3.5
		l2-10.9l2.2,1.9l-1,5.1c-0.3,1.4-0.5,2.5-0.8,3.6l0.1,0.1c1.2-0.5,2.1-0.8,3.5-1.3l4.9-1.7l2.2,1.9l-10.6,3.2l-2,11.4L1433.1,588.3
		z"/>
</g>
<g>
	<path class="st2" d="M1847.3,864.4c0,0,2.1-33.7,2.7-48.8c0.7-16.6-4-69.1-5.8-87.4c-1.3-13-7.5-43.9-10-55.2
		c-2.4-11.3-4.8-20.3-6.8-30.3c-1-5.1-1.7-9.8-2.3-14.3c13.5,34,39.9,58.9,39.9,58.9c-12.2-30.3-15.6-73.3-15.6-73.3l0,0
		c1.3,1.4,2.6,2.6,4,4c3.2,3.2,6.5,6.4,9.9,9.4c10,9.2,19,15.7,33.6,24.4l30.1,16.9c0,0-35.4-34.2-49.3-65
		c-27.4-61.1,38.3-143.1,20.6-200.8c-5.3-17.1-28.6-32.5-16-48c10.5-12.9,93-39.6,93-39.6s-21.5-2.2-35.7-3.1
		c-11.6-0.7-25.4-3.4-25.4-3.4s20.7-4.3,28.6-6.1c23.6-4.6,62.9-25.3,62.9-25.3s-27.3,6.9-58.2,7.8c-6.1,0.2-16.3-0.4-21.9-1.3
		c0,0,31.7-3.7,43.5-7.5c46.3-12.3,64.1-43.5,64.1-43.5s-14.5,12-32.1,17c-19.3,5.2-41.1,6.9-52.1,6.2c-56-2.2-80.2-33.9-125.7-33.5
		c-18.4,1.3-38.1,15.6-51.5,29.9L1649.4,242c0,0,126.9,78.4,133.7,83.2c6.8,4.6,5.4,11.2-6.7,21.5c-5.1,4.3-46.5,37.2-60.2,79.1
		c-2.5,7-13.2,7.7-24.8,4.3c-15.5-3.9-21.3-6.8-26.9-8.6l1.4,12.4c0,0,24,9.3,30.6,12.5c6.9,3.4,13.4,9.7,15.3,16.6
		c-1.1,1.6-2.9,5-4.4,7c-0.9,1.2-1.6,2.5-2.1,3.9l-1.1-0.5l-7-3c-2.3-0.9-4.8-2.2-7.2-3.3c0,0-30.9-11.4-33.9-17.7
		c-3-6.4-16.6-30.3-38-46.1c0,0,13.9,37.7,15.2,39.5c0,0-33-2.8-58.1-1.2l-5,0.5c0,0,14.5,6.9,29.1,10.5c14.1,3.4,23.6,5.5,23.6,5.5
		l-34.3,33c0,0,29.6-5.7,57.9-20c4.5-3.9,8-1.7,11.1-0.8c2.5,0.8,45.1,19.4,45.1,19.4l6,2.5c1.5,3.2,3.7,6.2,6.7,8.3
		c3.1,2.2,15.8,8.2,18.7,9.9c3,1.8,5.3,3.9,7.6,6.4c4.5,5,7.7,11.1,10.1,17.5c4.6,12.9,5.6,27,5,40.8c-0.7,13.8-3.1,27.6-6.3,41.1
		c-3.3,13.7-7.2,27-11.6,40.3c-4.3,13.3-9.2,26.5-13.2,40c-3.6,12-6.8,25.5-9,41.4c-1.9,14-2.9,28.1-3.6,42.1l-0.3,7.1l4.6-5.4
		c2.6-3,5-6.2,7.2-9.4c2.2-3.3,4.3-6.6,6.2-10.1c3.8-6.9,7.1-14.1,9.9-21.3c2.2-6.4,3.2-8.3,8.5-26c0,0-0.8,12.1-1.1,27.8
		c-0.1,7.9-0.5,15.7,0,23.6c0.7,12.1,3.8,37.7,3.8,37.7s7.4-29.8,9.6-37.8l10.2-36c1.2-4,5-16.1,6.3-20c-0.4,6.1,0.3,29.8,0.9,39
		c0.4,9.2,2.9,36.9,3.4,41.5l1.4,13.8l1.1,10.9c0,0,10.3-30,13.2-39.9c5.3-17.7,10.9-38.3,10.9-38.3c0.8,13.6,8,46,9.5,51.4
		c2.9,10.8,13.9,42.6,16,47.8C1836.4,841.7,1847.3,864.4,1847.3,864.4z"/>
	<path class="st1" d="M1850.9,882.8l-7.9-16.4c-0.4-0.9-11.1-23-13.1-28.4c-2.1-5.1-13.2-37.3-16.2-48.3c-1-3.6-4-16.8-6.4-29.7
		c-1.6,5.4-3.2,11.3-4.9,16.8c-3,9.9-12.9,38.9-13.3,40.1l-7,20.4l-4.8-46.2c-0.4-4.1-2.9-32.1-3.4-41.7c-0.1-2.3-0.3-5.3-0.4-8.8
		l-7.6,26.8c-2.2,7.8-9.5,37.4-9.5,37.7l-6.2,25l-3.1-25.6c-0.1-1.1-3.2-25.9-3.9-38c-0.4-6.3-0.2-12.6-0.1-18.8l0-0.7
		c-2.7,6.4-5.4,12.1-8.3,17.3c-1.8,3.4-4,6.9-6.4,10.5c-2.1,3.1-4.5,6.3-7.5,9.8l-13.6,16.1l1-21.1c0.8-17.2,2-30.3,3.7-42.6
		c2-14.5,4.9-28.2,9.1-42.1c2.6-8.7,5.5-17.3,8.4-25.6c1.7-4.8,3.3-9.7,4.9-14.5c4.6-14.1,8.4-27.1,11.5-39.9
		c3.6-15.4,5.6-28.2,6.2-40.3c0.8-15.2-0.8-27.9-4.7-39c-2.4-6.5-5.5-11.8-9.2-15.9c-2.2-2.4-4.2-4.1-6.6-5.5c-1-0.6-3.4-1.8-6-3.1
		c-6.3-3.2-10.9-5.5-13-7c-2.9-2.1-5.5-5-7.3-8.5l-4.4-1.8c-16.2-7.1-42.5-18.5-44.8-19.3c-0.5-0.1-1-0.3-1.6-0.5
		c-1-0.4-2-0.7-2.7-0.7c-0.3,0-1,0-2.2,1.1l-1,0.6c-28.6,14.4-57.9,20.2-59.2,20.4l-15.8,3.1l39.5-38c-4-0.9-9.1-2.1-15.1-3.5
		c-15-3.6-29.5-10.5-30.1-10.8l-15.1-7.2l21.6-2.4c5.4-0.3,11.3-0.5,17.8-0.5c12.9,0,25.6,0.7,33.5,1.2c-2.2-5.7-6-15.5-12.3-32.5
		l-5.5-14.9l12.8,9.4c25.4,18.7,39.3,47.6,39.5,47.9c2,2.9,17.8,10.3,31.3,15.2c1.2,0.5,2.1,0.9,3,1.4c1.5,0.7,2.9,1.4,4.3,1.9
		l4.2,1.8c0.1-0.2,0.3-0.4,0.5-0.6c0.8-1,1.6-2.5,2.4-3.8c0.2-0.3,0.4-0.7,0.6-1c-1.9-4.5-6.6-9-12.1-11.7
		c-6.3-3.1-30-12.3-30.2-12.4l-2.7-1l-2.5-22.4l6.9,2.1c1.8,0.6,3.6,1.2,5.7,2c4.7,1.7,10.4,3.9,21,6.5c4.2,1.2,8,1.8,11.2,1.8
		c2.1,0,7-0.3,8-3.1c8.6-26.4,30.2-55,60.6-80.3l1-0.8c8.6-7.2,9.1-10.6,9.1-11.5c0-0.7-0.7-1.5-2-2.4c-5.3-3.7-89.6-56-133.5-83
		l-17.1-10.5l140.1,12.4c8.1-8.4,29.7-28.2,53-29.8l1.2,0c22.8,0,40.2,7.6,58.6,15.6c19,8.3,38.6,16.8,66.4,17.9
		c1.5,0.1,3.1,0.1,4.9,0.1c10.5,0,28.8-1.6,45.9-6.2c16.4-4.6,30.2-16,30.3-16.1l20.2-16.8l-13,22.8c-0.7,1.2-16.1,27.6-54.8,41.9
		c13.1-2,21.9-4.2,22.1-4.3l38.6-9.7l-35.2,18.5c-1.6,0.9-40.2,21-64.2,25.7c-0.4,0.1-0.7,0.2-1.1,0.3c14.1,1,33.1,2.9,33.3,2.9
		l22.5,2.3l-21.5,6.9c-31.4,10.1-83.8,29.4-90.8,38c-5.4,6.6-2.2,12.6,6.4,24.9c4.1,5.9,8.4,12,10.5,18.7
		c8.7,28.3-1.3,60.7-11.8,94.9c-11.3,36.6-22.9,74.4-9,105.4c13.3,29.6,47.9,63.2,48.2,63.5l26.8,25.8l-62.5-35.2
		c-14.9-8.8-24.2-15.6-34.5-25c-1.5-1.4-3-2.8-4.5-4.1c2,14.9,6.1,39.6,13.8,58.7l8.1,20.2l-15.8-15c-0.8-0.7-13.4-12.8-25.7-31.5
		c0.9,4,1.9,8.2,2.9,12.7c2.6,11.9,8.8,42.6,10.1,55.7c1.7,17.4,6.5,70.8,5.8,88.1c-0.6,15-2.7,48.6-2.7,48.9L1850.9,882.8z
		 M1811.9,708.2l1.7,28.8c0.8,12.9,7.8,44.8,9.4,50.3c2.9,10.8,13.8,42.3,15.8,47.3c0.7,1.9,2.7,6.2,4.9,11
		c0.6-10.4,1.3-22.7,1.6-30.2c0.6-15.4-3.6-65.1-5.8-86.8c-1.2-12-7-41.5-9.9-54.6c-1.1-5.2-2.2-9.8-3.3-14.3
		c-1.3-5.4-2.5-10.6-3.6-16c-1-5.2-1.8-10-2.4-14.5l-5.6-39.6l14.8,37.1c6.4,16.2,16,30.4,24,40.6c-6.7-25.7-8.8-51.4-8.9-52.8
		l-1-13l9.2,9.3c1.3,1.3,2.6,2.6,3.9,3.9c2.9,2.9,6.3,6.2,9.8,9.3c9.9,9.1,18.5,15.3,32.9,23.8l3.5,2c-10.5-12.5-22.5-28.5-29.5-44
		c-15.4-34.2-3.2-73.8,8.6-112c10.1-32.8,19.7-63.8,11.8-89.3c-1.6-5.3-5.5-10.8-9.2-16.1c-7.3-10.5-16.5-23.5-6-36.3
		c7.9-9.7,48.1-24.9,74-33.9c-4.6-0.4-9.2-0.7-13.2-1c-11.8-0.7-25.5-3.4-26-3.5l-23.1-4.5l23-4.8c0,0,20.6-4.3,28.5-6.1
		c8.6-1.7,19.5-5.6,29.7-9.9c-7.4,0.8-15.4,1.5-23.8,1.8c-0.8,0-1.7,0-2.6,0c-5.8,0-14.6-0.5-20.2-1.4l-32.7-5.5l32.9-3.9
		c0.3,0,31.4-3.7,42.6-7.3c17.2-4.6,30.4-11.9,40-19.1c-1.7,0.6-3.5,1.2-5.3,1.7c-18,4.8-37.3,6.5-48.4,6.5c-2,0-3.7,0-5.3-0.1
		c-29.4-1.2-50.8-10.5-69.7-18.7c-17.5-7.6-34-14.8-54.8-14.8l-0.9,0c-16.8,1.2-35.9,15.5-48,28.4l-1.6,1.7l-104.7-9.2
		c35,21.6,111.5,69,116.9,72.8c4.7,3.2,5.9,7.1,6.1,9.7c0.3,5.7-3.6,11.8-12.4,19.2l-1,0.9c-29.1,24.2-49.6,51.3-57.7,76.1
		c-1.3,3.6-5.1,9.6-17,9.6c-4.1,0-8.8-0.7-13.7-2.2c-9.5-2.4-15.6-4.5-20-6.1l0.2,1.9c6.5,2.5,22.8,9,28.3,11.6
		c8.8,4.2,15.7,12,17.8,19.7l0.6,2.2l-1.3,1.8c-0.4,0.6-0.9,1.5-1.5,2.4c-0.9,1.5-2,3.3-3,4.7c-0.6,0.8-1.1,1.6-1.3,2.4l-1.6,4.9
		l-12.9-5.5c-1.4-0.6-3.1-1.4-4.8-2.2c-0.8-0.4-1.6-0.8-2.4-1.2c-11.9-4.4-32.9-13-36.2-20c-0.1-0.2-8-16.5-22.6-31.9
		c4,10.7,7.4,19.4,8.1,20.8l6,8.4l-10.5-1.2c-0.2,0-19.9-1.7-40.1-1.7c2.5,0.8,5.1,1.5,7.6,2.2c14,3.4,23.5,5.4,23.5,5.4l8.7,1.9
		l-27.9,26.8c10.7-3.1,25.1-8,39.1-15c2.5-2,5.1-3,8-3c2.4,0,4.4,0.7,5.9,1.3c0.4,0.1,0.8,0.3,1.2,0.4c2.6,0.8,35.6,15.2,45.7,19.6
		l7.6,3.2l0.8,1.7c1.2,2.7,3,4.9,5.1,6.4c1.7,1.2,7.7,4.3,11.8,6.3c2.9,1.5,5.5,2.8,6.6,3.4c3.2,1.9,5.9,4.2,8.7,7.2
		c4.5,5,8.2,11.4,11.1,19.1c4.3,12.3,6.1,26.2,5.2,42.7c-0.6,12.7-2.7,26-6.4,42c-3.2,13.1-7,26.4-11.7,40.7
		c-1.6,4.9-3.3,9.7-4.9,14.6c-2.8,8.2-5.7,16.8-8.2,25.3c-4,13.4-6.9,26.8-8.8,40.7c-1.4,10.2-2.4,21.1-3.2,34.5
		c0.9-1.2,1.7-2.3,2.4-3.4c2.2-3.3,4.2-6.5,5.9-9.7c3.4-6.2,6.6-13,9.7-20.8l1.2-3.4c1.5-4.2,3-8.2,7.2-22.2l12.3-41.1l-3,42.8
		c0,0.1-0.8,12.2-1.1,27.6l-0.1,5.3c-0.1,5.9-0.3,12.1,0.1,18c0.2,3,0.5,6.9,0.9,11.1c1.3-5.1,2.5-9.7,3.2-12.2l10.2-36
		c1.2-4.1,5.1-16.2,6.4-20.2L1785,673l-2.4,37.7c-0.4,5.8,0.3,29.3,0.9,38.4c0.4,8.9,2.8,35.9,3.3,41.3l0.3,3c2.5-7.5,5-15,6.2-19.1
		c5.2-17.5,10.9-38,10.9-38.2L1811.9,708.2z"/>
</g>
<path class="st1" d="M1838.6,277.6c-1.9,17.2-12.5,30.1-23.5,28.8c-11-1.2-18.4-16.2-16.5-33.4c1.9-17.2,12.5-30.1,23.5-28.8
	C1833.2,245.4,1840.5,260.4,1838.6,277.6z"/>
<path class="st2" d="M1820.1,268.3c-0.5-10.2-15.3-11.9-17.3,2.3c-3.7,26.3,7.8,27.1,11.7,26.1c7.7-1.8,7.8-15,7.7-19.5l-12.8-4.1
	L1820.1,268.3z"/>
<g>
	<path class="st4" d="M1715.9,614.5c-49.4-20.2-106.3-63.4-145.3-96.1c-52-43.6-92.8-85.4-111.9-108c-22.4-26.5-45.4-55.6-61.8-89.4
		c-18.8-38.6-25.6-76.4-20.9-115.6c7-57.3,28.2-91,44.7-109.2c18.1-19.9,34.5-26.1,35.2-26.3l3.3-1.2l0.7,3.4
		c0.1,0.4,2.1,10.7,5.1,33.2l0.2,1.4l-1,1c-17.2,18.3-28.9,38.1-34.7,58.8c-5.5,19.7-5.8,41-1,63.2c9,41.5,35.2,86.6,80.1,137.9
		c23.8,27.2,74.1,70.6,178.9,123.3c62.8,31.6,116.1,51.7,116.6,51.9l23.2,8.7l-28.9-3.5c-19-2.3-42.7-5.1-62-5.1
		c-26.7,0-33.9,5.5-35.1,10.1c-7.2,26.2,17.8,56.3,18.1,56.6l7.9,9.3L1715.9,614.5z"/>
	<path class="st1" d="M1457,72.7c0,0,2,10.3,5,33c-72.3,76.7-39.7,168,44.3,264s296.7,176,296.7,176c-20-2.4-45.7-5.7-66.6-5.7
		c-19.8,0-35.4,2.9-38,12.3c-7.7,28.1,18.7,59.3,18.7,59.3c-88-36-212-151.3-256-203.3s-92.4-117.1-82-202.7
		C1392.3,96.4,1457,72.7,1457,72.7 M1461.5,64.6l-6.6,2.4c-0.7,0.3-17.8,6.7-36.4,27.1c-10.8,11.8-19.9,26-27.2,42.2
		c-9,20-15.2,43.1-18.3,68.6c-4.8,39.8,2.1,78.1,21.1,117.3c16.6,34.1,39.7,63.4,62.2,90c19.2,22.7,60.1,64.7,112.2,108.4
		c39.2,32.8,96.3,76.2,146.1,96.6l22.6,9.3l-15.8-18.7c-0.2-0.3-24.3-29.2-17.5-53.9c0.5-1.9,4.4-7.9,32.2-7.9
		c19.1,0,42.7,2.8,61.7,5.1l4.2,0.5l49.2,5.9l-46.4-17.5c-0.5-0.2-53.7-20.3-116.4-51.8c-36.7-18.5-69.5-37.2-97.4-55.6
		c-34.6-22.9-61.7-45.4-80.5-66.9c-21.4-24.5-38.9-48.1-51.9-70.1c-13.8-23.3-23-45.7-27.6-66.5c-4.7-21.7-4.4-42.5,1-61.8
		c5.6-20.3,17.1-39.7,34-57.6l2-2.1l-0.4-2.8c-3-22.6-5-33-5.1-33.4L1461.5,64.6L1461.5,64.6z"/>
</g>
<g>
	<path class="st4" d="M1532,52.7c0,0,92-12,119,74s-3,165-106,249s-280,115-280,115s-22-57-25-87c0,0,231,0,330-130s3-192-32-195
		L1532,52.7z"/>
	<path class="st1" d="M1532,52.4c7.8-0.8,15.6-0.8,23.4-0.1c7.8,0.6,15.5,1.9,23.1,3.9c15.1,3.9,29.6,10.9,41.6,21
		c12,10.1,21.3,23.3,27.5,37.7c1.5,3.6,2.9,7.3,4.1,11c1.2,3.7,2.3,7.5,3.3,11.3c1,3.8,1.9,7.6,2.7,11.4c0.8,3.8,1.5,7.7,2,11.6
		c2.2,15.5,2.5,31.3,0.5,46.9c-2,15.6-6.1,30.8-12.1,45.3c-6,14.5-13.6,28.3-22.4,41.2c-8.8,13-18.7,25.1-29.3,36.7
		c-10.6,11.5-21.9,22.4-33.6,32.7c-11.7,10.3-23.8,20.3-36.6,29.3c-12.8,9-26.2,17.1-39.9,24.6c-13.7,7.5-27.8,14.4-42,20.7
		c-28.6,12.7-58,23.4-87.8,32.6c-14.9,4.6-30,8.8-45.1,12.7c-15.2,3.8-30.3,7.4-45.8,10.3l-2,0.4l-0.7-1.9c-1.4-3.6-2.7-7.1-4-10.7
		c-1.3-3.6-2.6-7.1-3.8-10.7c-2.5-7.2-4.9-14.4-7.1-21.6c-2.2-7.3-4.3-14.6-6.2-22c-0.5-1.9-0.9-3.7-1.3-5.6
		c-0.4-1.9-0.8-3.7-1.2-5.6c-0.4-1.9-0.7-3.8-1-5.7l-0.4-2.9l-0.3-2.9l-0.3-2.9l3,0c12.5-0.2,25.2-1,37.7-2.2
		c12.6-1.1,25.1-2.7,37.6-4.5c12.5-1.9,24.9-4.1,37.3-6.6c12.4-2.6,24.6-5.5,36.8-8.9c6.1-1.7,12.1-3.5,18.1-5.4c3-1,6-1.9,9-2.9
		l4.5-1.5l4.5-1.6c11.9-4.2,23.6-8.9,35-14.2c11.5-5.2,22.6-11.1,33.4-17.5c5.4-3.2,10.7-6.6,15.9-10.1l3.9-2.7l3.8-2.7
		c2.6-1.8,5-3.8,7.5-5.6c9.9-7.7,19.2-16.1,27.9-25.2c4.3-4.6,8.4-9.3,12.3-14.2c1-1.2,2-2.5,2.9-3.7l2.9-3.8
		c1.9-2.5,3.7-5.1,5.5-7.6c7.2-10.3,13.8-21.1,19.3-32.3c5.5-11.3,10-23,12.8-35.2c2.8-12.2,3.7-24.8,2-37.1
		c-1.7-12.3-6-24.3-12.7-34.8c-6.7-10.5-15.6-19.7-25.8-26.9c-5.1-3.6-10.6-6.8-16.3-9.3c-5.7-2.5-11.8-4.5-18-5.2l-0.5-0.1
		l-0.1-0.5l-5.7-26.4L1532,52.4z M1532.4,53l6.3,25.6l-0.6-0.5c6.5,0.5,12.6,2.5,18.6,4.9c5.9,2.5,11.6,5.5,16.9,9.1
		c10.6,7.1,20,16.3,27.1,27.1c7.1,10.8,11.8,23.1,13.8,35.9c1.9,12.8,1.2,25.9-1.5,38.5c-2.6,12.6-7.2,24.8-12.7,36.4
		c-5.6,11.6-12.2,22.6-19.4,33.2c-1.9,2.6-3.7,5.3-5.6,7.8l-2.8,3.8c-1,1.3-2,2.5-3,3.8c-3.9,5.1-8.2,9.9-12.5,14.6
		c-8.8,9.4-18.3,18.1-28.3,26c-10.1,7.9-20.7,15.2-31.7,21.7c-11,6.5-22.3,12.5-34,17.8c-11.6,5.3-23.5,10.2-35.5,14.5
		c-12,4.3-24.2,8.1-36.5,11.4c-12.3,3.4-24.7,6.3-37.2,8.8c-12.5,2.5-25,4.7-37.7,6.5c-12.6,1.8-25.3,3.2-38,4.3
		c-12.7,1.1-25.4,1.8-38.2,2l2.7-3c0.7,7.3,2.3,14.6,4,21.9c1.8,7.3,3.8,14.5,6,21.7c2.2,7.2,4.5,14.4,6.9,21.5
		c1.2,3.6,2.5,7.1,3.7,10.7c1.3,3.5,2.6,7.1,3.9,10.6l-2.7-1.5c15.2-2.8,30.4-6.2,45.5-10c15.1-3.8,30.1-7.9,44.9-12.4
		c29.7-9,59-19.5,87.5-32c14.2-6.3,28.2-13,41.8-20.4c13.6-7.4,26.9-15.4,39.7-24.2c12.8-8.8,24.8-18.7,36.5-28.9
		c11.7-10.2,22.9-21,33.5-32.3c10.5-11.4,20.4-23.4,29.2-36.1c8.8-12.7,16.4-26.3,22.4-40.6c6-14.3,10.2-29.3,12.2-44.6
		c2.1-15.3,1.9-31-0.2-46.3c-0.5-3.8-1.1-7.7-1.9-11.5c-0.7-3.8-1.6-7.6-2.6-11.3c-0.9-3.8-2-7.5-3.2-11.2c-1.2-3.7-2.5-7.3-4-10.9
		c-6-14.3-15-27.3-26.8-37.3c-11.8-10.1-26-17.1-41-21.1c-7.5-2-15.2-3.3-22.9-4C1547.7,52.4,1540,52.2,1532.4,53z"/>
</g>
<path class="st1" d="M1489,61.7"/>
<polygon class="st1" points="1608.1,90.4 1592.8,184.1 1684.4,181.3 1597.5,204.8 1658.2,315.4 1578.3,212.9 1398,320 1563,192.6 
	1493.1,131.8 1575.3,181.6 "/>
<g>
	<path class="st1" d="M1658,253c-3.9-2.4-7.7-4.8-11.2-6.9l-17.1-10.5l32.6,2.9"/>
</g>
</svg>
