<?xml version="1.0" encoding="utf-8"?>
<!-- Generator: Adobe Illustrator 16.0.0, SVG Export Plug-In . SVG Version: 6.00 Build 0)  -->
<!DOCTYPE svg PUBLIC "-//W3C//DTD SVG 1.1//EN" "http://www.w3.org/Graphics/SVG/1.1/DTD/svg11.dtd">
<svg version="1.1" id="Calque_1" xmlns="http://www.w3.org/2000/svg" xmlns:xlink="http://www.w3.org/1999/xlink" x="0px" y="0px"
	 width="559px" height="591.141px" viewBox="0 0 559 591.141" enable-background="new 0 0 559 591.141" xml:space="preserve">
<g>
	
		<linearGradient id="SVGID_1_" gradientUnits="userSpaceOnUse" x1="44.0535" y1="435.7234" x2="44.0535" y2="435.7234" gradientTransform="matrix(1 0 0 -1 -0.1655 590.9995)">
		<stop  offset="0.2746" style="stop-color:#FFFFFF;stop-opacity:0"/>
		<stop  offset="0.3286" style="stop-color:#FCFCFC;stop-opacity:0.1494"/>
		<stop  offset="0.3903" style="stop-color:#F2F2F2;stop-opacity:0.3203"/>
		<stop  offset="0.4558" style="stop-color:#E1E1E1;stop-opacity:0.5018"/>
		<stop  offset="0.5239" style="stop-color:#C9C9C8;stop-opacity:0.6906"/>
		<stop  offset="0.5935" style="stop-color:#A8A8A8;stop-opacity:0.8832"/>
		<stop  offset="0.6356" style="stop-color:#909090"/>
	</linearGradient>
	<path fill="url(#SVGID_1_)" d="M43.888,155.276"/>
	<path fill="#00BD70" d="M7.148,530.647c25.538,2.349,159.352,53.176,159.352,53.176c16.802-10.44,130.4-71.005,208-83.331
		c77.619-12.353,174.106-33.04,174.106-33.04c-8.16-73.396,0.76-391.833,0.76-391.833c-23.092,14.612-83.472,11.441-129.611,21.782
		c-100.345,18.117-98.584,10.271-265.94,77.745L6.683,133.711L7.148,530.647z"/>
	<path fill="#009A65" d="M74.127,164.943c0,0,2.413,23.309,6.043,58.285c0.88,8.745,1.614,18.258,2.519,28.298
		c0.422,5.031,0.859,10.188,1.303,15.465c0.217,2.638,0.44,5.305,0.667,7.999c0.155,2.694,0.323,5.425,0.484,8.176
		c0.619,10.984,1.401,22.339,1.929,33.894c0.331,11.564,0.804,23.303,1.014,35.062c0.237,23.488,0.663,46.959,0.314,68.926
		c-0.193,10.977-0.435,21.586-0.871,31.659c-0.205,5.023-0.395,9.907-0.583,14.649c-0.23,4.742-0.44,9.3-0.654,13.689
		c-0.373,8.777-0.853,16.832-1.273,23.978c-0.444,7.121-0.872,13.339-1.288,18.461c-0.787,10.246-1.428,16.111-1.428,16.111
		c-0.027,0.28-0.274,0.494-0.563,0.452c-0.237-0.019-0.423-0.212-0.457-0.467c0,0-0.548-5.854-1.182-16.109
		c-0.34-5.138-0.669-11.356-1.014-18.507c-0.316-7.146-0.668-15.211-0.908-24.007c-0.323-8.81-0.38-18.319-0.464-28.408
		c-0.119-10.076-0.048-20.7,0.121-31.69c0.237-10.973,0.652-22.315,1.132-33.842c0.44-11.522,0.668-23.217,1.007-34.897
		c0.161-11.69,0.078-23.368,0.127-34.881c-0.155-11.503-0.572-22.823-0.831-33.785c-0.168-10.968-0.999-21.552-1.363-31.604
		c-0.479-10.048-0.822-19.561-1.339-28.331c-2.064-35.104-3.454-58.502-3.454-58.502c-0.013-0.272,0.205-0.515,0.479-0.535
		C73.867,164.467,74.099,164.669,74.127,164.943z"/>
	<path fill="#009A65" d="M148.311,197.344c0,0-0.104,23.771,0.245,59.436c0.245,17.821,0.535,38.621,0.838,60.896
		c0.225,11.145,0.471,22.653,0.71,34.35c0.338,11.693,0.696,23.57,1.042,35.445c0.5,11.876,0.804,23.753,1.483,35.402
		c0.654,11.682,1.043,23.179,1.754,34.278c0.513,11.115,1.006,21.838,1.478,32.025c0.474,10.188,0.916,19.812,1.515,28.678
		c0.252,4.446,0.5,8.693,0.73,12.747c0.203,4.054,0.661,7.852,0.899,11.47c0.272,3.604,0.542,6.966,0.787,10.089
		c0.104,1.576,0.212,3.069,0.303,4.503c0.175,1.421,0.331,2.786,0.479,4.056c1.239,10.299,1.811,16.25,1.811,16.25l0.009,0.013
		c0.02,0.227-0.135,0.396-0.347,0.426c-0.19,0.015-0.358-0.114-0.402-0.28c0,0-1.434-5.771-3.708-15.984
		c-1.328-5.095-2.095-11.369-3.35-18.547c-1.251-7.175-2.285-15.312-3.271-24.2c-0.499-4.448-1.09-9.064-1.562-13.861
		c-0.395-4.799-0.814-9.778-1.236-14.873c-0.95-10.217-1.521-20.993-2.055-32.139c-0.5-11.146-0.762-22.683-0.95-34.406
		c-0.262-11.723-0.296-23.627-0.452-35.516c-0.064-11.89-0.124-23.796-0.19-35.502c0.035-11.707,0.079-23.232,0.113-34.392
		c0.126-11.145,0.143-21.93,0.354-32.146c0.202-10.215,0.388-19.877,0.562-28.798c0.787-35.663,1.653-59.432,1.653-59.432
		c0.006-0.21,0.185-0.373,0.393-0.366C148.153,196.971,148.311,197.139,148.311,197.344z"/>
	<g>
		<path fill="#FFFFFF" d="M41.047,448.795l-13.488-13.905c0,0,17.392-29.969,50.227-27.918
			c29.396,1.844,44.587,29.156,44.587,29.156l-14.079,13.06c0,0-8.816-20.264-31.624-21.896
			C53.843,425.659,41.047,448.795,41.047,448.795z"/>
		<g>
			<path fill="#9DCBEF" d="M112.676,471.898c-1.317,23.682-19.566,41.791-40.745,40.469c-21.192-1.32-37.303-21.585-35.996-45.28
				c1.323-23.667,19.573-41.792,40.758-40.456C97.88,427.952,113.998,448.231,112.676,471.898z"/>
			<path fill="#FFFFFF" d="M71.854,513.689c-21.811-1.362-38.458-22.304-37.099-46.659c1.355-24.372,20.196-43.087,42.009-41.725
				c21.818,1.366,38.458,22.307,37.099,46.677C112.508,496.343,93.665,515.069,71.854,513.689z M76.616,427.952
				c-20.501-1.279-38.217,16.311-39.49,39.22c-1.273,22.904,14.375,42.593,34.877,43.874c20.496,1.28,38.217-16.312,39.49-39.232
				C112.767,448.919,97.119,429.235,76.616,427.952z"/>
		</g>
		<g>
			<path fill="#00BD70" d="M72.198,515.463c2.961-0.338,6.849-1.015,9.821-3.886c2.23-2.138,2.652-3.798,2.444-6.271
				c0,0-4.454-39.541-5.413-50.938c-0.811-9.598-0.641-13.045-5.979-15.633c-3.356-1.617-4.354-5.586-4.476-7.472
				c-0.091-1.322-0.646-6.923-0.93-10.217c-0.287-3.321-0.466-3.716-4.905-3.208l0.599-0.059c-4.439,0.507-4.545,0.931-4.271,4.223
				c0.289,3.308,0.816,8.906,0.93,10.229c0.161,1.846-0.259,5.897-3.2,8.361c-3.938,3.307-4.17,5.305-3.18,16.702
				c0.972,11.369,5.405,50.925,5.405,50.925c0.217,2.491,0.913,4.013,3.467,5.588c3.405,2.137,7.331,1.91,10.286,1.574"/>
			<path fill="#FFFFFF" d="M72.198,515.351c2.146-0.255,4.291-0.676,6.292-1.578c1.971-0.913,3.819-2.363,5.038-4.306
				c0.583-0.972,0.829-2.141,0.774-3.318c-0.007-0.591-0.084-1.185-0.161-1.787l-0.219-1.788l-0.824-7.206l-1.666-14.38
				l-1.619-14.382l-0.738-7.216c-0.247-2.407-0.515-4.799-0.702-7.219c-0.219-2.396-0.373-4.813-0.866-7.094
				c-0.252-1.127-0.632-2.168-1.229-3.04c-0.584-0.898-1.414-1.574-2.314-2.109c-0.227-0.143-0.45-0.269-0.689-0.396l-0.356-0.168
				l-0.389-0.212c-0.237-0.124-0.495-0.296-0.76-0.464c-0.27-0.183-0.479-0.395-0.718-0.589c-0.9-0.846-1.626-1.901-2.126-3.056
				c-0.506-1.165-0.83-2.392-0.95-3.712l-0.331-3.592l-0.698-7.206c-0.062-0.562-0.133-1.148-0.289-1.518
				c-0.079-0.197-0.153-0.281-0.259-0.366c-0.121-0.068-0.282-0.141-0.508-0.169c-0.886-0.127-2.004,0.028-3.053,0.144l-0.143-1.576
				l0.592-0.088l0.143,1.604c-1.056,0.143-2.168,0.252-3.021,0.59c-0.193,0.084-0.351,0.195-0.442,0.279
				c-0.079,0.099-0.126,0.17-0.168,0.365c-0.069,0.38-0.035,0.972,0.007,1.549l0.696,7.19l0.347,3.615
				c0.104,1.322-0.037,2.661-0.354,3.929c-0.311,1.278-0.851,2.488-1.582,3.559c-0.387,0.535-0.785,1.028-1.266,1.463
				c-0.472,0.438-0.856,0.747-1.246,1.128c-0.772,0.758-1.386,1.549-1.753,2.479c-0.366,0.94-0.506,2.055-0.556,3.21
				c-0.059,1.125-0.015,2.305,0.049,3.484c0.062,1.187,0.134,2.394,0.227,3.588c0.177,2.396,0.437,4.773,0.662,7.192l0.685,7.204
				l2.835,28.793l0.696,7.204l0.354,3.575c0.141,1.14,0.548,2.148,1.251,2.954c0.338,0.407,0.75,0.772,1.182,1.098
				c0.205,0.168,0.451,0.323,0.654,0.479c0.239,0.126,0.479,0.281,0.71,0.424c0.915,0.508,1.949,0.875,2.985,1.112
				c2.09,0.479,4.264,0.435,6.41,0.269l0.021,0.195c-2.145,0.311-4.349,0.493-6.521,0.084c-1.092-0.195-2.151-0.508-3.182-1.024
				c-0.261-0.128-0.493-0.239-0.747-0.38c-0.252-0.17-0.489-0.312-0.723-0.479c-0.479-0.34-0.936-0.703-1.359-1.14
				c-0.849-0.858-1.385-2.154-1.574-3.405l-0.466-3.617l-0.894-7.175l-0.878-7.178L55.628,484l-1.653-14.396l-0.74-7.189
				c-0.231-2.394-0.506-4.812-0.703-7.232c-0.183-2.421-0.387-4.841-0.267-7.373c0.071-1.269,0.232-2.604,0.738-3.883
				c0.508-1.294,1.367-2.364,2.236-3.18c0.437-0.425,0.938-0.817,1.293-1.153c0.382-0.323,0.703-0.734,1.008-1.128
				c0.598-0.858,1.051-1.828,1.33-2.898c0.272-1.041,0.4-2.167,0.333-3.248l-0.312-3.592l-0.59-7.229
				c-0.04-0.635-0.106-1.251,0.049-2.058c0.077-0.408,0.287-0.887,0.605-1.208c0.314-0.311,0.646-0.479,0.957-0.619
				c0.617-0.237,1.182-0.338,1.735-0.424c0.557-0.084,1.1-0.154,1.641-0.225l0.141,1.604l-0.592,0.059l-0.141-1.576
				c0.541-0.059,1.1-0.115,1.661-0.143c0.557-0.029,1.125-0.057,1.757,0.055c0.325,0.057,0.678,0.143,1.021,0.38
				c0.353,0.256,0.636,0.663,0.768,1.029c0.289,0.743,0.316,1.379,0.389,1.997l0.626,7.23l0.309,3.617
				c0.071,1.083,0.36,2.21,0.782,3.225c0.437,1.026,1.05,1.941,1.801,2.646c0.197,0.168,0.387,0.361,0.59,0.479l0.296,0.227
				c0.101,0.086,0.232,0.139,0.347,0.193l0.353,0.197l0.375,0.196c0.252,0.141,0.506,0.28,0.758,0.424
				c0.979,0.603,1.942,1.406,2.642,2.477c0.704,1.055,1.12,2.293,1.394,3.519c0.491,2.435,0.619,4.868,0.816,7.273
				c0.153,2.406,0.422,4.798,0.641,7.19l0.667,7.232l1.451,14.396l1.491,14.424l0.76,7.19l0.195,1.786
				c0.062,0.618,0.143,1.208,0.146,1.844c0.037,1.224-0.245,2.546-0.896,3.558c-1.31,2.028-3.193,3.451-5.234,4.362
				c-2.042,0.9-4.223,1.271-6.375,1.492L72.198,515.351z"/>
		</g>
		<g>
			<path fill="#FFFFFF" stroke="#FFFFFF" stroke-width="0.5" stroke-miterlimit="10" d="M62.369,503.728
				c0.179,4.207,3.351,7.43,7.106,7.232c3.759-0.229,6.664-3.8,6.496-7.992c-0.175-4.194-3.35-7.402-7.105-7.206
				C65.106,495.987,62.207,499.561,62.369,503.728z"/>
			<path fill="#2AA137" stroke="#FFFFFF" stroke-width="0.5" stroke-miterlimit="10" d="M66.774,496.213"/>
			<path fill="#00BD70" d="M64.588,508.932c1.229,1.323,2.956,2.127,4.888,2.028c3.759-0.229,6.664-3.8,6.496-7.992
				c-0.175-4.194-3.35-7.402-7.105-7.206c-0.732,0.057-1.423,0.225-2.075,0.508c0,0,2.145-1,4.649,0.506
				c2.581,1.578,4.086,4.276,2.229,8.188c-1.483,3.475-4.729,3.475-4.729,3.475s-0.015,0.818,0,1.085
				c0.017,0.281-0.21,0.337-0.646,0.168c-0.437-0.141-2.062-1.154-3.352-2.869c-0.314-0.435-0.428-0.506-0.006-1.224
				c0.316-0.605,1.533-2.366,3.025-2.899c0.778-0.351,0.577,0.153,0.61,0.338c0.021,0.187,0.059,0.944,0.059,0.944
				s2.292-0.367,3.657-2.896c0.38-0.734,0.395-0.875-0.07-1.552c-0.271-0.422-1.364-1.885-3.394-2.783
				c-0.548-0.256-0.489,0.279-0.482,0.422c0.007,0.227,0.026,0.898,0.026,0.898s-1.983,0.059-3.68,2.067
				c-1.744,2.098-1.837,3.913-1.766,5.08C63.038,506.653,63.905,508.201,64.588,508.932z"/>
		</g>
		<g>
			<path fill="#00BD70" d="M39.589,437.928l3.328,3.588l-1.937,2.252l-9.336-10.03l3.231-3.743c1.717-1.998,3.467-2.042,5.248-0.128
				l0.667,0.72c1.772,1.914,1.811,3.856,0.079,5.854L39.589,437.928z M35.587,433.637l1.997,2.149l1.288-1.488
				c0.428-0.51,0.422-0.999-0.015-1.463l-0.668-0.732c-0.451-0.465-0.893-0.451-1.313,0.04L35.587,433.637z"/>
			<path fill="#00BD70" d="M42.318,422.732l7.802,11.539l-2.229,1.887l-7.794-11.556L42.318,422.732z"/>
			<path fill="#00BD70" d="M46.744,424.085c-1.169-2.45-0.654-4.31,1.52-5.63l0.824-0.491c2.174-1.323,3.86-0.775,5.021,1.656
				l0.444,0.915l-2.462,1.479l-0.442-0.915c-0.289-0.604-0.704-0.73-1.251-0.422l-0.814,0.508c-0.542,0.323-0.667,0.801-0.389,1.407
				l2.63,5.458c0.298,0.621,0.71,0.745,1.262,0.424l0.814-0.506c0.548-0.338,0.674-0.789,0.378-1.409l-0.435-0.898l2.454-1.49
				l0.442,0.93c1.154,2.42,0.654,4.291-1.533,5.601l-0.811,0.507c-2.196,1.322-3.864,0.761-5.031-1.659L46.744,424.085z"/>
			<path fill="#00BD70" d="M58.437,411.927c0.104-0.059,0.183,0.055,0.183,0.168l-0.176,3.871c0,0.099-0.049,0.151-0.12,0.183
				l-1.699,0.676c-0.071,0.027-0.163,0-0.187-0.088l-0.395-3.698c-0.006-0.099,0.007-0.185,0.099-0.212L58.437,411.927z"/>
			<path fill="#00BD70" d="M71.292,424.969l-3.23-14.367l2.786-0.115l2.153,9.568l1.562-9.736l2.771-0.141l-2.329,14.634
				L71.292,424.969z"/>
			<path fill="#00BD70" d="M89.338,412.489l-0.599,3.04l-5.438-1.322l-0.493,2.531l4.518,1.102l-0.603,3.04l-4.523-1.102
				l-0.508,2.533l5.44,1.323l-0.612,3.039l-8.146-1.973l2.813-14.185L89.338,412.489z"/>
			<path fill="#00BD70" d="M92.138,423.605l-1.989,4.7l-2.521-1.323l5.561-13.143l4.2,2.168c2.229,1.182,2.821,3.011,1.757,5.515
				l-0.395,0.957c-0.4,0.958-0.898,1.661-1.491,2.083c0.084,0.76-0.084,1.633-0.486,2.616l-1.591,3.742l-2.518-1.308l1.589-3.76
				c0.261-0.634,0.121-1.098-0.442-1.377L92.138,423.605z M95.008,421.664c0.55,0.279,0.964,0.111,1.229-0.508l0.389-0.928
				c0.271-0.634,0.126-1.098-0.431-1.395l-1.686-0.871l-1.191,2.828L95.008,421.664z"/>
			<path fill="#00BD70" d="M101.27,429.235l-2.8,4.15l-2.221-1.871l7.846-11.597l3.701,3.098c1.977,1.66,2.218,3.587,0.716,5.796
				l-0.568,0.831c-0.578,0.856-1.188,1.421-1.838,1.702c-0.055,0.787-0.378,1.592-0.957,2.45l-2.243,3.318l-2.216-1.857l2.237-3.319
				c0.371-0.564,0.314-1.041-0.177-1.461L101.27,429.235z M104.435,427.996c0.479,0.407,0.916,0.34,1.295-0.212l0.555-0.828
				c0.382-0.55,0.323-1.043-0.177-1.463l-1.478-1.236l-1.681,2.504L104.435,427.996z"/>
			<path fill="#00BD70" d="M119.126,435.398l-2.109,2.039l-3.635-4.685l-1.754,1.716l3.025,3.884l-2.104,2.055l-3.032-3.896
				l-1.757,1.703l3.648,4.673l-2.115,2.053l-5.46-7.007l9.835-9.566L119.126,435.398z"/>
		</g>
		<g>
			<path fill="#FFFFFF" d="M44.302,484.279c0.086,0.143,0.212,0.338,0.303,0.535c0.143,0.323,0.168,0.55,0.133,0.744
				c-0.025,0.186-0.119,0.325-0.289,0.411c-0.201,0.124-0.464,0.084-0.646-0.115h-0.006c0.042,0.256,0,0.604-0.316,0.787
				c-0.19,0.115-0.375,0.101-0.535,0.044c-0.212-0.099-0.395-0.325-0.568-0.718c-0.094-0.227-0.155-0.38-0.192-0.479L44.302,484.279
				z M42.53,485.659c0.021,0.086,0.057,0.17,0.104,0.28c0.146,0.311,0.373,0.565,0.698,0.367c0.296-0.155,0.289-0.507,0.141-0.846
				l-0.121-0.255L42.53,485.659z M43.564,485.097l0.128,0.269c0.148,0.321,0.378,0.437,0.598,0.321
				c0.245-0.139,0.245-0.407,0.106-0.73c-0.057-0.141-0.106-0.225-0.134-0.252L43.564,485.097z"/>
			<path fill="#FFFFFF" d="M45.153,488.783c-0.718,0.451-1.343,0.227-1.651-0.393c-0.312-0.606-0.093-1.322,0.543-1.717
				c0.663-0.426,1.33-0.229,1.638,0.395C46.005,487.715,45.772,488.391,45.153,488.783z M44.211,486.997
				c-0.451,0.298-0.711,0.804-0.479,1.28c0.247,0.48,0.774,0.495,1.251,0.197c0.415-0.271,0.718-0.789,0.473-1.295
				C45.202,486.699,44.675,486.699,44.211,486.997z"/>
			<path fill="#FFFFFF" d="M46.351,488.5c0.111,0.115,0.245,0.323,0.356,0.51c0.185,0.34,0.247,0.562,0.205,0.789
				c-0.017,0.168-0.13,0.338-0.274,0.447c-0.274,0.196-0.55,0.143-0.766-0.055h-0.009c0.041,0.225-0.042,0.422-0.225,0.646
				c-0.249,0.254-0.404,0.448-0.451,0.549l-0.175-0.295c0.035-0.085,0.183-0.254,0.395-0.508c0.245-0.254,0.279-0.449,0.133-0.73
				l-0.148-0.271l-0.878,0.636l-0.175-0.311L46.351,488.5z M45.59,489.461l0.175,0.277c0.175,0.312,0.437,0.408,0.669,0.239
				c0.259-0.183,0.267-0.493,0.091-0.802c-0.084-0.143-0.153-0.227-0.188-0.254L45.59,489.461z"/>
			<path fill="#FFFFFF" d="M47.351,490.246c0.131,0.155,0.279,0.34,0.422,0.563c0.259,0.409,0.358,0.76,0.316,1.07
				c-0.04,0.338-0.195,0.617-0.515,0.873c-0.314,0.252-0.652,0.361-0.964,0.309c-0.302-0.071-0.62-0.34-0.886-0.76
				c-0.133-0.197-0.225-0.365-0.303-0.521L47.351,490.246z M45.794,491.909c0.035,0.084,0.104,0.193,0.168,0.281
				c0.38,0.615,0.886,0.701,1.429,0.279c0.457-0.367,0.562-0.9,0.192-1.492c-0.095-0.141-0.17-0.254-0.241-0.296L45.794,491.909z"/>
			<path fill="#FFFFFF" d="M48.489,494.302l-0.575-0.818l-0.685,0.592l0.634,0.93l-0.193,0.184l-0.824-1.195l1.892-1.664
				l0.797,1.154l-0.205,0.168l-0.604-0.871l-0.599,0.535l0.57,0.814L48.489,494.302z"/>
			<path fill="#FFFFFF" d="M48.79,495.367l-0.755,0.339l-0.193-0.279l2.351-1.041l0.245,0.309l-1.302,2.45l-0.21-0.296l0.407-0.759
				L48.79,495.367z M49.488,495.863l0.367-0.721c0.084-0.139,0.168-0.279,0.259-0.407l-0.007-0.015
				c-0.141,0.084-0.274,0.141-0.422,0.225l-0.676,0.297L49.488,495.863z"/>
			<path fill="#FFFFFF" d="M51.317,495.819l-1.025,1.1c-0.402,0.395-0.409,0.76-0.185,1.024c0.239,0.296,0.562,0.296,0.95-0.099
				l1.042-1.1l0.219,0.254l-1.025,1.068c-0.535,0.564-1.021,0.479-1.379,0.057c-0.34-0.395-0.38-0.898,0.17-1.478l1.041-1.083
				L51.317,495.819z"/>
			<path fill="#FFFFFF" d="M51.921,500.349l0.153-0.662c0.059-0.269,0.093-0.424,0.135-0.59l-0.009-0.017
				c-0.141,0.059-0.279,0.113-0.521,0.197l-0.576,0.185l-0.254-0.281l1.379-0.396l0.331-1.505l0.261,0.281l-0.168,0.703
				c-0.057,0.195-0.093,0.338-0.133,0.493l0.005,0.013c0.155-0.055,0.274-0.111,0.444-0.168l0.626-0.197l0.259,0.281l-1.335,0.365
				l-0.338,1.577L51.921,500.349z"/>
		</g>
		<polygon fill="#FFFFFF" points="77.603,432.385 74.963,445.304 86.406,445.625 75.386,448.231 82.097,464.115 72.945,449.215 
			49.623,462.724 71.186,446.259 62.942,437.225 72.797,444.825 		"/>
		<g>
			<path fill="#00BD70" d="M101.425,542.045c0,0,0.521-4.658,0.71-6.771c0.212-2.306,0.042-9.65-0.04-12.212
				c-0.057-1.83-0.592-6.18-0.818-7.768c-0.21-1.604-0.44-2.871-0.608-4.277c-0.095-0.704-0.135-1.38-0.179-1.997
				c1.416,4.841,4.512,8.515,4.512,8.515c-1.28-4.293-1.377-10.315-1.377-10.315l0,0c0.153,0.195,0.311,0.38,0.471,0.579
				c0.378,0.464,0.758,0.94,1.153,1.394c1.184,1.352,2.252,2.337,4.006,3.659l3.613,2.588c0,0-4.148-5.038-5.636-9.428
				c-2.948-8.726,5.89-19.646,4.123-27.808c-0.515-2.419-3.308-4.755-1.619-6.811c1.414-1.717,11.897-4.786,11.897-4.786
				s-2.652-0.479-4.426-0.718c-1.443-0.184-3.146-0.661-3.146-0.661s2.616-0.449,3.617-0.619c2.981-0.477,8.041-3.038,8.041-3.038
				s-3.461,0.731-7.316,0.618c-0.767-0.029-2.024-0.17-2.716-0.338c0,0,3.976-0.28,5.476-0.732c5.859-1.351,8.321-5.545,8.321-5.545
				s-1.897,1.55-4.145,2.112c-2.453,0.562-5.17,0.632-6.543,0.464c-6.965-0.747-9.724-5.349-15.406-5.645
				c-2.302,0.027-4.877,1.887-6.649,3.771l-15.167-2.462c0,0,15.211,11.919,16.021,12.623c0.81,0.703,0.585,1.604-0.999,2.94
				c-0.674,0.573-6.087,4.824-8.12,10.563c-0.364,0.945-1.71,0.96-3.124,0.381c-1.907-0.646-2.596-1.111-3.292-1.395l0.071,1.747
				c0,0,2.919,1.465,3.723,1.971c0.837,0.521,1.597,1.463,1.772,2.449c-0.155,0.195-0.4,0.646-0.612,0.929
				c-0.125,0.153-0.223,0.338-0.287,0.521l-0.133-0.069l-0.844-0.479c-0.28-0.141-0.583-0.338-0.881-0.507
				c0,0-3.771-1.832-4.089-2.729c-0.321-0.929-1.836-4.362-4.375-6.729c0,0,1.443,5.361,1.593,5.63c0,0-4.096-0.646-7.239-0.634
				l-0.627,0.042c0,0,1.752,1.07,3.551,1.688c1.739,0.59,2.916,0.94,2.916,0.94l-4.545,4.32c0,0,3.743-0.562,7.385-2.307
				c0.584-0.507,1.007-0.168,1.379-0.029c0.304,0.115,5.465,3.054,5.465,3.054l0.731,0.396c0.163,0.449,0.429,0.899,0.767,1.196
				c0.365,0.354,1.902,1.269,2.259,1.55c0.354,0.254,0.635,0.575,0.907,0.926c0.514,0.747,0.879,1.619,1.125,2.534
				c0.473,1.827,0.488,3.799,0.296,5.712c-0.183,1.914-0.597,3.829-1.104,5.685c-0.521,1.887-1.104,3.688-1.754,5.519
				c-0.646,1.813-1.357,3.615-1.962,5.475c-0.542,1.646-1.041,3.504-1.438,5.697c-0.347,1.942-0.585,3.884-0.773,5.854l-0.104,0.984
				l0.618-0.73c0.338-0.395,0.676-0.816,0.972-1.237c0.312-0.451,0.593-0.9,0.853-1.366c0.535-0.942,0.981-1.899,1.406-2.884
				c0.322-0.872,0.467-1.139,1.269-3.573c0,0-0.203,1.688-0.358,3.869c-0.076,1.098-0.185,2.193-0.185,3.293
				c-0.015,1.676,0.185,5.273,0.185,5.273s1.153-4.094,1.485-5.189l1.554-4.939c0.176-0.534,0.738-2.193,0.938-2.729
				c-0.094,0.844-0.203,4.148-0.197,5.431c-0.013,1.293,0.071,5.164,0.1,5.811l0.07,1.93l0.057,1.534c0,0,1.519-4.098,1.963-5.462
				c0.795-2.438,1.651-5.25,1.651-5.25c-0.007,1.887,0.648,6.442,0.796,7.219c0.272,1.535,1.399,6.037,1.624,6.798
				C100.236,538.791,101.425,542.045,101.425,542.045z"/>
			<path fill="#FFFFFF" d="M101.728,544.648l-0.851-2.353c-0.057-0.124-1.202-3.277-1.414-4.035
				c-0.227-0.734-1.357-5.292-1.646-6.868c-0.091-0.493-0.365-2.352-0.568-4.167c-0.232,0.734-0.493,1.534-0.74,2.296
				c-0.442,1.363-1.898,5.319-1.962,5.474l-1.034,2.802l-0.247-6.474c-0.007-0.562-0.108-4.488-0.093-5.84
				c0-0.31,0.009-0.761,0.016-1.225l-1.146,3.674c-0.331,1.081-1.479,5.12-1.493,5.179l-0.964,3.437l-0.185-3.575
				c-0.013-0.155-0.193-3.646-0.193-5.334c0.005-0.888,0.065-1.758,0.131-2.604l0.013-0.098c-0.393,0.857-0.774,1.632-1.174,2.35
				c-0.259,0.451-0.556,0.932-0.879,1.406c-0.289,0.396-0.619,0.846-1.026,1.294l-1.812,2.153l0.277-2.927
				c0.247-2.405,0.486-4.207,0.788-5.896c0.36-2.013,0.838-3.913,1.47-5.798c0.382-1.211,0.818-2.378,1.239-3.521
				c0.239-0.661,0.479-1.322,0.727-1.983c0.688-1.927,1.245-3.714,1.737-5.473c0.562-2.112,0.913-3.871,1.083-5.562
				c0.21-2.112,0.113-3.896-0.289-5.473c-0.252-0.901-0.584-1.676-1.014-2.28c-0.254-0.34-0.495-0.592-0.782-0.818
				c-0.111-0.086-0.398-0.269-0.731-0.479c-0.759-0.479-1.315-0.846-1.562-1.068c-0.351-0.325-0.647-0.745-0.852-1.235l-0.526-0.281
				c-1.964-1.127-5.157-2.913-5.433-3.039c-0.059-0.029-0.126-0.057-0.188-0.086c-0.12-0.059-0.238-0.111-0.332-0.111
				c-0.041-0.017-0.125-0.017-0.294,0.124l-0.128,0.071c-3.679,1.786-7.367,2.363-7.528,2.378l-1.987,0.322l5.221-5.013
				c-0.486-0.152-1.12-0.352-1.843-0.604c-1.852-0.619-3.596-1.702-3.673-1.731l-1.821-1.127l2.707-0.168
				c0.682,0,1.416,0.015,2.223,0.084c1.604,0.084,3.193,0.281,4.165,0.422c-0.238-0.814-0.634-2.209-1.271-4.642l-0.583-2.11
				l1.523,1.407c3.025,2.814,4.538,6.938,4.556,6.979c0.223,0.424,2.131,1.577,3.775,2.364c0.133,0.084,0.247,0.141,0.36,0.227
				c0.175,0.113,0.344,0.195,0.524,0.279l0.51,0.309c0.013-0.038,0.034-0.069,0.057-0.097c0.111-0.143,0.217-0.323,0.323-0.493
				c0.025-0.059,0.062-0.103,0.084-0.143c-0.212-0.646-0.747-1.309-1.414-1.731c-0.76-0.479-3.64-1.938-3.673-1.955l-0.325-0.168
				l-0.148-3.153l0.853,0.364c0.227,0.086,0.442,0.197,0.704,0.311c0.562,0.281,1.27,0.617,2.561,1.068
				c0.516,0.212,0.986,0.338,1.372,0.354c0.27,0.013,0.888,0.013,1.034-0.382c1.282-3.603,4.18-7.417,8.169-10.693l0.135-0.126
				c1.125-0.942,1.223-1.407,1.216-1.535c0-0.101-0.069-0.208-0.231-0.336c-0.625-0.564-10.736-8.499-15.999-12.607l-2.033-1.604
				l17.351,2.813c1.081-1.098,3.934-3.688,6.853-3.743l0.141,0.027c2.852,0.17,4.961,1.354,7.192,2.618
				c2.305,1.293,4.686,2.645,8.132,3.01c0.19,0.015,0.387,0.029,0.612,0.055c1.3,0.087,3.595,0,5.756-0.508
				c2.088-0.506,3.896-1.996,3.911-1.996l2.639-2.182l-1.803,3.067c-0.091,0.17-2.216,3.729-7.148,5.418
				c1.646-0.197,2.771-0.426,2.778-0.426l4.89-1.04l-4.531,2.278c-0.219,0.113-5.171,2.633-8.203,3.099
				c-0.042,0-0.106,0.015-0.143,0.025c1.739,0.227,4.095,0.65,4.123,0.663l2.788,0.493l-2.746,0.818
				c-3.989,1.149-10.665,3.433-11.622,4.585c-0.702,0.872-0.356,1.73,0.619,3.519c0.466,0.844,0.957,1.731,1.162,2.675
				c0.858,4.021-0.632,8.442-2.216,13.128c-1.684,5.025-3.427,10.202-1.937,14.621c1.422,4.223,5.48,9.146,5.517,9.201l3.146,3.814
				l-7.513-5.391c-1.788-1.354-2.901-2.366-4.11-3.758c-0.176-0.21-0.356-0.409-0.526-0.604c0.128,2.081,0.45,5.544,1.271,8.271
				l0.853,2.871l-1.857-2.195c-0.084-0.114-1.577-1.888-2.954-4.602c0.084,0.577,0.168,1.169,0.26,1.786
				c0.231,1.688,0.769,6.01,0.821,7.852c0.079,2.42,0.264,9.906,0.037,12.312c-0.189,2.066-0.71,6.741-0.71,6.798L101.728,544.648z
				 M98.218,520.023l-0.013,4.021c-0.009,1.802,0.617,6.305,0.778,7.062c0.276,1.549,1.388,5.995,1.606,6.727
				c0.078,0.271,0.287,0.872,0.542,1.576c0.139-1.435,0.323-3.149,0.422-4.206c0.197-2.141,0.057-9.104-0.041-12.114
				c-0.063-1.689-0.571-5.841-0.824-7.685c-0.091-0.731-0.188-1.408-0.289-2.026c-0.119-0.759-0.23-1.49-0.331-2.267
				c-0.091-0.729-0.135-1.422-0.175-2.041l-0.398-5.559l1.555,5.292c0.682,2.306,1.765,4.361,2.68,5.84
				c-0.625-3.631-0.703-7.232-0.703-7.433l-0.02-1.802l1.067,1.354c0.147,0.195,0.298,0.395,0.458,0.577
				c0.34,0.422,0.733,0.913,1.147,1.379c1.169,1.336,2.188,2.266,3.905,3.559l0.43,0.311c-1.211-1.815-2.59-4.14-3.329-6.347
				c-1.66-4.884,0.168-10.286,1.937-15.55c1.513-4.476,2.938-8.725,2.168-12.327c-0.161-0.76-0.601-1.547-1.016-2.319
				c-0.839-1.533-1.88-3.391-0.479-5.106c1.05-1.282,6.196-3.081,9.489-4.137c-0.568-0.113-1.138-0.197-1.646-0.254
				c-1.465-0.197-3.144-0.676-3.215-0.676l-2.852-0.817l2.916-0.493c0,0,2.61-0.433,3.597-0.619c1.083-0.183,2.478-0.632,3.781-1.15
				c-0.928,0.067-1.939,0.101-2.976,0.067c-0.106,0-0.212,0-0.331-0.025c-0.725-0.042-1.814-0.17-2.512-0.354l-4.024-1.024
				l4.13-0.28c0.042,0,3.94-0.281,5.354-0.676c2.187-0.521,3.884-1.438,5.142-2.363c-0.23,0.084-0.449,0.139-0.681,0.195
				c-2.287,0.531-4.708,0.617-6.08,0.531c-0.239-0.025-0.471-0.055-0.663-0.055c-3.666-0.395-6.254-1.856-8.54-3.152
				c-2.125-1.195-4.13-2.335-6.719-2.488l-0.115-0.017c-2.11,0.057-4.602,1.887-6.204,3.604l-0.212,0.21l-12.988-2.098
				c4.209,3.293,13.384,10.482,14.019,11.062c0.562,0.477,0.683,1.012,0.676,1.39c-0.015,0.806-0.542,1.618-1.689,2.577
				l-0.142,0.112c-3.812,3.152-6.578,6.768-7.789,10.16c-0.183,0.508-0.71,1.282-2.193,1.211c-0.498-0.059-1.091-0.187-1.682-0.426
				c-1.167-0.395-1.907-0.73-2.45-1.014l0.009,0.281c0.778,0.407,2.784,1.438,3.433,1.83c1.062,0.674,1.878,1.801,2.07,2.898
				l0.057,0.312l-0.185,0.225c-0.064,0.084-0.126,0.193-0.203,0.339c-0.137,0.194-0.281,0.448-0.423,0.616
				c-0.071,0.113-0.145,0.229-0.185,0.341l-0.23,0.675l-1.569-0.871c-0.177-0.084-0.375-0.229-0.584-0.34
				c-0.099-0.057-0.203-0.124-0.303-0.187c-1.441-0.701-3.995-2.067-4.362-3.053c-0.006-0.042-0.858-2.365-2.562-4.631
				c0.424,1.521,0.773,2.771,0.852,2.954l0.683,1.224l-1.293-0.252c-0.027,0-2.462-0.396-4.986-0.548
				c0.311,0.124,0.617,0.267,0.935,0.351c1.729,0.592,2.892,0.957,2.892,0.957l1.076,0.325l-3.681,3.504
				c1.358-0.34,3.192-0.899,4.989-1.771c0.322-0.253,0.669-0.365,1.02-0.354c0.296,0.018,0.535,0.126,0.732,0.225
				c0.04,0.017,0.091,0.043,0.141,0.071c0.316,0.113,4.318,2.378,5.544,3.066l0.922,0.521l0.084,0.239
				c0.133,0.365,0.331,0.703,0.577,0.928c0.212,0.188,0.942,0.648,1.428,0.957c0.349,0.239,0.656,0.451,0.806,0.535
				c0.371,0.296,0.703,0.648,1.033,1.083c0.521,0.718,0.931,1.646,1.227,2.744c0.45,1.746,0.556,3.688,0.324,5.979
				c-0.168,1.76-0.528,3.618-1.134,5.812c-0.483,1.789-1.068,3.604-1.758,5.572c-0.237,0.663-0.482,1.321-0.73,1.983
				c-0.422,1.14-0.842,2.292-1.229,3.462c-0.599,1.845-1.062,3.672-1.405,5.615c-0.264,1.394-0.467,2.896-0.67,4.784
				c0.111-0.17,0.227-0.325,0.34-0.48c0.296-0.434,0.57-0.855,0.81-1.291c0.479-0.845,0.922-1.772,1.364-2.813l0.185-0.48
				c0.225-0.562,0.429-1.109,1.062-3.034l1.855-5.634l-0.71,5.938c0,0.029-0.197,1.688-0.336,3.829l-0.062,0.743
				c-0.064,0.83-0.129,1.677-0.137,2.506c0,0.424,0.015,0.973,0.027,1.562c0.197-0.703,0.387-1.337,0.493-1.688l1.549-4.952
				c0.183-0.535,0.758-2.195,0.95-2.758l1.729-4.897l-0.592,5.235c-0.091,0.787-0.188,4.081-0.188,5.347
				c-0.022,1.236,0.075,5.036,0.099,5.783l0.007,0.422c0.365-1.026,0.74-2.065,0.92-2.615c0.782-2.406,1.646-5.206,1.661-5.232
				L98.218,520.023z"/>
		</g>
		<path fill="#FFFFFF" d="M104.887,460.246c-0.373,2.366-1.794,4.096-3.161,3.827c-1.357-0.252-2.168-2.391-1.793-4.77
			c0.38-2.378,1.793-4.094,3.155-3.844C104.457,455.731,105.262,457.868,104.887,460.246z"/>
		<path fill="#00BD70" d="M102.656,458.811c0.015-1.421-1.809-1.771-2.168,0.185c-0.674,3.628,0.762,3.844,1.261,3.729
			c0.966-0.197,1.083-2.028,1.105-2.646l-1.558-0.676L102.656,458.811z"/>
	</g>
	<g>
		<path fill="#FFFFFF" d="M330.825,374.325l-14.466-9.411c0,0,16.55-36.741,50.377-46.28c30.282-8.557,47.084,13.916,47.084,13.916
			l-13.874,18.306c0,0-9.963-17.533-33.477-11.088C342.954,346.183,330.825,374.325,330.825,374.325z"/>
		<g>
			<path fill="#9DCBEF" d="M405.458,372.469c-0.309,24.624-18.265,49.575-40.091,55.735c-21.823,6.163-39.271-8.794-38.977-33.403
				c0.309-24.611,18.249-49.573,40.09-55.725C388.306,332.901,405.753,347.858,405.458,372.469z"/>
			<path fill="#FFFFFF" d="M365.358,429.585c-22.487,6.348-40.513-9.104-40.188-34.432c0.311-25.344,18.855-51.106,41.329-57.456
				c22.473-6.346,40.482,9.09,40.176,34.434C406.359,397.46,387.814,423.24,365.358,429.585z M366.452,340.444
				c-21.121,5.964-38.542,30.197-38.836,54.007c-0.311,23.835,16.632,38.343,37.767,32.391c21.119-5.98,38.557-30.197,38.84-54.021
				C404.531,348.996,387.588,334.476,366.452,340.444z"/>
		</g>
		<g>
			<path fill="#00BD70" d="M365.791,431.26c3.023-1.396,6.979-3.463,9.922-7.433c2.195-2.983,2.562-4.812,2.223-7.262
				c0,0-6.316-38.779-7.812-50.039c-1.266-9.512-1.224-13.085-6.82-13.843c-3.533-0.451-4.729-4.138-4.941-6.024
				c-0.155-1.32-0.97-6.838-1.421-10.102c-0.424-3.265-0.635-3.604-5.181-1.507l0.618-0.295c-4.529,2.108-4.63,2.589-4.189,5.841
				c0.433,3.275,1.236,8.792,1.406,10.1c0.254,1.817-0.031,6.096-2.929,9.667c-3.91,4.757-4.053,6.897-2.529,18.153
				c1.518,11.259,7.809,50.023,7.809,50.023c0.325,2.445,1.113,3.758,3.814,4.488c3.603,0.955,7.61-0.663,10.639-2.058"/>
			<path fill="#FFFFFF" d="M365.776,431.145c2.198-1.012,4.394-2.193,6.391-3.841c1.998-1.632,3.827-3.756,4.981-6.164
				c0.562-1.209,0.76-2.489,0.663-3.671c-0.042-0.593-0.155-1.155-0.256-1.747l-0.294-1.771l-1.186-7.038l-2.335-14.066
				l-2.308-14.114l-1.068-7.092c-0.338-2.365-0.743-4.717-1.041-7.105c-0.34-2.368-0.592-4.799-1.211-6.924
				c-0.309-1.07-0.729-1.998-1.393-2.701c-0.648-0.675-1.52-1.068-2.46-1.309c-0.254-0.069-0.479-0.099-0.734-0.155l-0.363-0.055
				l-0.424-0.071c-0.254-0.042-0.507-0.113-0.79-0.21c-0.294-0.084-0.519-0.227-0.771-0.338c-0.957-0.535-1.759-1.352-2.309-2.365
				c-0.579-0.981-0.972-2.14-1.14-3.435l-0.507-3.561l-1.043-7.091c-0.084-0.562-0.195-1.14-0.363-1.464
				c-0.088-0.17-0.157-0.225-0.281-0.27c-0.115-0.027-0.296-0.041-0.508,0c-0.93,0.195-2.083,0.747-3.153,1.236l-0.195-1.562
				l0.592-0.279l0.225,1.562c-1.083,0.506-2.223,1.041-3.064,1.675c-0.229,0.154-0.367,0.323-0.451,0.451
				c-0.084,0.126-0.126,0.225-0.168,0.435c-0.059,0.422,0,1.014,0.084,1.576l1.024,7.092l0.521,3.575
				c0.17,1.293,0.084,2.699-0.197,4.104c-0.252,1.408-0.76,2.846-1.463,4.207c-0.363,0.663-0.76,1.337-1.238,1.931
				c-0.465,0.619-0.855,1.066-1.235,1.589c-0.758,1.043-1.354,2.069-1.675,3.168c-0.34,1.096-0.438,2.265-0.438,3.433
				c0,1.184,0.084,2.393,0.197,3.574c0.111,1.182,0.252,2.379,0.395,3.573c0.281,2.364,0.674,4.7,0.984,7.092l1.024,7.107
				l4.207,28.353l1.016,7.12l0.535,3.519c0.194,1.1,0.646,1.998,1.405,2.575c0.363,0.281,0.816,0.508,1.268,0.689
				c0.225,0.1,0.479,0.17,0.688,0.237c0.254,0.071,0.508,0.13,0.744,0.187c0.984,0.195,2.059,0.21,3.123,0.084
				c2.167-0.254,4.394-1.069,6.602-2.012l0.015,0.193c-2.168,1.084-4.433,2.043-6.698,2.406c-1.127,0.187-2.221,0.239-3.307,0.084
				c-0.271-0.027-0.521-0.084-0.774-0.139c-0.28-0.069-0.508-0.126-0.772-0.21c-0.491-0.185-0.999-0.38-1.446-0.69
				c-0.901-0.578-1.521-1.703-1.774-2.912l-0.617-3.519l-1.238-6.992l-1.226-7.01l-1.183-7.034l-2.336-14.101l-1.083-7.063
				c-0.338-2.364-0.718-4.728-1.013-7.121c-0.312-2.418-0.619-4.812-0.619-7.431c0-1.323,0.115-2.729,0.591-4.236
				c0.466-1.505,1.293-2.883,2.153-4.037c0.422-0.59,0.911-1.169,1.278-1.633c0.365-0.464,0.678-0.983,0.984-1.519
				c0.578-1.068,0.983-2.225,1.223-3.404c0.254-1.184,0.325-2.364,0.212-3.437l-0.479-3.546l-0.928-7.162
				c-0.059-0.633-0.17-1.252-0.044-2.127c0.069-0.445,0.27-0.98,0.579-1.434c0.311-0.451,0.646-0.76,0.956-0.986
				c0.618-0.464,1.183-0.758,1.76-1.041c0.562-0.296,1.125-0.562,1.675-0.803l0.225,1.562l-0.619,0.277l-0.195-1.562
				c0.55-0.239,1.113-0.507,1.678-0.731c0.575-0.237,1.167-0.466,1.812-0.577c0.341-0.057,0.704-0.086,1.069,0.04
				c0.38,0.127,0.676,0.438,0.844,0.763c0.312,0.66,0.364,1.293,0.479,1.897l0.958,7.162l0.479,3.588
				c0.143,1.068,0.48,2.143,0.96,3.015c0.49,0.886,1.149,1.572,1.953,2.053c0.213,0.084,0.423,0.227,0.636,0.281l0.309,0.111
				c0.113,0.029,0.254,0.059,0.367,0.084l0.364,0.071l0.393,0.069c0.283,0.057,0.535,0.099,0.789,0.17
				c1.043,0.269,2.066,0.761,2.844,1.575c0.761,0.844,1.239,1.958,1.577,3.096c0.619,2.308,0.844,4.742,1.152,7.123
				c0.279,2.403,0.646,4.753,0.984,7.146l1.014,7.094l2.11,14.185l2.195,14.185l1.096,7.063l0.271,1.772
				c0.084,0.575,0.185,1.182,0.239,1.813c0.084,1.238-0.143,2.659-0.76,3.955c-1.27,2.531-3.152,4.642-5.206,6.271
				c-2.055,1.646-4.276,2.815-6.474,3.814L365.776,431.145z"/>
		</g>
		<g>
			<path fill="#FFFFFF" stroke="#FFFFFF" stroke-width="0.5" stroke-miterlimit="10" d="M355.165,422.802
				c0.367,4.222,3.774,6.375,7.629,4.828c3.842-1.552,6.671-6.223,6.304-10.442c-0.354-4.221-3.771-6.375-7.611-4.841
				C357.646,413.925,354.818,418.594,355.165,422.802z"/>
			<path fill="#2AA137" stroke="#FFFFFF" stroke-width="0.5" stroke-miterlimit="10" d="M359.361,413.558"/>
			<path fill="#00BD70" d="M357.674,427.319c1.32,0.9,3.123,1.1,5.12,0.312c3.842-1.552,6.671-6.223,6.304-10.442
				c-0.354-4.221-3.771-6.375-7.611-4.841c-0.744,0.311-1.447,0.729-2.11,1.254c0,0,2.151-1.76,4.799-1.112
				c2.729,0.676,4.392,2.898,2.658,7.542c-1.378,4.081-4.696,5.235-4.696,5.235s0.013,0.829,0.038,1.125
				c0.027,0.254-0.193,0.38-0.646,0.38c-0.45,0-2.182-0.464-3.573-1.731c-0.338-0.338-0.464-0.363-0.057-1.266
				c0.281-0.703,1.463-2.939,2.969-4.022c0.789-0.636,0.606-0.029,0.634,0.141c0.028,0.155,0.113,0.928,0.113,0.928
				s2.336-1.182,3.629-4.249c0.366-0.886,0.366-1.014-0.139-1.576c-0.281-0.321-1.494-1.404-3.618-1.616
				c-0.577-0.069-0.492,0.464-0.465,0.604c0,0.226,0.057,0.898,0.057,0.898s-2.025,0.758-3.686,3.435
				c-1.703,2.729-1.718,4.629-1.578,5.798C355.985,425.55,356.942,426.814,357.674,427.319z"/>
		</g>
		<g>
			<path fill="#00BD70" d="M328.841,363.774l3.588,2.476l-1.888,2.972l-10.047-6.923l3.154-4.954
				c1.687-2.659,3.473-3.309,5.404-1.996l0.699,0.493c1.914,1.32,2.027,3.293,0.354,5.938L328.841,363.774z M324.548,360.806
				l2.141,1.476l1.267-1.971c0.424-0.674,0.396-1.169-0.084-1.492l-0.717-0.507c-0.495-0.311-0.942-0.155-1.337,0.507
				L324.548,360.806z"/>
			<path fill="#00BD70" d="M330.991,347.281l8.527,9.006l-2.222,2.718l-8.526-9.021L330.991,347.281z"/>
			<path fill="#00BD70" d="M335.596,347.087c-1.312-2.069-0.873-4.152,1.308-6.276l0.815-0.788c2.181-2.124,3.939-2.151,5.235-0.084
				l0.493,0.773l-2.463,2.378l-0.479-0.772c-0.34-0.521-0.762-0.508-1.31,0.013l-0.83,0.816c-0.535,0.521-0.647,1.043-0.309,1.548
				l2.925,4.645c0.323,0.534,0.76,0.52,1.322-0.016l0.814-0.79c0.536-0.548,0.649-1.054,0.312-1.562l-0.479-0.787l2.449-2.377
				l0.493,0.772c1.308,2.066,0.873,4.15-1.309,6.273l-0.815,0.789c-2.196,2.126-3.94,2.141-5.235,0.084L335.596,347.087z"/>
			<path fill="#00BD70" d="M347.063,330.535c0.113-0.065,0.196,0,0.196,0.126v4.015c0,0.084-0.042,0.168-0.113,0.224l-1.732,1.293
				c-0.067,0.06-0.151,0.06-0.183-0.027l-0.592-3.63c0-0.084,0-0.183,0.113-0.237L347.063,330.535z"/>
			<path fill="#00BD70" d="M360.851,339.303l-3.938-13.508l2.844-1.113l2.632,8.993l1.169-10.483l2.842-1.125l-1.746,15.759
				L360.851,339.303z"/>
			<path fill="#00BD70" d="M378.85,320.151l-0.493,3.32l-5.646,0.589l-0.405,2.76l4.698-0.508l-0.479,3.321l-4.7,0.506l-0.407,2.76
				l5.643-0.592l-0.479,3.311l-8.471,0.888l2.281-15.467L378.85,320.151z"/>
			<path fill="#00BD70" d="M382.213,330.508l-1.83,5.489l-2.646-0.449l5.12-15.367l4.404,0.731c2.351,0.396,3.024,2.057,2.055,4.981
				l-0.363,1.098c-0.38,1.152-0.856,2.025-1.45,2.672c0.129,0.763,0,1.69-0.38,2.847l-1.464,4.392l-2.628-0.451l1.446-4.4
				c0.254-0.721,0.067-1.143-0.506-1.239L382.213,330.508z M385.072,327.495c0.588,0.115,0.997-0.21,1.238-0.94l0.38-1.1
				c0.238-0.742,0.054-1.139-0.522-1.252l-1.757-0.296l-1.11,3.311L385.072,327.495z"/>
			<path fill="#00BD70" d="M391.841,333.012l-2.702,5.221l-2.352-1.112l7.558-14.634l3.938,1.856
				c2.082,1.001,2.42,2.886,0.984,5.655l-0.535,1.056c-0.562,1.083-1.182,1.872-1.828,2.391c-0.031,0.805-0.311,1.747-0.875,2.83
				l-2.165,4.192l-2.365-1.127l2.166-4.165c0.354-0.703,0.271-1.184-0.252-1.438L391.841,333.012z M395.034,330.621
				c0.52,0.254,0.97,0.017,1.322-0.677l0.549-1.041c0.363-0.703,0.269-1.167-0.256-1.423l-1.577-0.743l-1.616,3.138L395.034,330.621
				z"/>
			<path fill="#00BD70" d="M410.471,332.957l-2.082,2.828l-3.938-3.477l-1.731,2.367l3.295,2.897l-2.082,2.827l-3.294-2.896
				l-1.731,2.351l3.953,3.489l-2.064,2.843l-5.926-5.235l9.667-13.228L410.471,332.957z"/>
		</g>
		<g>
			<path fill="#FFFFFF" d="M335.747,409.365c0.084,0.101,0.229,0.269,0.338,0.449c0.143,0.27,0.197,0.479,0.174,0.703
				c-0.031,0.195-0.115,0.365-0.281,0.535c-0.229,0.193-0.479,0.223-0.676,0.086h-0.017c0.069,0.252,0.029,0.632-0.296,0.928
				c-0.195,0.168-0.363,0.224-0.531,0.224c-0.227-0.014-0.426-0.194-0.62-0.532c-0.112-0.17-0.171-0.325-0.211-0.426
				L335.747,409.365z M333.977,411.404c0.029,0.069,0.067,0.153,0.126,0.239c0.155,0.281,0.407,0.424,0.73,0.141
				c0.294-0.279,0.271-0.634,0.101-0.928l-0.126-0.212L333.977,411.404z M335.02,410.448l0.137,0.239
				c0.172,0.279,0.426,0.309,0.621,0.111c0.254-0.227,0.254-0.506,0.086-0.787c-0.057-0.111-0.115-0.168-0.141-0.195L335.02,410.448
				z"/>
			<path fill="#FFFFFF" d="M336.821,413.656c-0.718,0.718-1.379,0.69-1.717,0.185c-0.34-0.507-0.155-1.292,0.479-1.94
				c0.661-0.661,1.352-0.705,1.719-0.185C337.635,412.235,337.439,413.037,336.821,413.656z M335.764,412.151
				c-0.451,0.448-0.69,1.084-0.422,1.491c0.267,0.395,0.802,0.227,1.278-0.254c0.424-0.422,0.704-1.042,0.438-1.462
				C336.775,411.504,336.227,411.714,335.764,412.151z"/>
			<path fill="#FFFFFF" d="M338.029,412.94c0.128,0.084,0.271,0.225,0.396,0.408c0.195,0.267,0.279,0.464,0.254,0.718
				c-0.029,0.187-0.113,0.396-0.281,0.562c-0.252,0.279-0.562,0.323-0.773,0.195l-0.015,0.017c0.057,0.21-0.027,0.435-0.197,0.716
				c-0.238,0.365-0.393,0.619-0.449,0.745l-0.193-0.237c0.042-0.099,0.183-0.34,0.393-0.663c0.241-0.351,0.281-0.562,0.115-0.789
				l-0.17-0.225l-0.873,0.94l-0.195-0.237L338.029,412.94z M337.3,414.177l0.192,0.223c0.188,0.271,0.466,0.271,0.703,0.031
				c0.256-0.312,0.229-0.592,0.057-0.858c-0.109-0.114-0.183-0.185-0.225-0.212L337.3,414.177z"/>
			<path fill="#FFFFFF" d="M339.141,414.372c0.141,0.101,0.294,0.256,0.449,0.426c0.279,0.311,0.407,0.646,0.38,0.982
				c-0.027,0.338-0.168,0.688-0.491,1.068c-0.325,0.365-0.663,0.591-0.976,0.634c-0.321,0.042-0.659-0.099-0.955-0.437
				c-0.143-0.172-0.239-0.311-0.34-0.449L339.141,414.372z M337.608,416.597c0.041,0.084,0.112,0.17,0.196,0.254
				c0.409,0.479,0.928,0.393,1.463-0.225c0.464-0.535,0.562-1.125,0.141-1.593c-0.113-0.111-0.197-0.185-0.254-0.225
				L337.608,416.597z"/>
			<path fill="#FFFFFF" d="M340.492,418.103l-0.632-0.633l-0.676,0.845l0.703,0.718l-0.195,0.239l-0.915-0.9l1.872-2.362
				l0.871,0.871l-0.195,0.256l-0.663-0.676l-0.59,0.76l0.636,0.619L340.492,418.103z"/>
			<path fill="#FFFFFF" d="M340.844,419.073l-0.76,0.604l-0.212-0.21l2.377-1.899l0.257,0.239l-1.226,2.953l-0.241-0.227
				l0.396-0.928L340.844,419.073z M341.575,419.328l0.338-0.846c0.084-0.195,0.168-0.353,0.254-0.52l0,0
				c-0.139,0.126-0.269,0.236-0.422,0.353l-0.676,0.563L341.575,419.328z"/>
			<path fill="#FFFFFF" d="M343.46,418.638l-1.014,1.478c-0.396,0.562-0.38,0.93-0.142,1.125c0.27,0.212,0.591,0.115,0.983-0.445
				l1.016-1.479l0.225,0.184l-0.984,1.445c-0.533,0.774-1.04,0.86-1.437,0.552c-0.365-0.279-0.424-0.788,0.113-1.576l1.013-1.464
				L343.46,418.638z"/>
			<path fill="#FFFFFF" d="M344.276,423.04l0.141-0.729c0.042-0.282,0.071-0.452,0.115-0.647h-0.029
				c-0.126,0.111-0.269,0.194-0.506,0.364l-0.59,0.409l-0.269-0.197l1.394-0.899l0.279-1.646l0.281,0.197l-0.143,0.787
				c-0.057,0.196-0.084,0.364-0.126,0.535h0.017c0.141-0.115,0.269-0.197,0.447-0.311l0.619-0.426l0.281,0.197l-1.354,0.845
				l-0.279,1.717L344.276,423.04z"/>
		</g>
		<polygon fill="#FFFFFF" points="367.664,344.607 365.524,358.734 377.287,354.991 366.085,361.578 373.688,375.385 
			363.612,363.436 340.279,385.487 361.698,361.045 352.806,354.767 363.286,359.017 		"/>
		<g>
			<path fill="#00BD70" d="M396.99,448.008c0,0,0.338-4.954,0.451-7.15c0.097-2.418-0.396-9.85-0.604-12.465
				c-0.128-1.816-0.89-6.08-1.185-7.614c-0.281-1.547-0.579-2.771-0.816-4.136c-0.126-0.69-0.212-1.364-0.269-1.985
				c1.661,4.417,5.011,7.095,5.011,7.095c-1.507-3.94-1.872-10.049-1.872-10.049l0,0c0.17,0.141,0.323,0.294,0.506,0.435
				c0.411,0.354,0.831,0.689,1.257,1c1.266,0.974,2.402,1.593,4.274,2.321l3.827,1.364c0,0-4.501-3.658-6.203-7.628
				c-3.42-7.852,5.177-22.12,2.995-29.83c-0.632-2.295-3.603-3.674-1.954-6.359c1.364-2.267,12.018-9.118,12.018-9.118
				s-2.76,0.479-4.586,0.856c-1.493,0.327-3.25,0.438-3.25,0.438s2.659-1.379,3.688-1.928c3.04-1.532,8.118-5.938,8.118-5.938
				s-3.531,1.985-7.499,3.237c-0.787,0.239-2.082,0.533-2.8,0.603c0,0,4.083-1.7,5.601-2.674c5.966-3.46,8.303-8.611,8.303-8.611
				s-1.87,2.248-4.15,3.616c-2.505,1.449-5.29,2.49-6.712,2.786c-7.189,1.717-10.229-1.998-16.084-0.296
				c-2.365,0.873-4.927,3.659-6.669,6.22l-15.689,2.872c0,0,16.153,6.751,17.026,7.204c0.856,0.407,0.663,1.422-0.898,3.334
				c-0.676,0.816-6.039,7.079-7.868,13.637c-0.336,1.11-1.715,1.604-3.208,1.549c-1.983,0-2.714-0.227-3.432-0.281l0.141,1.744
				c0,0,3.066,0.479,3.911,0.704c0.873,0.225,1.717,0.93,1.925,1.855c-0.149,0.254-0.378,0.816-0.588,1.167
				c-0.099,0.212-0.21,0.424-0.269,0.634l-0.141-0.027l-0.9-0.185c-0.281-0.042-0.604-0.126-0.897-0.21c0,0-3.97-0.521-4.335-1.321
				c-0.38-0.817-2.082-3.801-4.799-5.293c0,0,1.718,4.939,1.873,5.151c0,0-4.222,0.787-7.457,1.941l-0.632,0.252
				c0,0,1.84,0.479,3.727,0.466c1.805-0.015,3.013-0.07,3.013-0.07l-4.459,6.024c0,0,3.812-1.886,7.471-4.981
				c0.588-0.732,1.041-0.535,1.436-0.508c0.311,0.016,5.755,1.152,5.755,1.152l0.762,0.141c0.183,0.424,0.479,0.789,0.844,0.972
				c0.395,0.214,2.011,0.604,2.392,0.745c0.38,0.168,0.678,0.38,0.974,0.646c0.562,0.562,0.972,1.338,1.266,2.169
				c0.564,1.715,0.676,3.714,0.564,5.741c-0.113,2.023-0.451,4.104-0.898,6.176c-0.437,2.112-0.959,4.18-1.55,6.263
				c-0.59,2.082-1.238,4.166-1.771,6.276c-0.479,1.855-0.915,3.938-1.224,6.316c-0.269,2.098-0.424,4.178-0.55,6.232l-0.041,1.042
				l0.591-0.958c0.338-0.521,0.663-1.068,0.959-1.631c0.292-0.535,0.562-1.099,0.8-1.66c0.506-1.154,0.942-2.311,1.322-3.464
				c0.296-0.999,0.424-1.312,1.141-4.081c0,0-0.127,1.787-0.185,4.081c-0.041,1.151-0.099,2.295-0.056,3.433
				c0.068,1.689,0.424,5.307,0.424,5.307s1.013-4.57,1.294-5.823l1.377-5.586c0.17-0.62,0.676-2.505,0.844-3.124
				c-0.055,0.896-0.027,4.306,0.029,5.628c0.059,1.322,0.309,5.221,0.364,5.884l0.154,1.94l0.127,1.533c0,0,1.377-4.716,1.771-6.263
				c0.703-2.761,1.478-5.938,1.478-5.938c0.069,1.94,0.944,6.357,1.127,7.094c0.353,1.446,1.72,5.653,1.984,6.331
				C395.621,445.119,396.99,448.008,396.99,448.008z"/>
			<path fill="#FFFFFF" d="M397.409,450.567l-0.98-2.097c-0.043-0.128-1.382-2.927-1.619-3.632c-0.271-0.661-1.633-4.91-1.985-6.4
				c-0.139-0.479-0.493-2.28-0.787-4.081c-0.193,0.842-0.422,1.771-0.646,2.614c-0.396,1.549-1.73,6.106-1.787,6.291l-0.942,3.222
				l-0.521-6.528c-0.04-0.562-0.323-4.53-0.365-5.907c-0.015-0.325-0.015-0.762-0.04-1.255l-1.014,4.151
				c-0.282,1.21-1.296,5.771-1.296,5.799l-0.844,3.855l-0.353-3.587c-0.017-0.155-0.353-3.646-0.438-5.362
				c-0.025-0.898,0-1.83,0.031-2.701v-0.109c-0.338,1.041-0.718,1.938-1.098,2.812c-0.239,0.563-0.535,1.155-0.83,1.745
				c-0.279,0.521-0.604,1.083-0.999,1.717l-1.771,2.815l0.155-3.095c0.155-2.507,0.312-4.446,0.548-6.289
				c0.279-2.167,0.688-4.278,1.253-6.435c0.338-1.364,0.743-2.701,1.11-4.021c0.227-0.763,0.451-1.521,0.662-2.28
				c0.621-2.195,1.129-4.222,1.549-6.192c0.495-2.362,0.772-4.276,0.856-6.049c0.128-2.223-0.038-4.021-0.519-5.49
				c-0.296-0.845-0.69-1.489-1.154-1.97c-0.28-0.252-0.536-0.424-0.832-0.562c-0.139-0.031-0.42-0.115-0.771-0.227
				c-0.802-0.225-1.395-0.395-1.646-0.535c-0.395-0.195-0.703-0.533-0.94-0.957l-0.55-0.113c-2.068-0.42-5.434-1.125-5.713-1.153
				c-0.059,0-0.13-0.027-0.197-0.027c-0.143-0.026-0.269-0.026-0.363,0c-0.031,0-0.115,0.027-0.281,0.238l-0.128,0.128
				c-3.7,3.123-7.472,5.009-7.642,5.093l-2.025,1.016l5.151-6.951c-0.506,0.025-1.185,0.025-1.943,0.054
				c-1.911,0-3.756-0.465-3.827-0.479l-1.926-0.509l2.771-1.127c0.703-0.237,1.463-0.479,2.278-0.718
				c1.662-0.464,3.296-0.827,4.309-1.041c-0.281-0.745-0.732-2.013-1.521-4.264l-0.672-1.969l1.614,0.896
				c3.237,1.801,4.969,5.479,4.982,5.518c0.236,0.339,2.267,0.845,3.994,1.069c0.155,0.027,0.271,0.056,0.381,0.084
				c0.186,0.057,0.366,0.113,0.551,0.124l0.548,0.127c0-0.056,0.031-0.085,0.042-0.11c0.113-0.197,0.212-0.426,0.323-0.649
				c0.029-0.054,0.057-0.112,0.085-0.169c-0.253-0.562-0.847-1.07-1.549-1.238c-0.803-0.225-3.826-0.703-3.855-0.703l-0.336-0.055
				l-0.281-3.153l0.871,0.059c0.239,0.013,0.479,0.04,0.734,0.084c0.589,0.084,1.338,0.183,2.688,0.183
				c0.535,0.017,1.026-0.04,1.438-0.154c0.267-0.068,0.896-0.278,1.024-0.731c1.155-4.136,3.982-9.062,7.938-13.845l0.124-0.143
				c1.111-1.377,1.195-1.872,1.182-1.996c0-0.099-0.068-0.195-0.238-0.279c-0.675-0.339-11.425-4.843-16.997-7.18l-2.183-0.896
				l17.968-3.294c1.068-1.52,3.869-5.151,6.868-6.234l0.154-0.04c2.913-0.829,5.137-0.365,7.5,0.126
				c2.421,0.508,4.925,1.028,8.484,0.187c0.194-0.045,0.406-0.101,0.618-0.171c1.354-0.364,3.701-1.269,5.911-2.547
				c2.123-1.267,3.896-3.403,3.924-3.435l2.619-3.166l-1.717,3.785c-0.084,0.212-2.111,4.574-7.122,8.036
				c1.688-0.762,2.829-1.396,2.845-1.409l4.98-2.785l-4.562,3.94c-0.194,0.193-5.192,4.501-8.286,6.048
				c-0.042,0.044-0.103,0.057-0.155,0.084c1.801-0.363,4.249-0.772,4.277-0.787l2.866-0.479l-2.758,1.802
				c-4.052,2.591-10.807,7.29-11.733,8.796c-0.703,1.153-0.312,1.897,0.772,3.362c0.521,0.702,1.057,1.437,1.31,2.336
				c1.069,3.785-0.268,8.839-1.688,14.184c-1.507,5.686-3.07,11.596-1.354,15.562c1.661,3.826,6.051,7.431,6.078,7.457l3.405,2.759
				l-7.965-2.827c-1.901-0.746-3.081-1.395-4.391-2.379c-0.195-0.143-0.381-0.279-0.562-0.435c0.225,2.095,0.718,5.514,1.66,8.003
				l1.012,2.617l-1.996-1.576c-0.099-0.084-1.703-1.377-3.25-3.63c0.115,0.535,0.239,1.112,0.354,1.745
				c0.309,1.604,1.041,5.827,1.192,7.684c0.185,2.447,0.705,10.021,0.577,12.555c-0.099,2.166-0.433,7.118-0.433,7.175
				L397.409,450.567z M392.71,426.675l0.171,4.106c0.084,1.858,0.929,6.204,1.128,6.951c0.338,1.465,1.688,5.63,1.938,6.274
				c0.086,0.254,0.325,0.804,0.605,1.423c0.099-1.521,0.212-3.335,0.27-4.434c0.112-2.252-0.353-9.285-0.592-12.354
				c-0.126-1.688-0.844-5.755-1.167-7.556c-0.124-0.72-0.27-1.339-0.396-1.956c-0.153-0.732-0.296-1.438-0.437-2.196
				c-0.111-0.703-0.195-1.379-0.279-1.998l-0.646-5.544l1.828,4.841c0.802,2.126,1.998,3.83,3.013,5.011
				c-0.804-3.475-1.043-7.121-1.043-7.314l-0.113-1.843l1.154,1.012c0.168,0.153,0.338,0.281,0.506,0.437
				c0.367,0.311,0.787,0.648,1.238,0.982c1.251,0.959,2.337,1.55,4.165,2.253l0.449,0.168c-1.32-1.434-2.843-3.307-3.714-5.288
				c-1.899-4.404-0.256-10.582,1.322-16.551c1.354-5.12,2.629-9.963,1.676-13.365c-0.195-0.704-0.688-1.354-1.141-1.999
				c-0.93-1.238-2.08-2.785-0.703-5.038c1.013-1.686,6.219-5.345,9.554-7.584c-0.592,0.101-1.182,0.212-1.702,0.325
				c-1.518,0.324-3.265,0.449-3.336,0.449l-2.968,0.183l2.982-1.531c0,0,2.646-1.362,3.658-1.914
				c1.113-0.562,2.521-1.519,3.845-2.505c-0.943,0.396-1.986,0.774-3.071,1.111c-0.099,0.044-0.208,0.071-0.323,0.101
				c-0.758,0.211-1.885,0.466-2.588,0.535l-4.192,0.378l4.236-1.758c0.04-0.028,4.036-1.675,5.477-2.604
				c2.221-1.28,3.91-2.828,5.164-4.224c-0.212,0.155-0.451,0.312-0.69,0.451c-2.306,1.335-4.812,2.295-6.204,2.689
				c-0.269,0.084-0.495,0.139-0.688,0.183c-3.787,0.888-6.503,0.323-8.924-0.183c-2.223-0.465-4.334-0.901-7.009-0.143l-0.111,0.027
				c-2.167,0.789-4.646,3.532-6.222,5.854l-0.211,0.311l-13.438,2.451c4.476,1.854,14.212,5.949,14.888,6.304
				c0.592,0.295,0.76,0.815,0.76,1.195c0.029,0.814-0.479,1.845-1.633,3.222l-0.139,0.17c-3.772,4.572-6.445,9.232-7.543,13.116
				c-0.17,0.577-0.674,1.576-2.195,1.997c-0.535,0.153-1.141,0.225-1.76,0.195c-1.207,0-1.983-0.085-2.544-0.169l0.015,0.28
				c0.829,0.126,2.911,0.479,3.604,0.648c1.109,0.309,2.012,1.182,2.266,2.221l0.055,0.281l-0.168,0.309
				c-0.057,0.113-0.126,0.255-0.195,0.409c-0.111,0.268-0.253,0.549-0.396,0.803c-0.084,0.113-0.139,0.271-0.183,0.396l-0.21,0.758
				l-1.646-0.31c-0.183-0.026-0.409-0.084-0.619-0.142c-0.099-0.026-0.212-0.069-0.323-0.084c-1.52-0.195-4.192-0.688-4.602-1.576
				c-0.015-0.027-0.999-2.108-2.846-3.8c0.495,1.408,0.915,2.533,1.001,2.716l0.76,0.999l-1.352,0.196
				c-0.019,0.013-2.534,0.479-5.139,1.209c0.325,0.029,0.648,0.04,0.974,0.04c1.801-0.013,3.011-0.069,3.011-0.069l1.125-0.04
				l-3.628,4.885c1.377-0.846,3.233-2.07,5.051-3.575c0.325-0.395,0.661-0.619,1.028-0.734c0.309-0.084,0.562-0.053,0.758-0.026
				c0.042,0,0.101,0.016,0.141,0.016c0.34,0.013,4.562,0.898,5.841,1.167l0.974,0.197l0.099,0.224
				c0.155,0.34,0.38,0.592,0.634,0.734c0.227,0.111,0.984,0.338,1.505,0.479c0.381,0.113,0.688,0.197,0.858,0.268
				c0.394,0.154,0.746,0.381,1.1,0.721c0.578,0.577,1.042,1.35,1.378,2.361c0.549,1.636,0.745,3.575,0.604,5.995
				c-0.1,1.858-0.38,3.869-0.915,6.307c-0.422,2.023-0.928,4.081-1.562,6.331c-0.214,0.76-0.437,1.52-0.661,2.278
				c-0.365,1.31-0.762,2.646-1.112,3.968c-0.521,2.084-0.913,4.123-1.196,6.222c-0.194,1.52-0.338,3.138-0.479,5.105
				c0.109-0.21,0.225-0.395,0.322-0.59c0.297-0.551,0.562-1.086,0.773-1.619c0.449-1.014,0.871-2.109,1.293-3.35l0.17-0.534
				c0.196-0.674,0.396-1.306,0.958-3.486l1.66-6.391l-0.479,6.305c0,0.027-0.142,1.803-0.194,4.022l-0.016,0.76
				c-0.028,0.873-0.056,1.773-0.018,2.617c0.018,0.435,0.044,0.983,0.086,1.576c0.186-0.789,0.34-1.492,0.438-1.885l1.363-5.586
				c0.168-0.636,0.674-2.534,0.856-3.17l1.563-5.601l-0.366,5.531c-0.084,0.856-0.029,4.234,0.027,5.527
				c0.029,1.271,0.311,5.108,0.354,5.855l0.04,0.424c0.34-1.155,0.663-2.352,0.816-2.981c0.703-2.731,1.479-5.911,1.479-5.94
				L392.71,426.675z"/>
		</g>
		<path fill="#FFFFFF" d="M396.932,363.352c-0.281,2.56-1.661,4.81-3.067,5.034c-1.423,0.196-2.336-1.688-2.067-4.247
			c0.298-2.546,1.66-4.812,3.081-5.01C396.286,358.904,397.217,360.791,396.932,363.352z"/>
		<path fill="#00BD70" d="M394.569,362.677c-0.042-1.463-1.941-1.154-2.223,0.957c-0.521,3.953,0.957,3.645,1.463,3.376
			c0.999-0.548,1.026-2.476,1.014-3.124l-1.618-0.111L394.569,362.677z"/>
	</g>
	<g>
		<path fill="#FFFFFF" d="M170.452,541.863l6.938-3.097l4.165,9.396l1.986-12.129l6.899-3.065l5.327,8.861l0.829-11.623l6.901-3.065
			l-2.225,21.078l-7.146,3.212l-6.032-9.994l-2.243,13.679l-7.163,3.182L170.452,541.863z"/>
		<path fill="#FFFFFF" d="M203.92,526.962l6.96-2.941l3.812,9.598l2.352-12.196l6.923-2.941l4.995,9.088l1.182-11.707l6.923-2.925
			l-2.864,21.261l-7.175,3.04l-5.636-10.246l-2.668,13.748l-7.176,3.039L203.92,526.962z"/>
		<path fill="#FFFFFF" d="M237.525,512.732l6.975-2.785l3.459,9.821l2.717-12.282l6.941-2.771l4.64,9.314l1.555-11.793l6.938-2.771
			l-3.533,21.4l-7.197,2.869l-5.235-10.496l-3.074,13.819l-7.19,2.87L237.525,512.732z"/>
		<path fill="#FFFFFF" d="M272.309,513.38l7.062-2.714l0.34,5.431l-7.053,2.701L272.309,513.38z"/>
		<path fill="#FFFFFF" d="M283.207,494.764l12.223-4.488c2.665-0.986,4.679-1.182,6.049-0.619c1.356,0.535,2.104,1.787,2.161,3.714
			c0.084,1.997-0.563,3.8-1.974,5.46c-1.397,1.635-3.572,3.013-6.543,4.11l-4.022,1.461l0.289,7.318l-7.38,2.699L283.207,494.764z
			 M290.932,500.435l1.809-0.662c1.414-0.521,2.393-1.1,2.954-1.704c0.562-0.619,0.831-1.251,0.794-1.885
			c-0.027-0.619-0.286-1.043-0.802-1.296c-0.521-0.252-1.471-0.111-2.843,0.396l-2.088,0.762L290.932,500.435z"/>
		<path fill="#FFFFFF" d="M307.974,485.759l7.371-2.574l0.271,19.853l-7.375,2.576L307.974,485.759z"/>
		<path fill="#FFFFFF" d="M336.735,487.866l6.418-0.464c-0.479,1.689-1.183,3.183-2.112,4.49c-0.955,1.337-2.137,2.489-3.517,3.446
			c-1.408,0.971-3.154,1.802-5.292,2.488c-2.588,0.846-4.698,1.226-6.331,1.112c-1.618-0.113-3.011-0.76-4.167-1.971
			c-1.154-1.209-1.717-3.055-1.66-5.542c0.059-3.336,1.152-6.223,3.294-8.697c2.141-2.449,5.12-4.306,8.947-5.559
			c2.997-0.974,5.349-1.226,7.036-0.774c1.688,0.479,2.939,1.633,3.729,3.49l-6.517,3.317c-0.223-0.533-0.449-0.896-0.703-1.098
			c-0.395-0.351-0.888-0.562-1.461-0.619c-0.604-0.055-1.27,0.029-1.999,0.281c-1.66,0.535-2.955,1.507-3.87,2.927
			c-0.688,1.056-1.053,2.477-1.084,4.276c-0.055,2.237,0.325,3.629,1.103,4.192c0.787,0.562,1.897,0.618,3.35,0.142
			c1.421-0.451,2.474-1.14,3.208-2.027C335.848,490.372,336.395,489.235,336.735,487.866z"/>
		<path fill="#FFFFFF" d="M345.263,483.97l9.596-2.869l-0.267,4.391l-9.583,2.845L345.263,483.97z"/>
		<path fill="#FFFFFF" d="M357.081,469.773l7.654-2.011l3.745,13.452l6.866-16.211l7.43-1.941l-11.03,22.908l-7.937,2.083
			L357.081,469.773z"/>
		<path fill="#FFFFFF" d="M386.635,462.243l19.418-3.729l-0.889,4.488l-12.144,2.336l-0.663,3.349l11.271-2.166l-0.844,4.291
			l-11.285,2.153l-0.815,4.138l12.522-2.379l-0.959,4.771l-19.756,3.772L386.635,462.243z"/>
		<path fill="#FFFFFF" d="M405.799,479.24l5.205-21.219l11.962-1.815c2.223-0.353,3.884-0.436,4.952-0.269
			c1.083,0.197,1.887,0.676,2.363,1.52c0.479,0.816,0.563,1.912,0.227,3.267c-0.281,1.182-0.818,2.252-1.562,3.18
			c-0.773,0.928-1.688,1.745-2.771,2.421c-0.703,0.437-1.604,0.844-2.729,1.224c0.789,0.126,1.354,0.296,1.677,0.493
			c0.209,0.143,0.506,0.449,0.871,0.957c0.366,0.479,0.591,0.871,0.677,1.153l1.971,5.63l-8.104,1.226l-2.252-5.896
			c-0.271-0.773-0.577-1.254-0.886-1.437c-0.451-0.256-0.986-0.34-1.634-0.227l-0.648,0.086l-2.111,8.611L405.799,479.24z
			 M416.099,465.522l3.022-0.464c0.338-0.04,0.974-0.239,1.984-0.562c0.479-0.17,0.93-0.449,1.324-0.844
			c0.393-0.424,0.632-0.844,0.758-1.293c0.155-0.704,0.057-1.183-0.338-1.493c-0.38-0.279-1.238-0.338-2.547-0.141l-3.15,0.479
			L416.099,465.522z"/>
		<path fill="#FFFFFF" d="M430.889,475.388l4.545-21.107l12.045-2.139c2.222-0.396,3.882-0.521,4.996-0.396
			c1.108,0.142,1.926,0.62,2.434,1.437c0.535,0.804,0.646,1.872,0.365,3.222c-0.254,1.17-0.76,2.238-1.491,3.183
			c-0.731,0.943-1.646,1.771-2.729,2.463c-0.688,0.45-1.604,0.873-2.717,1.293c0.804,0.113,1.378,0.256,1.72,0.447
			c0.225,0.115,0.519,0.428,0.91,0.902c0.381,0.479,0.618,0.844,0.733,1.125l2.166,5.52l-8.146,1.434L443.241,467
			c-0.309-0.743-0.632-1.21-0.957-1.395c-0.435-0.239-0.997-0.294-1.658-0.183l-0.648,0.113l-1.842,8.584L430.889,475.388z
			 M440.833,461.556l3.058-0.551c0.322-0.058,0.981-0.253,1.97-0.618c0.493-0.187,0.942-0.48,1.31-0.873
			c0.395-0.422,0.634-0.846,0.73-1.322c0.141-0.674,0.015-1.138-0.38-1.436c-0.407-0.281-1.268-0.296-2.575-0.059l-3.179,0.562
			L440.833,461.556z"/>
		<path fill="#FFFFFF" d="M459.65,449.948l19.475-4.083l-0.771,4.478l-12.188,2.547l-0.59,3.334l11.312-2.364l-0.745,4.262
			l-11.327,2.365l-0.704,4.123l12.552-2.617l-0.844,4.742l-19.838,4.152L459.65,449.948z"/>
		<path fill="#FFFFFF" d="M480.573,459.978l7.021-1.675l-0.802,5.769l-7.009,1.675L480.573,459.978z"/>
		<path fill="#FFFFFF" d="M493.657,442.374l18.124-4.949l-0.424,4.419l-10.75,2.925l-0.338,3.588l9.176-2.49l-0.38,4.14
			l-9.188,2.505l-0.772,8.386l-7.375,1.999L493.657,442.374z"/>
		<path fill="#FFFFFF" d="M514.148,456.615l1.169-20.317l12.255-3.658c2.282-0.675,3.999-1.027,5.181-1.055
			c1.185-0.017,2.11,0.321,2.784,1c0.703,0.674,1.016,1.658,0.932,2.953c-0.071,1.125-0.409,2.165-1.016,3.181
			c-0.603,0.972-1.421,1.87-2.42,2.674c-0.675,0.506-1.533,1.028-2.646,1.577c0.873-0.029,1.49,0.042,1.87,0.168
			c0.271,0.084,0.636,0.325,1.112,0.732c0.479,0.363,0.805,0.703,0.958,0.942l3.207,4.826l-8.3,2.476l-3.548-5.037
			c-0.464-0.646-0.873-1.043-1.238-1.182c-0.506-0.141-1.126-0.126-1.787,0.084l-0.646,0.183l-0.464,8.263L514.148,456.615z
			 M522.24,442.321l3.08-0.915c0.34-0.099,1.012-0.38,1.971-0.856c0.479-0.227,0.899-0.562,1.237-0.999
			c0.325-0.437,0.508-0.873,0.535-1.31c0.029-0.662-0.195-1.099-0.648-1.294c-0.477-0.196-1.379-0.115-2.715,0.279l-3.234,0.973
			L522.24,442.321z"/>
	</g>
	<g>
		<path fill="#00BD70" d="M7.07,133.889c0,0,119.868,30.278,144.72,48.656c2.868,15.018-5.579,72.502,1.174,82.655
			c6.768,10.141,152.211-52.428,216.475-64.262c64.251-11.841,163.089-30.938,177.564-40.59c5.081-3.376,6.77-62.568,3.381-76.104
			c-3.646-14.594-28.749-21.979-71.021-25.356c-42.285-3.391-62.576-10.153-62.576-10.153L7.07,133.889z"/>
		<path fill="#009A65" d="M7.168,133.516c24.856,5.824,49.546,12.352,74.101,19.438c12.271,3.583,24.463,7.415,36.565,11.653
			c6.041,2.132,12.053,4.368,18.004,6.845c5.952,2.546,11.841,5.164,17.481,9.035c0.535,0.364,0.881,0.914,0.985,1.513l0.015,0.069
			c0.74,4.081,0.74,7.804,0.78,11.596c0,3.765-0.099,7.499-0.234,11.223c-0.252,7.44-0.694,14.846-1.012,22.226
			c-0.318,7.373-0.583,14.754-0.395,22.008c0.113,3.604,0.314,7.247,0.948,10.531c0.177,0.811,0.373,1.584,0.604,2.278
			c0.189,0.636,0.592,1.408,0.654,1.431c-0.094-0.161-0.339-0.366-0.4-0.4c-0.027-0.036-0.105-0.057-0.105-0.062
			c-0.026-0.021,0.008-0.007,0.063,0.015c0.161,0.037,0.442,0.077,0.751,0.101c0.656,0.042,1.456,0.005,2.274-0.071
			c3.312-0.331,6.881-1.146,10.392-2.033c3.509-0.886,7.035-1.907,10.545-2.961c7.037-2.137,14.044-4.459,21.044-6.837
			c14.002-4.75,27.917-9.822,41.912-14.728l42.017-14.686c14.067-4.797,28.146-9.532,42.439-13.797
			c14.269-4.242,28.678-8.293,43.509-10.958l43.733-8.05c29.102-5.5,58.197-11.165,87.02-17.772
			c7.204-1.66,14.38-3.396,21.473-5.305c7.035-1.941,14.281-3.918,20.603-6.728c0.817-0.344,1.494-0.724,2.141-1.109l0.252-0.143
			c-0.464,0.345-0.055,0.035-0.124,0.077c0.017-0.015,0.153-0.121,0.069-0.062c-0.113,0.062-0.226,0.205-0.254,0.261l0.042-0.069
			c0.07-0.163,0.21-0.437,0.351-0.78c0.479-1.387,0.871-3.153,1.184-4.874c0.619-3.507,1.027-7.144,1.38-10.772
			c0.646-7.296,1.012-14.656,1.209-22.016c0.17-7.358,0.183-14.732-0.143-22.036c-0.185-3.638-0.406-7.312-0.959-10.743
			c-0.445-3.336-1.801-5.941-4.104-8.31c-4.671-4.631-11.539-7.442-18.364-9.562c-6.906-2.104-14.099-3.538-21.345-4.693
			c-14.464-2.32-29.297-3.047-44.073-4.903c-7.432-0.895-14.802-2.004-22.177-3.352c-7.357-1.355-14.592-2.902-21.947-5.129
			l1.183,0.064L7.156,134.267L7.168,133.516z M6.992,133.516l409.331-86.983c0.365-0.071,0.718-0.057,1.054,0.035l0.126,0.036
			c13.874,3.97,28.663,6.255,43.2,7.972c14.634,1.729,29.496,2.349,44.354,4.616c7.4,1.127,14.804,2.534,22.094,4.693
			c3.643,1.091,7.262,2.386,10.78,4.074c3.516,1.681,6.965,3.783,9.904,6.733c1.478,1.478,2.785,3.193,3.784,5.135
			c0.479,0.88,1.015,2.272,1.225,3.027c0.353,1.09,0.508,2.061,0.688,3.045c0.632,3.884,0.89,7.621,1.112,11.392
			c0.378,7.5,0.422,14.957,0.279,22.432c-0.143,7.458-0.449,14.922-1.07,22.399c-0.336,3.75-0.701,7.493-1.35,11.293
			c-0.34,1.92-0.703,3.799-1.438,5.917c-0.195,0.528-0.437,1.105-0.787,1.754l-0.34,0.521c-0.168,0.239-0.435,0.548-0.674,0.795
			l-0.195,0.171c-0.17,0.117,0.168-0.115-0.395,0.302l-0.34,0.203c-0.959,0.592-1.887,1.105-2.784,1.498
			c-7.221,3.259-14.354,5.206-21.561,7.283c-7.205,2.006-14.437,3.812-21.652,5.562c-28.934,6.903-58.019,12.842-87.133,18.61
			c-14.562,2.87-29.11,5.678-43.719,8.401c-14.324,2.65-28.508,6.718-42.622,10.987c-28.22,8.661-56.201,18.419-84.188,28.185
			c-13.993,4.905-28.053,9.674-42.179,14.303c-7.071,2.307-14.173,4.552-21.359,6.627c-3.595,1.034-7.212,2.026-10.884,2.912
			c-3.701,0.866-7.389,1.703-11.455,2.062c-1.034,0.077-2.088,0.117-3.285,0.033c-0.606-0.057-1.253-0.126-1.989-0.321
			c-0.387-0.121-0.789-0.245-1.238-0.473c-0.213-0.091-0.479-0.267-0.702-0.406c-0.265-0.17-0.668-0.535-0.942-0.838
			c-1.091-1.429-1.379-2.42-1.781-3.531c-0.347-1.069-0.579-2.099-0.767-3.109c-0.71-4.004-0.853-7.802-0.937-11.602
			c-0.092-7.577,0.281-15.023,0.696-22.452l1.372-22.191c0.21-3.679,0.396-7.356,0.479-11.002c0.047-3.617,0.076-7.346-0.444-10.575
			l0.999,1.577c-4.821-3.469-10.567-6.256-16.289-8.831c-5.77-2.576-11.665-4.917-17.604-7.163
			c-11.89-4.484-23.978-8.512-36.092-12.449c-12.115-3.948-24.295-7.705-36.521-11.338c-12.235-3.608-24.483-7.161-36.771-10.583
			c-0.208-0.047-0.331-0.259-0.279-0.453C6.746,133.65,6.865,133.544,6.992,133.516z"/>
	</g>
	<g>
		<g>
			<polygon fill="#FFFFFF" points="307.703,119.76 136.063,105.387 196.091,93.553 279.807,100.314 270.502,79.179 309.395,68.189 
							"/>
			<path fill="#009A65" d="M307.944,120.043l-172.029-12.926l-12.341-0.935l12.149-2.482l59.938-12.297l0.289-0.064l0.323,0.027
				l41.877,3.025l20.933,1.609l20.925,1.772l-2.539,3.565c-3.08-7.049-6.037-14.155-9.062-21.237l-1.056-2.455l2.528-0.676
				c13.021-3.477,26.001-7.077,39.067-10.399l2.266-0.578l-0.126,2.251l-1.436,25.764c-0.563,8.593-1.042,17.177-1.688,25.768
				L307.944,120.043z M307.452,119.487c-0.067-8.514,0-17.028,0-25.548l0.271-25.808l2.14,1.67
				c-12.875,4.004-25.821,7.738-38.736,11.589l1.481-3.14c3.173,7.016,6.424,13.992,9.534,21.038l1.725,3.904l-4.264-0.331
				l-20.938-1.611l-20.917-1.772l-41.827-3.73l0.604-0.035l-60.128,11.37l-0.196-3.42L307.452,119.487z"/>
		</g>
	</g>
	<g>
		<g>
			<path fill="#FFFFFF" d="M284.459,356.005c-0.141-6.769,9.294-186.384,9.294-203.27c0-7.972-9.369-15.236-15.701-24.491
				l-18.413-26.884l32.554,1.076c55.702,1.863,89.178,7.099,99.521,15.556c24.188,19.776,44.831,103.403,48.307,190.506
				l-32.94,11.481c-3.223-80.519-26.833-170.974-40.709-183.556c-6.22-2.722-40.354-12.974-63.758-14.676
				c3.59,8.448,21.587,20.192,21.587,28.445c0,16.561-6.798,188.272-6.769,189.92L284.459,356.005z"/>
			<path fill="#009A65" d="M284.206,356.005c0.312-11.061,0.864-22.12,1.33-33.179l1.491-33.175l3.003-66.339l1.448-33.166
				c0.402-11.052,0.979-22.125,1.204-33.146l0.118-4.143c-0.057-0.528-0.051-1.407-0.204-1.937
				c-0.104-0.583-0.269-1.182-0.506-1.809c-0.854-2.44-2.44-4.672-4.081-6.824c-3.343-4.291-7.249-8.301-10.497-12.91
				l-18.886-27.335l-1.357-1.977l2.406,0.079c27.791,0.905,55.68,1.215,83.472,4.092c6.938,0.727,13.874,1.599,20.77,2.8
				c6.896,1.239,13.807,2.689,20.488,5.229c3.294,1.303,6.754,2.897,9.457,5.517c1.294,1.078,2.591,2.541,3.798,3.883
				c1.127,1.389,2.251,2.78,3.25,4.249c4.123,5.833,7.303,12.151,10.175,18.568c5.653,12.875,9.86,26.257,13.427,39.766
				c3.57,13.518,6.442,27.202,8.818,40.955c4.742,27.51,7.614,55.329,8.88,83.227l0.069,1.604l-1.532,0.55l-32.927,11.567
				l-2.928,1.041l-0.112-3.124c-0.705-15.717-2.128-31.414-4.109-47.04c-1.999-15.611-4.444-31.183-7.456-46.64
				c-3.039-15.458-6.559-30.817-10.875-45.933c-2.169-7.542-4.53-15.036-7.276-22.337c-1.377-3.645-2.869-7.241-4.532-10.703
				c-1.673-3.369-3.587-6.936-5.882-9.11l0.69,0.442c-2.281-0.94-4.941-1.808-7.473-2.616c-2.591-0.822-5.181-1.584-7.797-2.336
				c-5.206-1.471-10.471-2.862-15.729-4.13c-10.557-2.513-21.233-4.638-31.899-5.537l2.363-3.319
				c0.73,1.715,2.124,3.516,3.561,5.221c1.461,1.71,3.079,3.375,4.728,5.045c3.265,3.363,6.711,6.642,9.736,10.644
				c1.463,2.033,2.999,4.224,3.503,7.331c0.043,0.395,0.07,0.762,0.07,1.219l-0.027,0.886l-0.057,1.767l-0.112,3.533l-0.479,14.135
				c-0.59,18.833-1.438,37.696-2.269,56.544l-2.545,56.519l-2.729,56.455l-0.031,0.508l-0.393,0.193l-33.575,15.622L284.206,356.005
				z M284.734,355.587l32.358-16.156l-0.426,0.705c0.479-18.888,0.931-37.766,1.533-56.591l1.647-56.522
				c0.479-18.835,1.251-37.649,1.631-56.514l0.338-14.135l0.084-3.531l0.057-1.767l0.017-0.886l-0.04-0.535
				c-0.239-1.604-1.379-3.504-2.701-5.227c-2.702-3.513-6.107-6.733-9.457-10.082c-1.662-1.688-3.349-3.392-4.967-5.243
				c-1.592-1.872-3.215-3.797-4.392-6.424l-1.626-3.625l3.989,0.309c11.131,0.875,21.979,2.956,32.717,5.433
				c5.347,1.246,10.681,2.612,15.983,4.13c2.646,0.754,5.277,1.534,7.91,2.371c2.659,0.854,5.219,1.668,7.992,2.815l0.38,0.155
				l0.294,0.278c1.771,1.669,2.982,3.439,4.081,5.223c1.098,1.787,2.055,3.602,2.938,5.438c1.772,3.659,3.294,7.375,4.716,11.123
				c2.814,7.493,5.205,15.09,7.401,22.731c4.361,15.304,7.909,30.778,10.962,46.356c6.064,31.144,9.99,62.717,11.214,94.477
				l-3.054-2.096l32.997-11.35l-1.463,2.146c-1.054-27.706-3.716-55.386-8.301-82.746c-2.281-13.688-5.065-27.278-8.528-40.688
				c-3.462-13.408-7.56-26.674-13.03-39.324c-2.759-6.304-5.853-12.479-9.751-18.048c-0.94-1.421-1.999-2.72-3.055-4.037
				c-1.127-1.237-2.109-2.435-3.463-3.595c-2.308-2.289-5.317-3.695-8.443-4.969c-6.331-2.435-13.114-3.918-19.882-5.173
				c-6.797-1.224-13.664-2.133-20.562-2.894c-27.593-3.021-55.439-3.447-83.244-4.558l1.048-1.895l18.653,27.439
				c3.085,4.479,6.899,8.478,10.321,12.944c1.675,2.243,3.351,4.602,4.312,7.407c0.254,0.685,0.448,1.414,0.577,2.196
				c0.184,0.815,0.136,1.343,0.194,2.188l-0.139,4.156c-0.312,11.11-0.96,22.144-1.443,33.208l-1.668,33.167l-3.464,66.312
				l-1.724,33.152C285.739,333.772,285.112,344.664,284.734,355.587z"/>
		</g>
	</g>
	<g>
		<g>
			<path fill="#FFFFFF" d="M278.169,115.841l-15.521-16.083c-0.838-0.864-3.812-3.166-6.2-5.01
				c-13.521-10.455-36.146-27.965-34.143-49.221c1.098-11.7,9.302-21.754,24.379-29.879c7.517-4.046,14.184-6.01,20.397-6.01
				c7.513,0,14.151,2.97,18.69,8.359c15.063,17.913,2.771,63.658-1.358,77.245L278.169,115.841z M266.158,32.749
				c-1.096,0.229-3.18,0.864-6.509,2.66c-5.255,2.828-11.616,7.219-12.073,12.075c-0.654,6.931,13.713,31.335,22.085,38.365
				C273.111,68.604,268.862,37.703,266.158,32.749z"/>
			<g>
				<path fill="#009A65" d="M278.077,115.927c0,0-3.023-3.089-8.323-8.492c-1.322-1.352-2.793-2.85-4.382-4.478
					c-0.804-0.814-1.635-1.668-2.491-2.546c-0.832-0.852-1.922-1.582-2.93-2.428c-4.086-3.341-8.885-6.77-13.881-10.976
					c-4.994-4.157-10.215-8.956-14.895-14.83c-2.298-2.948-4.53-6.145-6.196-9.746c-1.695-3.562-3.062-7.479-3.365-11.646
					c-0.183-1.025-0.153-2.066-0.117-3.124l0.033-1.576c0.017-0.278-0.021-0.472,0.042-0.844l0.124-0.758l0.51-3.054
					c0.23-1.021,0.646-2.056,0.97-3.087l0.513-1.551l0.727-1.441c0.5-0.95,0.966-1.937,1.5-2.87
					c1.293-1.727,2.369-3.652,3.938-5.173c5.826-6.474,13.375-11.293,21.271-14.93c1.989-0.874,4.136-1.609,6.228-2.342l3.244-0.754
					l1.624-0.373l1.662-0.141c1.131-0.079,2.174-0.195,3.391-0.259c1.076,0.069,2.109,0.033,3.244,0.193
					c1.125,0.178,2.278,0.281,3.343,0.605l1.617,0.423l1.577,0.583c4.19,1.575,7.869,4.404,10.481,7.922
					c2.7,3.531,4.167,7.654,5.186,11.678c1.878,8.135,1.851,16.175,1.225,23.642c-0.642,7.479-1.852,14.457-3.217,20.832
					c-2.744,12.749-6.312,23.021-8.685,30.198l-3.818,11.488L278.077,115.927z M278.105,115.589
					c0.263-0.906,1.344-4.883,3.096-11.252c1.016-3.643,2.245-8.067,3.652-13.146c1.352-5.073,2.667-10.865,3.905-17.204
					c1.217-6.332,2.277-13.262,2.759-20.6c0.414-7.323,0.577-15.178-1.254-22.874c-0.949-3.8-2.336-7.621-4.728-10.752
					c-2.378-3.159-5.595-5.747-9.373-7.219l-1.407-0.556l-1.479-0.393c-0.976-0.318-1.969-0.417-2.956-0.594
					c-0.983-0.168-2.108-0.153-3.171-0.237l-3.045,0.212l-1.562,0.109l-1.535,0.331l-3.076,0.663
					c-1.989,0.662-3.969,1.31-5.931,2.132c-7.816,3.497-15.191,8.111-20.854,14.271c-1.52,1.441-2.554,3.257-3.807,4.89
					c-0.521,0.879-0.963,1.809-1.449,2.702l-0.703,1.365l-0.493,1.406c-0.303,0.958-0.704,1.863-0.936,2.855l-0.548,3.052
					l-0.137,0.762c-0.033,0.133-0.02,0.466-0.033,0.688l-0.042,1.491c-0.049,0.99-0.084,1.989,0.075,2.97
					c0.239,3.953,1.509,7.727,3.118,11.192c1.567,3.511,3.716,6.657,5.924,9.588c4.512,5.833,9.612,10.683,14.53,14.888
					c4.868,4.216,9.708,7.789,13.728,11.188c0.999,0.866,2.041,1.576,2.914,2.497c0.851,0.888,1.669,1.745,2.453,2.574
					c1.577,1.653,3.02,3.175,4.32,4.538C274.609,111.915,277.45,114.899,278.105,115.589z"/>
				<path fill="#009A65" d="M266.074,32.912c-2.76,0.74-5.257,2.146-7.71,3.582c-2.457,1.491-4.841,3.16-6.847,5.171
					c-1.962,1.973-3.659,4.503-3.229,7.15c0.415,2.702,1.567,5.411,2.736,8c2.413,5.213,5.361,10.209,8.545,14.999
					c1.595,2.393,3.279,4.729,5.075,6.958c1.794,2.217,3.688,4.396,5.791,6.146l-1.962,0.689c0.787-4.291,1.014-8.71,1.146-13.129
					c0.093-4.418,0.007-8.857-0.177-13.296c-0.225-4.441-0.577-8.865-1.032-13.297c-0.232-2.21-0.542-4.419-0.866-6.622
					C267.187,37.119,266.849,34.93,266.074,32.912z M266.265,32.68c1.127,2.006,1.639,4.222,2.245,6.388
					c0.584,2.176,0.999,4.392,1.406,6.593c0.832,4.424,1.387,8.895,1.772,13.374c0.422,4.478,0.632,8.984,0.541,13.501
					c-0.02,2.259-0.161,4.519-0.373,6.782c-0.217,2.26-0.521,4.525-1.006,6.763l-0.44,2.033l-1.525-1.35
					c-2.311-2.021-4.158-4.32-5.952-6.655c-1.773-2.342-3.419-4.771-4.996-7.234c-3.118-4.945-5.979-10.054-8.322-15.43
					c-1.135-2.709-2.265-5.425-2.667-8.492c-0.203-1.542,0.21-3.244,1.007-4.545c0.768-1.337,1.78-2.462,2.856-3.483
					c2.196-2.013,4.688-3.579,7.241-4.979c1.271-0.711,2.603-1.33,3.926-1.942c1.344-0.542,2.729-1.109,4.159-1.379l0.091-0.02
					L266.265,32.68z"/>
			</g>
		</g>
	</g>
	<g>
		<g>
			<path fill="#FFFFFF" d="M297.37,104.709l21.831,4.808c1.169,0.259,4.925,0.521,7.92,0.736
				c17.069,1.231,45.577,3.293,55.687,22.107c5.57,10.355-10.937,25.806-18.998,40.913c-4.01,7.526-8.472,12.858-13.664,16.301
				c-6.264,4.158-13.423,5.362-20.192,3.371c-22.458-6.578-22.317-54.014-26.396-67.62L297.37,104.709z M338.144,169.813
				c0.771-0.806,2.166-2.484,3.937-5.82c2.814-5.27,15.817-17.52,13.514-21.811c-3.279-6.138-18.647-8.648-29.496-9.864
				C332.767,148.587,333.132,167.181,338.144,169.813z"/>
			<g>
				<path fill="#009A65" d="M297.417,104.464c0,0,4.276,0.879,11.767,2.415c1.87,0.389,3.938,0.816,6.205,1.273
					c2.266,0.464,4.686,1.061,7.272,1.146c5.29,0.367,11.314,0.601,17.87,1.297c6.53,0.688,13.651,1.765,20.927,4.13
					c7.19,2.362,14.816,6.238,20.138,13.105c0.646,0.858,1.296,1.73,1.831,2.672c0.277,0.502,0.55,0.853,0.844,1.479l0.34,0.696
					l0.31,0.906c0.761,2.364,0.635,4.812,0.11,7.029c-1.064,4.466-3.317,8.301-5.597,12.009
					c-4.658,7.402-10.049,14.219-14.019,21.838c-4.083,7.754-9.904,15.635-18.574,19.539c-4.276,1.942-9.089,2.726-13.733,2.154
					c-1.169-0.126-2.305-0.365-3.434-0.663l-0.423-0.104l-0.448-0.143L328.04,195c-0.59-0.232-1.194-0.451-1.717-0.704
					c-2.167-0.982-4.106-2.349-5.769-3.883c-3.407-3.089-5.655-6.879-7.459-10.603c-1.758-3.757-3.066-7.542-4.08-11.258
					c-1.942-7.449-2.996-14.562-3.854-21.088c-0.916-6.521-1.321-12.535-2.112-17.708c-0.34-2.582-0.982-4.855-1.582-7.13
					c-0.559-2.241-1.07-4.298-1.524-6.163c-1.851-7.415-2.817-11.686-2.817-11.686l-0.091-0.402L297.417,104.464z M297.766,105.064
					c0.445,1.209,1.861,5.009,3.931,10.881c0.648,1.803,1.354,3.792,2.111,5.974c0.731,2.132,1.634,4.609,2.182,7.276
					c1.169,5.297,2.152,11.221,3.227,17.653c1.125,6.417,2.445,13.333,4.613,20.326c2.11,6.909,5.01,14.305,10.272,19.42
					c5.063,5.085,13.718,6.176,20.896,3.149c7.317-3.045,12.876-9.751,16.984-17.222c4.306-7.811,9.934-14.67,14.577-21.727
					c2.28-3.523,4.461-7.162,5.43-10.912c0.479-1.852,0.565-3.759,0.086-5.375c-0.52-1.727-1.661-3.344-2.759-4.947
					c-4.671-6.319-11.736-10.146-18.602-12.645c-6.969-2.482-13.945-3.743-20.39-4.614c-6.459-0.874-12.455-1.27-17.76-1.779
					c-2.743-0.187-5.164-0.859-7.387-1.379c-2.251-0.521-4.308-1.006-6.163-1.441C302.961,106.278,299.031,105.36,297.766,105.064z"
					/>
				<path fill="#009A65" d="M338.113,169.417c0.818-0.962,1.465-2.004,2.111-3.087c0.676-1.167,1.184-2.378,1.913-3.595
					c1.49-2.386,3.192-4.496,4.841-6.664c1.66-2.152,3.32-4.298,4.799-6.514c0.73-1.104,1.421-2.23,1.983-3.378
					c0.533-1.104,0.94-2.398,0.772-3.096c-0.015-0.084-0.04-0.146-0.071-0.212c0-0.007-0.025-0.091-0.025-0.057l-0.143-0.219
					c-0.195-0.331-0.338-0.455-0.479-0.654c-0.396-0.407-0.818-0.818-1.311-1.162c-0.955-0.724-2.097-1.308-3.264-1.814
					c-2.351-1.02-4.912-1.729-7.501-2.312c-5.18-1.155-10.523-1.789-15.887-2.252l2.182-2.877c1.379,3.116,2.659,6.289,3.688,9.512
					c1.043,3.226,1.831,6.503,2.392,9.793c0.564,3.293,1.014,6.572,1.45,9.815c0.239,1.604,0.464,3.215,0.828,4.764
					c0.153,0.774,0.339,1.547,0.634,2.265C337.3,168.306,337.635,168.913,338.113,169.417z M338.002,170.036
					c-0.874-0.271-1.604-0.921-2.194-1.603c-0.59-0.696-1.068-1.45-1.521-2.208c-0.844-1.535-1.519-3.135-2.098-4.729
					c-1.182-3.188-2.065-6.396-2.938-9.576c-0.888-3.18-1.661-6.339-2.404-9.49c-0.774-3.151-1.593-6.29-2.688-9.314l-1.239-3.354
					l3.405,0.485c5.431,0.769,10.878,1.653,16.253,3.116c2.688,0.752,5.359,1.626,7.937,2.884c1.28,0.642,2.562,1.363,3.729,2.336
					c0.592,0.464,1.154,1.021,1.662,1.641c0.254,0.338,0.533,0.736,0.674,1.006l0.126,0.218c0.102,0.177,0.127,0.261,0.186,0.402
					c0.112,0.259,0.184,0.519,0.227,0.767c0.226,2.033-0.591,3.376-1.239,4.669c-0.704,1.269-1.505,2.408-2.336,3.521
					c-1.675,2.216-3.475,4.269-5.261,6.331c-1.76,2.056-3.603,4.08-5.122,6.233c-1.422,2.201-2.855,4.719-4.826,6.62l-0.128,0.106
					L338.002,170.036z"/>
			</g>
		</g>
	</g>
	<g>
		<path fill="#FFFFFF" d="M282.822,90.092c-6.304-5.053-22.263,0-24.604,7.508c-2.344,7.506-3.392,20.289,1.295,22.162
			c4.678,1.878,23.309,9.742,35.029,1.302C306.257,112.614,298.053,102.29,282.822,90.092z"/>
		<path fill="#009A65" d="M282.672,90.287c0,0-0.101-0.062-0.298-0.203c-0.188-0.17-0.481-0.353-0.871-0.562
			c-0.792-0.437-2.068-0.942-3.798-1.13c-1.719-0.197-3.851-0.115-6.187,0.479c-2.336,0.568-4.917,1.54-7.347,3.166
			c-2.376,1.661-4.728,3.82-5.204,7.022c-0.71,3.248-1.246,6.803-1.27,10.411c-0.015,1.81,0.105,3.644,0.486,5.334
			c0.38,1.709,1.13,3.188,2.132,3.41c3.664,1.394,7.375,2.598,11.165,3.385c3.78,0.785,7.626,1.182,11.251,0.838
			c3.615-0.323,6.973-1.317,9.646-3.104c2.854-1.871,4.867-4.059,5.274-6.503c0.465-2.438-0.59-5.345-1.956-7.809
			c-1.387-2.492-3.074-4.644-4.623-6.487c-1.548-1.872-3.06-3.37-4.312-4.588c-2.556-2.393-4.11-3.659-4.11-3.659h0.018v0.001
			H282.672z M282.97,89.887l0.013,0.007c0,0,1.59,1.224,4.383,3.361c1.4,1.07,3.076,2.406,5.003,3.969
			c1.907,1.593,4.03,3.469,6.07,5.912c1.949,2.415,4.245,5.69,3.962,10.235c-0.141,2.21-1.104,4.412-2.435,6.116
			c-0.688,0.864-1.372,1.631-2.226,2.369c-0.435,0.398-0.814,0.698-1.174,0.965c-0.225,0.17-0.274,0.232-0.642,0.479l-0.667,0.45
			c-3.616,2.371-8.026,3.447-12.271,3.503c-4.264,0.077-8.439-0.61-12.443-1.682c-4.012-1.05-7.883-2.525-11.525-4.13
			c-0.512-0.21-1.337-0.668-1.771-1.167c-0.493-0.499-0.873-1.056-1.147-1.604c-0.568-1.091-0.844-2.172-1.043-3.222
			c-0.358-2.112-0.371-4.123-0.267-6.063c0.245-3.898,0.906-7.559,2.006-10.948c0.259-0.794,0.542-1.726,1.041-2.562
			c0.472-0.81,1.043-1.525,1.646-2.152c1.239-1.224,2.618-2.15,3.982-2.886c5.537-2.854,10.794-3.292,14.297-2.877
			c1.765,0.219,3.118,0.678,3.97,1.135c0.437,0.237,0.753,0.437,0.941,0.575C282.869,89.81,282.97,89.887,282.97,89.887
			L282.97,89.887z"/>
	</g>
</g>
</svg>
