<?xml version="1.0" encoding="utf-8"?>
<!-- Generator: Adobe Illustrator 16.0.0, SVG Export Plug-In . SVG Version: 6.00 Build 0)  -->
<!DOCTYPE svg PUBLIC "-//W3C//DTD SVG 1.1//EN" "http://www.w3.org/Graphics/SVG/1.1/DTD/svg11.dtd">
<svg version="1.1" id="Calque_1" xmlns="http://www.w3.org/2000/svg" xmlns:xlink="http://www.w3.org/1999/xlink" x="0px" y="0px"
	 width="841.89px" height="595.28px" viewBox="0 0 841.89 595.28" enable-background="new 0 0 841.89 595.28" xml:space="preserve">
<circle fill="#9ACAEB" cx="425.743" cy="270.582" r="144.324"/>
<g>
	<path fill="#FFFFFF" d="M293.25,175.25c0,0,128.321-24.99,182.692-28.854c43.609,40.297,22.388,81.438,22.388,81.438
		s36.584,11.833,53.103,14.156c0,0-3.729,105.058-1.52,153.358L518,401c0,0-1.332,20.078-27,19.25c-12.42-0.828-18.75-11-18.75-11
		s-40.114,11.483-70.75,30.25c0,0-49.486-18.896-60.25-20c0,0-0.583-140.762-1-150.75C339.514,251.086,349.25,199,293.25,175.25z"/>
	<path fill="#00BD70" d="M340.405,420.607c9.771,0.844,61.741,20.586,61.741,20.586c6.526-4.055,50.65-27.578,80.793-32.369
		c30.143-4.791,67.623-12.826,67.623-12.826c-3.171-28.512,1.277-154.162,1.277-154.162c-8.974,5.672-33.403,6.413-51.33,10.431
		c-39.922,7.208-104.074,33.07-104.074,33.07l-57.196-18.899L340.405,420.607z"/>
	<g>
		<path fill="#009E5C" d="M551.488,242.079c-2.87,1.894-6.255,2.645-9.519,3.426c-3.299,0.73-6.628,1.279-9.96,1.8
			c-6.665,1.028-13.346,1.912-19.993,2.985c-6.655,1.034-13.243,2.415-19.836,3.816c-3.263,0.815-6.549,1.515-9.792,2.423
			c-3.25,0.876-6.506,1.725-9.729,2.696c-3.235,0.929-6.462,1.888-9.671,2.906c-3.222,0.98-6.424,2.021-9.622,3.073
			c-6.402,2.085-12.764,4.297-19.115,6.541c-12.68,4.53-25.291,9.294-37.766,14.34l-0.277,0.112l-0.284-0.095l-56.267-18.722
			l-0.716-0.238l0.042-0.771c0.257-4.562,0.282-9.191,0.176-13.787c-0.111-4.602-0.383-9.2-0.846-13.774
			c-0.948-9.13-2.557-18.255-5.767-26.785c-0.797-2.128-1.715-4.215-2.769-6.201c-1.065-2.065-2.23-3.902-3.558-5.771
			c-2.615-3.691-5.749-7.011-9.179-9.982c-3.442-2.959-7.193-5.568-11.149-7.818c-1.978-1.126-4.008-2.162-6.075-3.109
			c-2.058-0.931-4.204-1.815-6.288-2.483l-4.946-1.583l5.078-0.982c15.06-2.913,30.12-5.746,45.221-8.39l11.321-2
			c3.771-0.683,7.556-1.284,11.335-1.925l11.34-1.897c3.783-0.616,7.554-1.3,11.346-1.859l22.737-3.45
			c7.574-1.183,15.188-2.119,22.778-3.19l11.395-1.558c3.795-0.545,7.614-0.919,11.421-1.388l22.859-2.615l0.688-0.078l0.516,0.44
			c1.503,1.287,2.826,2.58,4.16,3.938c1.319,1.352,2.594,2.746,3.823,4.176c2.459,2.859,4.749,5.865,6.831,9.016
			c4.159,6.289,7.547,13.16,9.583,20.478c0.509,1.826,0.952,3.674,1.271,5.546c0.349,1.847,0.575,3.794,0.742,5.617
			c0.365,3.696,0.686,7.442,0.655,11.221c0.007,1.887-0.105,3.78-0.276,5.664c-0.213,1.882-0.462,3.764-0.884,5.612
			c-0.379,1.855-0.909,3.676-1.489,5.474c-0.3,0.896-0.646,1.775-0.968,2.662l-1.105,2.603l-0.524-1.208
			c4.312,1.551,8.672,3.012,13.031,4.455c4.358,1.448,8.739,2.834,13.141,4.14c4.401,1.312,8.825,2.549,13.289,3.622
			c1.116,0.275,2.23,0.549,3.354,0.781c1.122,0.234,2.237,0.508,3.368,0.709l3.385,0.612l3.861,0.528L551.488,242.079z
			 M550.84,242.047l-2.897-0.312l-3.418-0.518c-1.141-0.171-2.268-0.413-3.401-0.617c-1.136-0.201-2.261-0.444-3.389-0.687
			c-4.509-0.95-8.981-2.064-13.431-3.253c-8.906-2.368-17.72-5.04-26.464-7.981l-0.881-0.297l0.357-0.911l1-2.546
			c0.285-0.865,0.599-1.722,0.862-2.591c0.511-1.745,0.972-3.504,1.287-5.292c0.357-1.78,0.545-3.589,0.698-5.395
			c0.117-1.811,0.175-3.627,0.119-5.448c-0.076-3.642-0.486-7.288-0.891-10.966c-0.205-1.866-0.425-3.605-0.779-5.399
			c-0.324-1.781-0.766-3.54-1.272-5.278c-2.017-6.966-5.337-13.537-9.416-19.562c-2.04-3.017-4.285-5.9-6.69-8.636
			c-1.203-1.369-2.447-2.701-3.731-3.989c-1.275-1.276-2.627-2.558-3.954-3.668l1.203,0.362l-22.793,2.722
			c-3.797,0.466-7.605,0.837-11.395,1.38l-11.374,1.551c-7.581,1.066-15.178,1.996-22.743,3.175l-22.707,3.436
			c-3.789,0.546-7.563,1.188-11.346,1.778l-11.341,1.806c-3.779,0.61-7.564,1.181-11.336,1.835l-11.325,1.91
			c-7.555,1.251-15.095,2.581-22.634,3.918c-7.542,1.317-15.074,2.709-22.591,4.122l0.132-2.566c2.32,0.76,4.454,1.663,6.605,2.648
			c2.134,0.994,4.224,2.078,6.261,3.253c4.075,2.35,7.942,5.074,11.5,8.17c3.544,3.108,6.791,6.588,9.505,10.469
			c1.346,1.907,2.644,4.003,3.686,6.06c1.101,2.107,2.038,4.273,2.85,6.484c3.266,8.844,4.833,18.128,5.742,27.387
			c0.442,4.638,0.69,9.289,0.775,13.94c0.079,4.657,0.029,9.292-0.262,13.97l-0.673-1.009l56.15,19.07l-0.56,0.017
			c12.555-4.963,25.205-9.628,37.944-14.066c6.377-2.196,12.764-4.36,19.194-6.399c3.212-1.029,6.427-2.045,9.662-3.002
			c3.222-0.995,6.464-1.93,9.714-2.834c3.236-0.948,6.509-1.772,9.772-2.625c3.255-0.883,6.571-1.564,9.852-2.355
			c6.602-1.349,13.222-2.682,19.897-3.665c6.668-1.022,13.358-1.853,20.021-2.828c3.33-0.494,6.658-1.015,9.945-1.716
			C544.963,244.387,548.127,243.667,550.84,242.047z"/>
	</g>
	
		<linearGradient id="SVGID_1_" gradientUnits="userSpaceOnUse" x1="342.3252" y1="265.3833" x2="398.9785" y2="265.3833" gradientTransform="matrix(1 0.003 -0.003 1 0.7729 -1.0225)">
		<stop  offset="0.2746" style="stop-color:#FFFFFF;stop-opacity:0"/>
		<stop  offset="0.3286" style="stop-color:#FCFCFC;stop-opacity:0.1494"/>
		<stop  offset="0.3903" style="stop-color:#F2F2F2;stop-opacity:0.3203"/>
		<stop  offset="0.4558" style="stop-color:#E1E1E1;stop-opacity:0.5018"/>
		<stop  offset="0.5239" style="stop-color:#C9C9C8;stop-opacity:0.6906"/>
		<stop  offset="0.5935" style="stop-color:#A8A8A8;stop-opacity:0.8832"/>
		<stop  offset="0.6356" style="stop-color:#909090"/>
	</linearGradient>
	<polyline fill="url(#SVGID_1_)" points="342.303,265.14 375.823,257.853 398.956,265.311 366.418,273.095 	"/>
	
		<linearGradient id="SVGID_2_" gradientUnits="userSpaceOnUse" x1="366.4644" y1="275.2354" x2="421.6406" y2="275.2354" gradientTransform="matrix(1 0.003 -0.003 1 0.7729 -1.0225)">
		<stop  offset="0.2746" style="stop-color:#FFFFFF;stop-opacity:0"/>
		<stop  offset="0.3286" style="stop-color:#FCFCFC;stop-opacity:0.1494"/>
		<stop  offset="0.3903" style="stop-color:#F2F2F2;stop-opacity:0.3203"/>
		<stop  offset="0.4558" style="stop-color:#E1E1E1;stop-opacity:0.5018"/>
		<stop  offset="0.5239" style="stop-color:#C9C9C8;stop-opacity:0.6906"/>
		<stop  offset="0.5935" style="stop-color:#A8A8A8;stop-opacity:0.8832"/>
		<stop  offset="0.6356" style="stop-color:#909090"/>
	</linearGradient>
	<polyline fill="url(#SVGID_2_)" points="366.415,274.081 399.937,266.791 421.588,275.231 396.929,284.025 	"/>
	
		<linearGradient id="SVGID_3_" gradientUnits="userSpaceOnUse" x1="379.5186" y1="257.5024" x2="424.1035" y2="257.5024" gradientTransform="matrix(1 0.003 -0.003 1 0.7729 -1.0225)">
		<stop  offset="0.2746" style="stop-color:#FFFFFF;stop-opacity:0"/>
		<stop  offset="0.3286" style="stop-color:#FCFCFC;stop-opacity:0.1494"/>
		<stop  offset="0.3903" style="stop-color:#F2F2F2;stop-opacity:0.3203"/>
		<stop  offset="0.4558" style="stop-color:#E1E1E1;stop-opacity:0.5018"/>
		<stop  offset="0.5239" style="stop-color:#C9C9C8;stop-opacity:0.6906"/>
		<stop  offset="0.5935" style="stop-color:#A8A8A8;stop-opacity:0.8832"/>
		<stop  offset="0.6356" style="stop-color:#909090"/>
	</linearGradient>
	<polyline fill="url(#SVGID_3_)" points="379.52,257.125 404.665,250.55 424.105,257.256 400.188,264.823 	"/>
	
		<linearGradient id="SVGID_4_" gradientUnits="userSpaceOnUse" x1="401.6875" y1="265.999" x2="445.7793" y2="265.999" gradientTransform="matrix(1 0.003 -0.003 1 0.7729 -1.0225)">
		<stop  offset="0.2746" style="stop-color:#FFFFFF;stop-opacity:0"/>
		<stop  offset="0.3286" style="stop-color:#FCFCFC;stop-opacity:0.1494"/>
		<stop  offset="0.3903" style="stop-color:#F2F2F2;stop-opacity:0.3203"/>
		<stop  offset="0.4558" style="stop-color:#E1E1E1;stop-opacity:0.5018"/>
		<stop  offset="0.5239" style="stop-color:#C9C9C8;stop-opacity:0.6906"/>
		<stop  offset="0.5935" style="stop-color:#A8A8A8;stop-opacity:0.8832"/>
		<stop  offset="0.6356" style="stop-color:#909090"/>
	</linearGradient>
	<polyline fill="url(#SVGID_4_)" points="401.664,265.564 425.899,258.002 445.751,267.176 422.574,274.495 	"/>
	
		<linearGradient id="SVGID_5_" gradientUnits="userSpaceOnUse" x1="237.957" y1="100.7319" x2="281.5151" y2="100.7319" gradientTransform="matrix(-0.9995 0.0307 -0.0307 -0.9995 790.4355 335.3804)">
		<stop  offset="0.5635" style="stop-color:#909090"/>
		<stop  offset="1" style="stop-color:#FFFFFF;stop-opacity:0"/>
	</linearGradient>
	<polyline fill="url(#SVGID_5_)" points="549.524,242.611 525.862,247.957 505.929,241.986 522.693,237.601 	"/>
	
		<linearGradient id="SVGID_6_" gradientUnits="userSpaceOnUse" x1="264.8379" y1="109.0688" x2="306.625" y2="109.0688" gradientTransform="matrix(-0.9995 0.0307 -0.0307 -0.9995 790.4355 335.3804)">
		<stop  offset="0.5596" style="stop-color:#909090"/>
		<stop  offset="1" style="stop-color:#FFFFFF;stop-opacity:0"/>
	</linearGradient>
	<polyline fill="url(#SVGID_6_)" points="522.448,236.617 501.742,241.483 480.578,234.521 497.593,228.906 	"/>
	
		<linearGradient id="SVGID_7_" gradientUnits="userSpaceOnUse" x1="263.9902" y1="96.5801" x2="307.8096" y2="96.5801" gradientTransform="matrix(-0.9995 0.0307 -0.0307 -0.9995 790.4355 335.3804)">
		<stop  offset="0.4419" style="stop-color:#909090"/>
		<stop  offset="1" style="stop-color:#FFFFFF;stop-opacity:0"/>
	</linearGradient>
	<polyline fill="url(#SVGID_7_)" points="523.645,247.952 492.593,253.031 479.802,247.818 502.725,242.471 	"/>
	
		<linearGradient id="SVGID_8_" gradientUnits="userSpaceOnUse" x1="286.9316" y1="103.6387" x2="331.4248" y2="103.6387" gradientTransform="matrix(-0.9995 0.0307 -0.0307 -0.9995 790.4355 335.3804)">
		<stop  offset="0.471" style="stop-color:#909090"/>
		<stop  offset="1" style="stop-color:#FFFFFF;stop-opacity:0"/>
	</linearGradient>
	<polyline fill="url(#SVGID_8_)" points="500.509,241.97 476.845,247.81 455.932,239.865 479.594,234.763 	"/>
	
		<linearGradient id="SVGID_9_" gradientUnits="userSpaceOnUse" x1="407.1074" y1="252.8223" x2="491.3467" y2="252.8223" gradientTransform="matrix(1 0.003 -0.003 1 0.7729 -1.0225)">
		<stop  offset="0.1545" style="stop-color:#FFFFFF;stop-opacity:0"/>
		<stop  offset="0.2205" style="stop-color:#F4F4F4;stop-opacity:0.156"/>
		<stop  offset="0.3487" style="stop-color:#D6D6D6;stop-opacity:0.459"/>
		<stop  offset="0.5249" style="stop-color:#A2A2A1;stop-opacity:0.8754"/>
		<stop  offset="0.5776" style="stop-color:#909090"/>
	</linearGradient>
	<polyline fill="url(#SVGID_9_)" points="407.129,250.31 454.452,240.354 491.36,253.518 446.492,265.947 	"/>
	<path fill="#010202" d="M409.699,296.871c0,0,48.826-18.572,74.459-24.407c25.637-5.834,49.295-9.212,57.677-12.143l-0.524,10.344
		c0,0-43.872,9.229-60.633,12.625c-16.756,3.398-65.103,24.928-70.522,25.898L409.699,296.871z"/>
	<path fill="#010202" d="M313.014,175.883c0,0,116.817-21.324,158.699-23.66l5.402,5.928c-1.479,0.487-140.463,20.269-154.275,26.14
		C322.84,184.291,317.932,178.363,313.014,175.883z"/>
	<path fill="#009E5C" d="M366.411,278.49c0,0,1.022,9.053,2.556,22.631c0.375,3.396,0.782,7.074,1.211,10.966
		c0.207,1.944,0.418,3.945,0.635,5.989c0.105,1.021,0.211,2.053,0.318,3.096c0.062,1.051,0.126,2.109,0.19,3.18
		c0.246,4.281,0.501,8.705,0.759,13.199c0.235,4.498,0.575,9.082,0.729,13.648c0.095,4.561,0.189,9.121,0.283,13.609
		c0.128,4.492,0.207,8.912,0.18,13.191c-0.06,4.268-0.159,8.381-0.389,12.287c-0.104,1.951-0.204,3.852-0.301,5.688
		c-0.133,1.838-0.261,3.611-0.384,5.316c-0.243,3.408-0.555,6.531-0.829,9.301c-0.292,2.77-0.573,5.184-0.842,7.174
		c-0.522,3.979-0.941,6.252-0.941,6.252c-0.032,0.188-0.208,0.312-0.395,0.281c-0.146-0.025-0.255-0.146-0.281-0.285
		c0,0-0.369-2.275-0.804-6.262c-0.225-1.992-0.453-4.412-0.684-7.189c-0.213-2.777-0.457-5.912-0.625-9.33
		c-0.086-1.709-0.175-3.49-0.267-5.332c-0.057-1.844-0.115-3.75-0.176-5.707c-0.141-3.918-0.158-8.055-0.113-12.316
		c0.084-4.256,0.28-8.65,0.527-13.121c0.211-4.469,0.426-9.01,0.641-13.553c0.098-4.531,0.013-9.045,0.028-13.506
		c-0.007-4.461-0.015-8.85-0.022-13.1c-0.004-1.062-0.008-2.117-0.012-3.162c-0.049-1.047-0.097-2.084-0.146-3.109
		c-0.088-2.053-0.175-4.061-0.26-6.016c-0.152-3.908-0.296-7.606-0.429-11.018c-0.5-13.653-0.833-22.755-0.833-22.755
		c-0.006-0.187,0.14-0.343,0.326-0.35C366.24,278.182,366.391,278.317,366.411,278.49z"/>
	<path fill="#009E5C" d="M395.275,291.088c0,0,0.236,9.236,0.591,23.085c0.216,6.921,0.468,14.994,0.738,23.646
		c0.287,8.646,0.646,17.865,1.097,27.074c0.283,4.604,0.467,9.209,0.836,13.73c0.353,4.521,0.614,8.977,0.877,13.275
		c0.197,4.307,0.33,8.471,0.432,12.414c0.096,3.949,0.186,7.68,0.27,11.125c0.06,1.721,0.071,3.375,0.083,4.951
		c0.002,1.576,0.13,3.051,0.138,4.455c0.033,1.404,0.063,2.717,0.091,3.932c-0.003,1.223,0.026,2.336,0.1,3.338
		c0.204,4.018,0.207,6.373,0.207,6.373v0.023c0,0.188-0.151,0.342-0.339,0.342c-0.148,0-0.274-0.094-0.321-0.227
		c0,0-0.777-2.195-1.938-6.141c-0.646-1.969-1.083-4.391-1.719-7.174c-0.623-2.789-1.18-5.943-1.682-9.398
		c-0.252-1.73-0.515-3.531-0.787-5.395c-0.199-1.867-0.406-3.799-0.619-5.783c-0.474-3.971-0.727-8.166-0.939-12.508
		c-0.208-4.346-0.194-8.836-0.175-13.396c0.029-4.559,0.058-9.189,0.087-13.82c0.055-9.256,0.201-18.506,0.39-27.172
		c0.12-4.334,0.175-8.521,0.338-12.493c0.153-3.968,0.298-7.723,0.433-11.187c0.545-13.856,1.138-23.085,1.138-23.085
		c0.012-0.187,0.172-0.327,0.358-0.316C395.135,290.771,395.27,290.916,395.275,291.088z"/>
	<g>
		<path fill="#FFFFFF" d="M353.42,388.746l-5.234-5.402c0,0,6.753-11.639,19.504-10.842c11.417,0.717,17.317,11.322,17.317,11.322
			l-5.468,5.074c0,0-3.423-7.867-12.286-8.502C358.39,379.76,353.42,388.746,353.42,388.746z"/>
		<g>
			<path fill="#9ACAEB" d="M381.245,397.725c-0.512,9.197-7.603,16.23-15.83,15.715c-8.229-0.516-14.487-8.385-13.979-17.582
				c0.513-9.195,7.602-16.236,15.832-15.717C375.497,380.656,381.756,388.523,381.245,397.725z"/>
			<path fill="#FFFFFF" d="M365.388,413.955c-8.474-0.529-14.935-8.664-14.411-18.125c0.528-9.465,7.846-16.734,16.318-16.203
				c8.474,0.529,14.937,8.662,14.409,18.123C381.177,407.219,373.856,414.488,365.388,413.955z M367.237,380.656
				c-7.962-0.5-14.844,6.334-15.339,15.227c-0.494,8.9,5.582,16.547,13.546,17.045c7.963,0.496,14.845-6.34,15.339-15.236
				C381.278,388.795,375.202,381.154,367.237,380.656z"/>
		</g>
		<g>
			<path fill="#00BD70" d="M365.522,414.641c1.148-0.131,2.657-0.393,3.814-1.504c0.866-0.83,1.033-1.48,0.947-2.439
				c0,0-1.728-15.359-2.102-19.781c-0.314-3.736-0.248-5.068-2.32-6.074c-1.304-0.631-1.692-2.172-1.74-2.906
				c-0.033-0.516-0.251-2.689-0.36-3.971c-0.113-1.281-0.182-1.436-1.904-1.236l0.23-0.033c-1.723,0.201-1.765,0.367-1.656,1.65
				c0.111,1.281,0.316,3.455,0.362,3.971c0.061,0.717-0.104,2.285-1.244,3.246c-1.532,1.285-1.621,2.064-1.238,6.484
				c0.38,4.418,2.101,19.785,2.101,19.785c0.083,0.959,0.355,1.551,1.347,2.168c1.323,0.83,2.846,0.744,3.994,0.615"/>
			<path fill="#FFFFFF" d="M365.521,414.598c0.833-0.1,1.668-0.26,2.442-0.611c0.767-0.354,1.484-0.92,1.957-1.67
				c0.229-0.379,0.323-0.832,0.303-1.295c-0.004-0.225-0.033-0.453-0.063-0.691l-0.085-0.695l-0.321-2.791l-0.646-5.592
				l-0.629-5.584l-0.286-2.807c-0.094-0.934-0.201-1.861-0.274-2.801c-0.086-0.93-0.144-1.875-0.334-2.752
				c-0.102-0.436-0.247-0.846-0.48-1.189c-0.228-0.344-0.548-0.605-0.896-0.816c-0.088-0.051-0.179-0.1-0.268-0.15l-0.14-0.072
				l-0.15-0.074c-0.095-0.053-0.193-0.111-0.294-0.186c-0.105-0.066-0.188-0.146-0.28-0.225c-0.35-0.328-0.631-0.738-0.825-1.188
				c-0.197-0.457-0.325-0.93-0.37-1.439l-0.13-1.4l-0.27-2.793c-0.024-0.225-0.051-0.453-0.11-0.596
				c-0.03-0.074-0.061-0.105-0.102-0.137c-0.043-0.029-0.109-0.053-0.194-0.07c-0.347-0.045-0.78,0.018-1.189,0.062l-0.054-0.619
				l0.231-0.027l0.052,0.617c-0.409,0.057-0.84,0.104-1.17,0.23c-0.077,0.031-0.138,0.076-0.171,0.111
				c-0.031,0.043-0.048,0.07-0.067,0.146c-0.029,0.139-0.016,0.371,0.001,0.596l0.27,2.793l0.137,1.41
				c0.041,0.512-0.016,1.025-0.138,1.514c-0.122,0.502-0.333,0.977-0.615,1.391c-0.15,0.203-0.308,0.396-0.491,0.564
				c-0.184,0.174-0.333,0.289-0.484,0.439c-0.301,0.291-0.538,0.6-0.68,0.967c-0.142,0.365-0.199,0.789-0.216,1.236
				c-0.022,0.441-0.006,0.904,0.017,1.363c0.025,0.459,0.055,0.924,0.092,1.391c0.065,0.93,0.168,1.855,0.253,2.793l0.266,2.797
				l1.101,11.182l0.272,2.799l0.137,1.393c0.053,0.438,0.212,0.832,0.484,1.148c0.133,0.156,0.292,0.301,0.46,0.428
				c0.081,0.061,0.175,0.121,0.254,0.174c0.092,0.059,0.184,0.119,0.277,0.168c0.358,0.199,0.757,0.34,1.157,0.434
				c0.811,0.189,1.655,0.172,2.491,0.102l0.007,0.08c-0.832,0.121-1.689,0.188-2.531,0.035c-0.423-0.08-0.834-0.201-1.239-0.4
				c-0.1-0.047-0.188-0.096-0.287-0.148c-0.099-0.066-0.19-0.119-0.284-0.186c-0.182-0.127-0.364-0.268-0.525-0.445
				c-0.332-0.336-0.54-0.836-0.613-1.32l-0.18-1.4L359.75,408l-0.342-2.787l-0.325-2.791l-0.641-5.59l-0.289-2.795
				c-0.089-0.93-0.196-1.867-0.27-2.807c-0.073-0.936-0.15-1.877-0.107-2.863c0.028-0.494,0.091-1.012,0.29-1.512
				c0.196-0.502,0.531-0.916,0.868-1.236c0.166-0.162,0.362-0.316,0.5-0.445c0.149-0.125,0.272-0.279,0.394-0.441
				c0.23-0.33,0.406-0.707,0.515-1.121c0.108-0.408,0.156-0.842,0.128-1.264l-0.119-1.398l-0.232-2.801
				c-0.013-0.25-0.041-0.49,0.021-0.801c0.03-0.16,0.113-0.342,0.237-0.469c0.121-0.119,0.25-0.193,0.37-0.24
				c0.239-0.096,0.457-0.135,0.671-0.166c0.217-0.035,0.43-0.061,0.642-0.084l0.052,0.617l-0.229,0.029l-0.054-0.619
				c0.212-0.021,0.425-0.041,0.642-0.051c0.217-0.014,0.438-0.021,0.686,0.016c0.125,0.021,0.261,0.061,0.396,0.152
				c0.137,0.096,0.245,0.254,0.301,0.395c0.109,0.295,0.118,0.537,0.148,0.781l0.241,2.805l0.12,1.412
				c0.031,0.422,0.14,0.859,0.307,1.252c0.168,0.395,0.408,0.746,0.697,1.027c0.078,0.059,0.15,0.135,0.229,0.188l0.116,0.082
				c0.039,0.025,0.09,0.049,0.134,0.076l0.136,0.076l0.146,0.074c0.098,0.053,0.196,0.107,0.292,0.168
				c0.383,0.236,0.757,0.549,1.028,0.961c0.274,0.41,0.434,0.891,0.539,1.363c0.191,0.945,0.24,1.889,0.318,2.826
				c0.061,0.936,0.164,1.867,0.247,2.801l0.26,2.799l0.562,5.598l0.582,5.596l0.296,2.797l0.074,0.697
				c0.025,0.23,0.054,0.471,0.056,0.713c0.017,0.475-0.095,0.986-0.348,1.385c-0.509,0.787-1.243,1.336-2.033,1.688
				c-0.791,0.352-1.64,0.496-2.476,0.588L365.521,414.598z"/>
		</g>
		<g>
			<path fill="#FFFFFF" d="M361.705,410.09c0.064,1.633,1.3,2.881,2.759,2.801c1.459-0.086,2.586-1.475,2.521-3.098
				c-0.065-1.629-1.301-2.883-2.758-2.799C362.765,407.074,361.639,408.465,361.705,410.09z"/>
			<path fill="#2AA137" stroke="#FFFFFF" stroke-width="0.5" stroke-miterlimit="10" d="M363.415,407.168"/>
			<path fill="#00BD70" d="M362.659,412.018c0.455,0.488,1.094,0.783,1.812,0.742c1.391-0.08,2.464-1.408,2.4-2.957
				c-0.063-1.557-1.244-2.75-2.633-2.672c-0.273,0.018-0.529,0.078-0.77,0.182c0,0,0.792-0.369,1.724,0.193
				c0.958,0.58,1.513,1.584,0.827,3.039c-0.548,1.287-1.749,1.287-1.749,1.287s-0.004,0.305,0,0.4
				c0.005,0.104-0.078,0.119-0.24,0.062c-0.162-0.055-0.764-0.432-1.241-1.062c-0.117-0.162-0.159-0.188-0.001-0.459
				c0.114-0.223,0.565-0.875,1.12-1.072c0.287-0.133,0.212,0.059,0.222,0.123c0.012,0.066,0.025,0.348,0.025,0.348
				s0.848-0.133,1.354-1.072c0.141-0.271,0.144-0.316-0.025-0.574c-0.099-0.158-0.508-0.691-1.262-1.037
				c-0.203-0.088-0.179,0.115-0.178,0.164c0.006,0.084,0.011,0.33,0.011,0.33s-0.736,0.02-1.359,0.768
				c-0.647,0.777-0.683,1.451-0.653,1.887C362.084,411.166,362.404,411.746,362.659,412.018z"/>
		</g>
		<g>
			<g>
				<path fill="#00BD70" d="M352.854,384.527l1.294,1.393l-0.752,0.875l-3.625-3.893l1.253-1.453
					c0.668-0.781,1.348-0.793,2.039-0.051l0.258,0.275c0.691,0.744,0.703,1.498,0.035,2.277L352.854,384.527z M351.302,382.861
					l0.774,0.834l0.502-0.578c0.166-0.199,0.163-0.387-0.008-0.572l-0.259-0.277c-0.176-0.184-0.345-0.18-0.512,0.01
					L351.302,382.861z"/>
			</g>
			<g>
				<path fill="#00BD70" d="M353.915,378.625l3.03,4.482l-0.864,0.736l-3.027-4.49L353.915,378.625z"/>
			</g>
			<g>
				<path fill="#00BD70" d="M355.634,379.146c-0.453-0.943-0.255-1.672,0.592-2.182l0.319-0.191
					c0.844-0.518,1.498-0.299,1.951,0.645l0.171,0.352l-0.955,0.58l-0.171-0.357c-0.112-0.234-0.276-0.289-0.487-0.158l-0.319,0.188
					c-0.212,0.131-0.259,0.312-0.148,0.545l1.021,2.127c0.114,0.234,0.276,0.289,0.487,0.162l0.319-0.195
					c0.212-0.127,0.262-0.305,0.148-0.547l-0.171-0.354l0.955-0.57l0.169,0.35c0.453,0.945,0.257,1.672-0.592,2.184l-0.315,0.191
					c-0.849,0.516-1.499,0.297-1.954-0.645L355.634,379.146z"/>
			</g>
			<g>
				<path fill="#00BD70" d="M360.176,374.428c0.042-0.018,0.072,0.029,0.07,0.068l-0.067,1.502
					c-0.001,0.033-0.018,0.062-0.045,0.074l-0.661,0.256c-0.031,0.012-0.065,0-0.07-0.033l-0.156-1.436
					c-0.004-0.037,0.004-0.062,0.038-0.078L360.176,374.428z"/>
			</g>
			<g>
				<path fill="#00BD70" d="M365.168,379.5l-1.253-5.586l1.08-0.047l0.837,3.717l0.606-3.779l1.078-0.053l-0.905,5.678
					L365.168,379.5z"/>
			</g>
			<g>
				<path fill="#00BD70" d="M372.179,374.648l-0.234,1.178l-2.112-0.51l-0.192,0.982l1.757,0.422l-0.236,1.182l-1.757-0.422
					l-0.196,0.986l2.111,0.504l-0.237,1.184l-3.162-0.766l1.091-5.508L372.179,374.648z"/>
			</g>
			<g>
				<path fill="#00BD70" d="M373.264,378.963l-0.772,1.826l-0.978-0.512l2.162-5.105l1.63,0.844
					c0.864,0.457,1.093,1.172,0.681,2.145l-0.152,0.367c-0.159,0.373-0.351,0.643-0.58,0.805c0.034,0.301-0.031,0.641-0.19,1.02
					l-0.616,1.455l-0.978-0.51l0.617-1.459c0.103-0.244,0.045-0.422-0.172-0.535L373.264,378.963z M374.379,378.209
					c0.215,0.113,0.376,0.047,0.479-0.195l0.151-0.365c0.107-0.24,0.049-0.422-0.168-0.533l-0.653-0.338l-0.463,1.096
					L374.379,378.209z"/>
			</g>
			<g>
				<path fill="#00BD70" d="M376.813,381.154l-1.09,1.605l-0.861-0.717l3.049-4.512l1.436,1.203c0.768,0.643,0.86,1.398,0.279,2.258
					l-0.219,0.32c-0.228,0.33-0.466,0.551-0.715,0.658c-0.025,0.301-0.148,0.619-0.373,0.953l-0.872,1.287l-0.863-0.721l0.87-1.291
					c0.146-0.219,0.126-0.404-0.067-0.564L376.813,381.154z M378.042,380.664c0.188,0.164,0.355,0.135,0.503-0.076l0.216-0.32
					c0.148-0.215,0.127-0.404-0.067-0.568l-0.575-0.479l-0.654,0.967L378.042,380.664z"/>
			</g>
			<g>
				<path fill="#00BD70" d="M383.748,383.543l-0.819,0.797l-1.414-1.82l-0.68,0.662l1.177,1.518l-0.816,0.793l-1.179-1.516
					l-0.685,0.66l1.417,1.822l-0.822,0.793l-2.12-2.729l3.82-3.711L383.748,383.543z"/>
			</g>
		</g>
		<g>
			<path fill="#FFFFFF" d="M354.686,402.533c0.035,0.047,0.08,0.129,0.117,0.211c0.054,0.121,0.067,0.205,0.052,0.287
				c-0.011,0.066-0.046,0.123-0.113,0.16c-0.077,0.045-0.18,0.027-0.251-0.051h-0.002c0.018,0.1,0,0.236-0.123,0.311
				c-0.073,0.041-0.144,0.037-0.205,0.018c-0.083-0.041-0.155-0.123-0.223-0.277c-0.035-0.088-0.06-0.154-0.073-0.197
				L354.686,402.533z M353.999,403.072c0.007,0.025,0.021,0.059,0.041,0.1c0.055,0.127,0.146,0.219,0.27,0.15
				c0.114-0.064,0.113-0.199,0.053-0.33l-0.045-0.102L353.999,403.072z M354.399,402.848l0.048,0.109
				c0.057,0.123,0.147,0.166,0.232,0.119c0.096-0.053,0.096-0.158,0.042-0.281c-0.023-0.057-0.042-0.084-0.054-0.098
				L354.399,402.848z"/>
			<path fill="#FFFFFF" d="M355.017,404.283c-0.281,0.174-0.522,0.078-0.639-0.152c-0.121-0.234-0.041-0.51,0.209-0.664
				c0.254-0.168,0.513-0.096,0.633,0.146C355.347,403.861,355.257,404.129,355.017,404.283z M354.65,403.584
				c-0.174,0.115-0.277,0.318-0.186,0.5c0.095,0.186,0.3,0.193,0.486,0.074c0.161-0.102,0.279-0.301,0.184-0.496
				C355.035,403.469,354.828,403.477,354.65,403.584z"/>
			<path fill="#FFFFFF" d="M355.482,404.172c0.041,0.043,0.097,0.123,0.139,0.199c0.07,0.125,0.094,0.217,0.081,0.299
				c-0.009,0.076-0.049,0.135-0.111,0.182c-0.104,0.074-0.213,0.049-0.295-0.021h-0.001c0.016,0.084-0.019,0.162-0.09,0.244
				c-0.095,0.104-0.156,0.182-0.177,0.217l-0.065-0.113c0.013-0.031,0.069-0.098,0.155-0.193c0.095-0.105,0.109-0.18,0.051-0.287
				l-0.06-0.105l-0.342,0.246l-0.063-0.117L355.482,404.172z M355.186,404.539l0.068,0.113c0.069,0.121,0.17,0.156,0.261,0.094
				c0.101-0.076,0.102-0.189,0.033-0.311c-0.032-0.055-0.058-0.09-0.072-0.104L355.186,404.539z"/>
			<path fill="#FFFFFF" d="M355.87,404.852c0.053,0.057,0.108,0.131,0.164,0.215c0.099,0.158,0.138,0.297,0.121,0.42
				c-0.013,0.125-0.074,0.238-0.198,0.336c-0.123,0.102-0.254,0.139-0.374,0.117c-0.12-0.025-0.241-0.127-0.346-0.295
				c-0.05-0.07-0.086-0.143-0.118-0.197L355.87,404.852z M355.265,405.492c0.013,0.029,0.039,0.072,0.064,0.115
				c0.151,0.232,0.348,0.268,0.555,0.107c0.18-0.145,0.22-0.35,0.077-0.58c-0.037-0.053-0.068-0.094-0.093-0.117L355.265,405.492z"
				/>
			<path fill="#FFFFFF" d="M356.314,406.428l-0.225-0.32l-0.264,0.227l0.246,0.359l-0.078,0.074l-0.324-0.461l0.742-0.652
				l0.307,0.449l-0.08,0.068l-0.235-0.34l-0.233,0.205l0.223,0.318L356.314,406.428z"/>
			<path fill="#FFFFFF" d="M356.428,406.842l-0.288,0.129l-0.081-0.107l0.915-0.408l0.094,0.121l-0.503,0.945l-0.083-0.109
				l0.157-0.293L356.428,406.842z M356.698,407.031l0.144-0.277c0.034-0.061,0.067-0.113,0.102-0.166h-0.004
				c-0.052,0.027-0.103,0.057-0.162,0.084l-0.264,0.117L356.698,407.031z"/>
			<path fill="#FFFFFF" d="M357.412,407.012l-0.401,0.424c-0.155,0.16-0.157,0.303-0.071,0.404c0.092,0.113,0.219,0.113,0.369-0.043
				l0.407-0.42l0.083,0.098l-0.398,0.416c-0.21,0.219-0.396,0.186-0.537,0.02c-0.129-0.158-0.148-0.354,0.065-0.574l0.403-0.422
				L357.412,407.012z"/>
			<path fill="#FFFFFF" d="M357.646,408.775l0.058-0.256c0.021-0.105,0.037-0.17,0.054-0.232l-0.002-0.004
				c-0.057,0.023-0.109,0.043-0.202,0.068l-0.226,0.078l-0.098-0.107l0.536-0.154l0.129-0.582l0.099,0.109l-0.063,0.27
				c-0.021,0.074-0.036,0.135-0.052,0.191l0.002,0.008c0.059-0.025,0.107-0.045,0.172-0.064l0.244-0.074l0.099,0.107l-0.521,0.141
				l-0.129,0.609L357.646,408.775z"/>
		</g>
		<polygon fill="#FFFFFF" points="367.62,382.371 366.597,387.393 371.04,387.52 366.76,388.529 369.366,394.701 365.809,388.91 
			356.755,394.154 365.128,387.768 361.924,384.258 365.753,387.205 		"/>
		<g>
			<path fill="#00BD70" d="M376.872,424.969c0,0,0.205-1.816,0.28-2.629c0.079-0.898,0.014-3.752-0.019-4.748
				c-0.023-0.705-0.232-2.396-0.317-3.018c-0.083-0.615-0.171-1.107-0.238-1.656c-0.033-0.275-0.054-0.535-0.07-0.781
				c0.552,1.879,1.753,3.311,1.753,3.311c-0.498-1.676-0.536-4.01-0.536-4.01l0,0c0.062,0.074,0.121,0.15,0.182,0.225
				c0.147,0.186,0.297,0.369,0.452,0.543c0.457,0.527,0.869,0.904,1.553,1.42l1.404,1.012c0,0-1.613-1.955-2.188-3.668
				c-1.145-3.383,2.285-7.623,1.601-10.797c-0.203-0.945-1.286-1.852-0.629-2.648c0.547-0.666,4.621-1.855,4.621-1.855
				s-1.031-0.186-1.718-0.279c-0.562-0.074-1.222-0.26-1.222-0.26s1.015-0.172,1.402-0.242c1.157-0.176,3.122-1.18,3.122-1.18
				s-1.341,0.289-2.84,0.25c-0.297-0.01-0.787-0.074-1.057-0.141c0,0,1.546-0.109,2.128-0.277c2.278-0.527,3.234-2.156,3.234-2.156
				s-0.738,0.605-1.61,0.818c-0.952,0.221-2.009,0.25-2.54,0.182c-2.705-0.295-3.78-2.08-5.986-2.193
				c-0.895,0.01-1.894,0.73-2.582,1.463l-5.894-0.953c0,0,5.911,4.625,6.224,4.902c0.314,0.271,0.228,0.627-0.386,1.145
				c-0.263,0.221-2.366,1.869-3.154,4.098c-0.142,0.369-0.663,0.379-1.215,0.152c-0.74-0.252-1.009-0.43-1.278-0.543l0.028,0.674
				c0,0,1.135,0.578,1.445,0.773c0.325,0.199,0.619,0.562,0.688,0.947c-0.061,0.078-0.156,0.252-0.238,0.363
				c-0.046,0.057-0.085,0.131-0.11,0.199l-0.052-0.029l-0.329-0.182c-0.11-0.055-0.227-0.133-0.34-0.201
				c0,0-1.464-0.707-1.589-1.061c-0.128-0.354-0.713-1.688-1.701-2.602c0,0,0.56,2.074,0.617,2.178c0,0-1.589-0.254-2.812-0.244
				l-0.241,0.014c0,0,0.683,0.418,1.379,0.656c0.676,0.23,1.128,0.367,1.128,0.367l-1.763,1.684c0,0,1.455-0.221,2.869-0.906
				c0.23-0.197,0.392-0.064,0.536-0.008c0.119,0.053,2.125,1.188,2.125,1.188l0.285,0.154c0.061,0.174,0.163,0.348,0.298,0.465
				c0.142,0.135,0.737,0.492,0.876,0.598c0.138,0.107,0.247,0.229,0.352,0.369c0.201,0.285,0.341,0.619,0.437,0.98
				c0.182,0.707,0.192,1.471,0.117,2.217c-0.076,0.748-0.235,1.484-0.429,2.213c-0.203,0.725-0.432,1.432-0.683,2.137
				c-0.25,0.709-0.525,1.402-0.764,2.127c-0.211,0.635-0.405,1.361-0.556,2.215c-0.136,0.752-0.226,1.51-0.301,2.268l-0.04,0.385
				l0.24-0.279c0.132-0.154,0.261-0.314,0.378-0.488c0.118-0.172,0.229-0.346,0.331-0.527c0.205-0.361,0.381-0.734,0.543-1.121
				c0.128-0.34,0.184-0.438,0.494-1.385c0,0-0.08,0.654-0.139,1.504c-0.028,0.424-0.071,0.85-0.072,1.277
				c-0.005,0.656,0.072,2.051,0.072,2.051s0.448-1.59,0.575-2.018l0.603-1.918c0.071-0.213,0.289-0.855,0.364-1.062
				c-0.036,0.334-0.077,1.613-0.076,2.113c-0.006,0.504,0.028,2.006,0.039,2.254l0.027,0.75l0.021,0.596
				c0,0,0.592-1.592,0.762-2.123c0.311-0.941,0.645-2.039,0.645-2.039c-0.003,0.736,0.25,2.51,0.307,2.809
				c0.109,0.592,0.543,2.346,0.631,2.633C376.409,423.707,376.872,424.969,376.872,424.969z"/>
			<path fill="#FFFFFF" d="M376.991,425.979l-0.332-0.912c-0.02-0.049-0.468-1.275-0.549-1.57c-0.087-0.279-0.526-2.057-0.639-2.666
				c-0.037-0.189-0.144-0.914-0.223-1.623c-0.09,0.289-0.191,0.602-0.287,0.895c-0.171,0.527-0.739,2.064-0.764,2.133l-0.401,1.084
				l-0.093-2.514c-0.003-0.225-0.043-1.748-0.037-2.268c-0.001-0.125,0.002-0.293,0.005-0.48l-0.445,1.432
				c-0.128,0.418-0.573,1.99-0.578,2.01l-0.377,1.336l-0.072-1.395c-0.004-0.057-0.076-1.412-0.074-2.068
				c0.003-0.34,0.027-0.684,0.053-1.01l0.004-0.043c-0.15,0.34-0.301,0.637-0.458,0.914c-0.098,0.182-0.215,0.367-0.341,0.545
				c-0.109,0.162-0.239,0.326-0.396,0.506l-0.708,0.838l0.109-1.141c0.096-0.93,0.191-1.635,0.31-2.295
				c0.139-0.775,0.322-1.508,0.567-2.248c0.147-0.463,0.318-0.916,0.483-1.363c0.093-0.256,0.187-0.514,0.28-0.77
				c0.268-0.748,0.485-1.443,0.674-2.121c0.222-0.828,0.355-1.508,0.42-2.162c0.083-0.82,0.048-1.516-0.109-2.123
				c-0.1-0.357-0.229-0.656-0.397-0.891c-0.096-0.129-0.189-0.23-0.3-0.316c-0.048-0.037-0.157-0.104-0.284-0.184
				c-0.296-0.189-0.512-0.332-0.61-0.422c-0.136-0.121-0.248-0.285-0.331-0.479l-0.203-0.111c-0.761-0.434-2.005-1.129-2.109-1.174
				c-0.022-0.01-0.05-0.027-0.073-0.037c-0.048-0.023-0.095-0.045-0.131-0.045c-0.014-0.004-0.05-0.004-0.114,0.047l-0.048,0.035
				c-1.427,0.693-2.863,0.914-2.925,0.924l-0.773,0.115l2.027-1.938c-0.188-0.061-0.434-0.137-0.716-0.236
				c-0.719-0.244-1.398-0.66-1.426-0.674l-0.709-0.438l1.053-0.066c0.265,0,0.551,0.01,0.862,0.031
				c0.624,0.041,1.241,0.107,1.62,0.166c-0.092-0.316-0.245-0.861-0.496-1.803l-0.226-0.814l0.591,0.543
				c1.176,1.09,1.763,2.693,1.769,2.707c0.087,0.17,0.828,0.611,1.468,0.92c0.054,0.035,0.096,0.061,0.138,0.088
				c0.068,0.039,0.137,0.08,0.206,0.115l0.197,0.113c0.006-0.01,0.014-0.021,0.021-0.033c0.044-0.055,0.089-0.133,0.128-0.195
				c0.01-0.02,0.022-0.037,0.032-0.057c-0.081-0.248-0.29-0.504-0.549-0.668c-0.297-0.186-1.415-0.752-1.426-0.758l-0.128-0.066
				l-0.054-1.225l0.327,0.139c0.09,0.037,0.174,0.078,0.274,0.127c0.218,0.102,0.494,0.236,0.995,0.412
				c0.199,0.078,0.382,0.125,0.535,0.135c0.102,0.006,0.342,0.004,0.4-0.145c0.496-1.4,1.624-2.881,3.172-4.162l0.051-0.043
				c0.44-0.367,0.473-0.549,0.471-0.594c0.001-0.039-0.025-0.086-0.085-0.135c-0.246-0.223-4.173-3.303-6.216-4.9l-0.793-0.617
				l6.742,1.092c0.42-0.428,1.527-1.434,2.66-1.451l0.058,0.002c1.104,0.07,1.923,0.535,2.793,1.021
				c0.894,0.504,1.818,1.025,3.158,1.17c0.075,0.006,0.152,0.012,0.235,0.021c0.508,0.033,1.398-0.004,2.239-0.197
				c0.811-0.197,1.51-0.771,1.517-0.777l1.026-0.844l-0.697,1.195c-0.035,0.061-0.863,1.443-2.78,2.094
				c0.639-0.066,1.075-0.16,1.082-0.16l1.896-0.406l-1.758,0.896c-0.085,0.037-2.01,1.014-3.187,1.193
				c-0.015,0.004-0.037,0.006-0.055,0.01c0.674,0.094,1.59,0.258,1.601,0.266l1.081,0.186l-1.063,0.312
				c-1.548,0.453-4.143,1.34-4.512,1.781c-0.279,0.342-0.143,0.68,0.237,1.371c0.183,0.324,0.372,0.67,0.452,1.039
				c0.335,1.559-0.247,3.277-0.862,5.102c-0.655,1.943-1.333,3.957-0.75,5.67c0.554,1.643,2.128,3.562,2.143,3.582l1.219,1.479
				l-2.919-2.094c-0.694-0.523-1.126-0.92-1.594-1.457c-0.068-0.078-0.14-0.154-0.205-0.238c0.05,0.809,0.175,2.162,0.494,3.219
				l0.33,1.115l-0.72-0.855c-0.034-0.043-0.61-0.73-1.147-1.783c0.032,0.217,0.066,0.445,0.099,0.693
				c0.091,0.652,0.297,2.334,0.322,3.045c0.028,0.943,0.099,3.85,0.014,4.781c-0.073,0.809-0.278,2.619-0.279,2.641L376.991,425.979
				z M375.626,416.412l-0.004,1.562c-0.002,0.703,0.241,2.443,0.299,2.748c0.107,0.596,0.541,2.332,0.626,2.607
				c0.029,0.105,0.111,0.346,0.208,0.617c0.058-0.561,0.13-1.227,0.167-1.637c0.076-0.828,0.022-3.531-0.017-4.707
				c-0.026-0.648-0.219-2.264-0.317-2.986c-0.037-0.283-0.078-0.539-0.113-0.785c-0.046-0.297-0.092-0.576-0.129-0.879
				c-0.034-0.283-0.052-0.543-0.07-0.791l-0.152-2.156l0.603,2.049c0.265,0.898,0.684,1.695,1.042,2.271
				c-0.246-1.412-0.273-2.811-0.274-2.885l-0.008-0.707l0.416,0.535c0.059,0.072,0.114,0.146,0.177,0.219
				c0.132,0.164,0.285,0.359,0.446,0.535c0.453,0.523,0.85,0.883,1.519,1.389l0.164,0.119c-0.47-0.707-1.007-1.609-1.295-2.471
				c-0.643-1.893,0.068-3.996,0.753-6.031c0.588-1.748,1.143-3.395,0.842-4.801c-0.062-0.289-0.233-0.594-0.394-0.889
				c-0.326-0.598-0.729-1.322-0.185-1.986c0.409-0.502,2.407-1.201,3.686-1.611c-0.221-0.041-0.445-0.07-0.64-0.094
				c-0.569-0.078-1.219-0.26-1.249-0.27l-1.106-0.316l1.131-0.189c0,0,1.013-0.17,1.397-0.238c0.422-0.07,0.961-0.246,1.469-0.449
				c-0.36,0.025-0.751,0.037-1.158,0.025c-0.04,0-0.08-0.004-0.126-0.008c-0.285-0.018-0.708-0.066-0.976-0.137l-1.566-0.396
				l1.606-0.111c0.014-0.004,1.53-0.107,2.083-0.268c0.847-0.195,1.506-0.553,1.993-0.91c-0.085,0.029-0.174,0.053-0.261,0.072
				c-0.889,0.205-1.829,0.242-2.363,0.205c-0.093-0.006-0.18-0.016-0.256-0.023c-1.422-0.15-2.43-0.719-3.318-1.217
				c-0.826-0.467-1.604-0.904-2.611-0.969h-0.042c-0.82,0.012-1.786,0.719-2.411,1.393l-0.083,0.084l-5.043-0.814
				c1.633,1.271,5.194,4.068,5.44,4.289c0.219,0.186,0.266,0.404,0.266,0.545c-0.005,0.311-0.213,0.627-0.659,1.004l-0.054,0.043
				c-1.48,1.223-2.554,2.625-3.023,3.943c-0.072,0.191-0.277,0.5-0.852,0.463c-0.196-0.012-0.424-0.062-0.655-0.152
				c-0.456-0.158-0.739-0.291-0.952-0.395l0.004,0.107c0.307,0.156,1.08,0.555,1.334,0.713c0.411,0.26,0.729,0.695,0.802,1.117
				l0.021,0.121l-0.07,0.094c-0.021,0.033-0.051,0.076-0.08,0.131c-0.051,0.076-0.104,0.174-0.163,0.242
				c-0.028,0.041-0.054,0.09-0.069,0.125l-0.093,0.264l-0.608-0.334c-0.066-0.037-0.145-0.082-0.227-0.137
				c-0.039-0.023-0.076-0.049-0.115-0.066c-0.562-0.271-1.554-0.805-1.694-1.191c-0.002-0.01-0.334-0.916-0.995-1.793
				c0.161,0.59,0.297,1.072,0.331,1.145l0.265,0.479l-0.503-0.096c-0.011-0.004-0.958-0.152-1.938-0.217
				c0.122,0.049,0.241,0.1,0.363,0.137c0.67,0.229,1.124,0.365,1.124,0.365l0.417,0.131l-1.429,1.365
				c0.529-0.135,1.24-0.354,1.94-0.691c0.126-0.102,0.258-0.145,0.393-0.139c0.116,0.006,0.209,0.053,0.284,0.088
				c0.018,0.01,0.037,0.018,0.055,0.027c0.123,0.047,1.678,0.924,2.152,1.195l0.359,0.193l0.03,0.096
				c0.054,0.148,0.133,0.279,0.228,0.361c0.079,0.072,0.363,0.258,0.551,0.375c0.138,0.092,0.256,0.17,0.314,0.207
				c0.145,0.113,0.272,0.246,0.4,0.416c0.204,0.287,0.362,0.645,0.479,1.068c0.174,0.68,0.215,1.438,0.125,2.324
				c-0.067,0.684-0.207,1.4-0.441,2.25c-0.19,0.699-0.415,1.408-0.684,2.17c-0.092,0.256-0.189,0.518-0.284,0.773
				c-0.162,0.439-0.328,0.891-0.476,1.342c-0.234,0.715-0.415,1.43-0.549,2.182c-0.101,0.545-0.18,1.129-0.259,1.852
				c0.045-0.061,0.089-0.119,0.127-0.176c0.119-0.172,0.226-0.336,0.318-0.506c0.186-0.324,0.358-0.686,0.531-1.1l0.07-0.176
				c0.085-0.225,0.169-0.438,0.413-1.184l0.719-2.182l-0.274,2.305c0,0.006-0.076,0.656-0.134,1.49l-0.023,0.277
				c-0.024,0.322-0.048,0.654-0.05,0.979c0,0.162,0.004,0.379,0.012,0.605c0.078-0.271,0.148-0.521,0.188-0.656l0.601-1.914
				c0.072-0.219,0.295-0.863,0.371-1.078l0.674-1.904l-0.23,2.027c-0.036,0.316-0.075,1.59-0.077,2.086
				c-0.006,0.482,0.032,1.955,0.041,2.246l0.005,0.16c0.142-0.398,0.284-0.801,0.358-1.012c0.302-0.934,0.639-2.027,0.643-2.039
				L375.626,416.412z"/>
		</g>
		<path fill="#FFFFFF" d="M378.219,393.195c-0.147,0.924-0.697,1.59-1.228,1.486c-0.529-0.098-0.84-0.926-0.696-1.848
			c0.145-0.928,0.694-1.596,1.225-1.492C378.05,391.441,378.363,392.275,378.219,393.195z"/>
		<path fill="#00BD70" d="M377.35,392.635c0.007-0.547-0.701-0.688-0.842,0.076c-0.261,1.41,0.295,1.484,0.49,1.451
			c0.378-0.078,0.423-0.791,0.432-1.033l-0.606-0.262L377.35,392.635z"/>
	</g>
	<g>
		<path fill="#FFFFFF" d="M465.975,359.82l-5.619-3.654c0,0,6.425-14.262,19.564-17.973c11.76-3.322,18.293,5.406,18.293,5.406
			l-5.396,7.113c0,0-3.87-6.811-12.999-4.312C470.682,348.891,465.975,359.82,465.975,359.82z"/>
		<g>
			<path fill="#9ACAEB" d="M494.958,359.104c-0.117,9.564-7.092,19.256-15.567,21.65c-8.481,2.393-15.258-3.418-15.14-12.977
				c0.119-9.561,7.09-19.254,15.568-21.645C488.302,343.74,495.076,349.549,494.958,359.104z"/>
			<path fill="#FFFFFF" d="M479.383,381.291c-8.728,2.461-15.731-3.541-15.606-13.379c0.125-9.842,7.322-19.854,16.052-22.316
				c8.725-2.465,15.727,3.535,15.604,13.375C495.312,368.811,488.11,378.822,479.383,381.291z M479.812,346.664
				c-8.203,2.318-14.973,11.732-15.087,20.98c-0.115,9.252,6.464,14.891,14.671,12.574c8.203-2.32,14.973-11.727,15.085-20.979
				C494.599,349.992,488.019,344.35,479.812,346.664z"/>
		</g>
		<g>
			<path fill="#00BD70" d="M479.555,381.936c1.175-0.537,2.711-1.342,3.85-2.883c0.854-1.156,0.995-1.873,0.868-2.822
				c0,0-2.457-15.057-3.036-19.436c-0.489-3.695-0.479-5.086-2.654-5.373c-1.364-0.18-1.834-1.613-1.913-2.342
				c-0.058-0.51-0.378-2.656-0.549-3.924c-0.17-1.268-0.251-1.395-2.011-0.586l0.235-0.111c-1.762,0.812-1.798,1-1.63,2.268
				c0.172,1.266,0.479,3.416,0.547,3.92c0.1,0.711-0.006,2.371-1.135,3.758c-1.515,1.85-1.574,2.676-0.984,7.047
				c0.587,4.373,3.034,19.432,3.034,19.432c0.125,0.955,0.434,1.463,1.479,1.74c1.4,0.375,2.96-0.254,4.135-0.793"/>
			<path fill="#FFFFFF" d="M479.551,381.895c0.849-0.395,1.701-0.854,2.479-1.494c0.771-0.627,1.486-1.457,1.938-2.393
				c0.219-0.469,0.296-0.965,0.254-1.424c-0.014-0.232-0.06-0.455-0.096-0.688l-0.115-0.678l-0.458-2.736l-0.91-5.469l-0.894-5.477
				l-0.418-2.754c-0.136-0.92-0.29-1.832-0.405-2.762c-0.127-0.922-0.229-1.865-0.467-2.691c-0.12-0.404-0.288-0.777-0.544-1.043
				c-0.249-0.266-0.588-0.42-0.957-0.514c-0.093-0.02-0.188-0.041-0.284-0.061l-0.143-0.018l-0.16-0.027
				c-0.099-0.016-0.204-0.047-0.31-0.084c-0.112-0.031-0.201-0.09-0.3-0.131c-0.371-0.209-0.68-0.527-0.898-0.918
				c-0.223-0.387-0.374-0.832-0.443-1.338l-0.196-1.379l-0.4-2.758c-0.033-0.217-0.074-0.443-0.139-0.568
				c-0.036-0.061-0.065-0.086-0.112-0.102c-0.042-0.01-0.118-0.014-0.2,0c-0.363,0.078-0.805,0.293-1.224,0.482l-0.077-0.611
				l0.23-0.104l0.084,0.607c-0.417,0.199-0.86,0.4-1.192,0.65c-0.076,0.059-0.136,0.121-0.172,0.17
				c-0.029,0.053-0.049,0.088-0.062,0.17c-0.024,0.16,0,0.391,0.029,0.613l0.399,2.752l0.204,1.387
				c0.062,0.508,0.029,1.055-0.076,1.602c-0.104,0.547-0.296,1.105-0.568,1.633c-0.146,0.256-0.298,0.516-0.481,0.748
				c-0.179,0.242-0.334,0.412-0.479,0.619c-0.293,0.4-0.525,0.805-0.654,1.227c-0.13,0.422-0.169,0.881-0.169,1.338
				c0,0.463,0.032,0.924,0.079,1.387c0.044,0.459,0.097,0.926,0.153,1.385c0.113,0.926,0.257,1.832,0.389,2.758l0.394,2.76
				l1.625,11.018l0.405,2.758l0.201,1.367c0.076,0.432,0.256,0.777,0.547,1c0.146,0.115,0.316,0.197,0.495,0.266
				c0.085,0.043,0.183,0.07,0.267,0.098c0.099,0.023,0.194,0.051,0.293,0.07c0.376,0.074,0.793,0.082,1.207,0.033
				c0.844-0.1,1.71-0.414,2.563-0.783l0.012,0.08c-0.849,0.42-1.726,0.795-2.601,0.936c-0.439,0.068-0.866,0.092-1.288,0.031
				c-0.104-0.014-0.2-0.037-0.302-0.051c-0.105-0.035-0.198-0.055-0.3-0.09c-0.191-0.064-0.386-0.146-0.558-0.262
				c-0.357-0.229-0.593-0.666-0.69-1.137l-0.245-1.365l-0.483-2.721l-0.473-2.721l-0.458-2.732l-0.906-5.475l-0.421-2.742
				c-0.133-0.914-0.283-1.834-0.4-2.766c-0.118-0.938-0.238-1.865-0.237-2.889c0.007-0.51,0.05-1.061,0.229-1.641
				c0.182-0.582,0.506-1.123,0.839-1.57c0.161-0.229,0.359-0.449,0.494-0.631c0.146-0.18,0.269-0.383,0.386-0.588
				c0.221-0.418,0.388-0.869,0.478-1.324c0.095-0.461,0.126-0.918,0.078-1.334l-0.184-1.383l-0.365-2.781
				c-0.021-0.242-0.06-0.484-0.014-0.826c0.023-0.17,0.103-0.383,0.225-0.559c0.118-0.168,0.25-0.285,0.369-0.377
				c0.243-0.18,0.465-0.291,0.684-0.404c0.221-0.115,0.437-0.219,0.652-0.311l0.084,0.607l-0.237,0.107l-0.077-0.611
				c0.216-0.094,0.431-0.193,0.651-0.283c0.228-0.088,0.453-0.178,0.708-0.225c0.129-0.018,0.272-0.025,0.416,0.02
				c0.145,0.045,0.26,0.17,0.322,0.295c0.126,0.264,0.148,0.508,0.185,0.742l0.376,2.777l0.185,1.391
				c0.053,0.42,0.183,0.828,0.373,1.17c0.19,0.344,0.447,0.619,0.759,0.803c0.085,0.033,0.162,0.088,0.243,0.109l0.125,0.043
				c0.039,0.014,0.094,0.021,0.142,0.031l0.142,0.027l0.153,0.025c0.105,0.021,0.206,0.039,0.307,0.066
				c0.407,0.105,0.803,0.293,1.101,0.621c0.299,0.316,0.484,0.748,0.611,1.193c0.241,0.902,0.333,1.846,0.453,2.77
				c0.109,0.932,0.249,1.848,0.379,2.771l0.391,2.762l0.828,5.506l0.847,5.504l0.424,2.748l0.106,0.689
				c0.036,0.221,0.076,0.455,0.091,0.701c0.036,0.482-0.055,1.039-0.295,1.539c-0.489,0.98-1.221,1.805-2.016,2.439
				c-0.799,0.639-1.663,1.092-2.52,1.477L479.551,381.895z"/>
		</g>
		<g>
			<path fill="#FFFFFF" d="M475.431,378.656c0.139,1.635,1.464,2.475,2.957,1.867c1.494-0.6,2.592-2.416,2.454-4.049
				c-0.141-1.639-1.466-2.48-2.959-1.879C476.387,375.201,475.293,377.018,475.431,378.656z"/>
			<path fill="#2AA137" stroke="#FFFFFF" stroke-width="0.5" stroke-miterlimit="10" d="M477.056,375.064"/>
			<path fill="#00BD70" d="M476.497,380.283c0.494,0.342,1.162,0.416,1.896,0.113c1.424-0.574,2.466-2.311,2.33-3.871
				c-0.138-1.568-1.403-2.373-2.825-1.795c-0.278,0.113-0.54,0.27-0.781,0.461c0,0,0.799-0.654,1.777-0.414
				c1.013,0.25,1.625,1.076,0.991,2.805c-0.507,1.51-1.736,1.941-1.736,1.941s0.007,0.311,0.017,0.416
				c0.01,0.1-0.075,0.143-0.241,0.146c-0.17,0-0.807-0.176-1.327-0.646c-0.124-0.127-0.168-0.135-0.021-0.467
				c0.11-0.268,0.542-1.094,1.1-1.5c0.29-0.232,0.22-0.008,0.237,0.055c0.012,0.061,0.035,0.346,0.035,0.346s0.868-0.443,1.345-1.58
				c0.13-0.33,0.131-0.381-0.052-0.584c-0.108-0.123-0.555-0.521-1.342-0.604c-0.212-0.02-0.182,0.178-0.177,0.232
				c0.008,0.08,0.027,0.328,0.027,0.328s-0.757,0.279-1.36,1.273c-0.63,1.021-0.637,1.723-0.583,2.154
				C475.872,379.629,476.227,380.096,476.497,380.283z"/>
		</g>
		<g>
			<g>
				<path fill="#2FAC66" d="M465.203,355.727l1.393,0.957l-0.734,1.158l-3.897-2.688l1.226-1.926
					c0.653-1.031,1.349-1.289,2.09-0.777l0.278,0.193c0.743,0.506,0.788,1.283,0.137,2.311L465.203,355.727z M463.534,354.572
					l0.832,0.576l0.491-0.773c0.163-0.254,0.151-0.443-0.033-0.576l-0.28-0.193c-0.186-0.125-0.362-0.061-0.521,0.193
					L463.534,354.572z"/>
			</g>
			<g>
				<path fill="#2FAC66" d="M466.034,349.32l3.312,3.502l-0.857,1.053l-3.312-3.506L466.034,349.32z"/>
			</g>
			<g>
				<path fill="#2FAC66" d="M467.825,349.242c-0.511-0.801-0.338-1.609,0.508-2.434l0.318-0.311
					c0.849-0.824,1.527-0.834,2.035-0.029l0.189,0.299l-0.956,0.924l-0.188-0.299c-0.131-0.203-0.297-0.201-0.511,0.01l-0.32,0.307
					c-0.207,0.205-0.25,0.408-0.122,0.611l1.141,1.803c0.125,0.199,0.297,0.199,0.508-0.008l0.319-0.309
					c0.211-0.211,0.254-0.41,0.126-0.609l-0.191-0.307l0.956-0.918l0.189,0.299c0.507,0.801,0.336,1.613-0.511,2.438l-0.318,0.303
					c-0.848,0.822-1.526,0.838-2.034,0.037L467.825,349.242z"/>
			</g>
			<g>
				<path fill="#2FAC66" d="M472.283,342.824c0.043-0.033,0.072,0,0.072,0.043v1.551c0,0.041-0.016,0.072-0.046,0.094l-0.669,0.5
					c-0.028,0.021-0.062,0.021-0.069-0.01l-0.228-1.414c-0.005-0.031,0-0.064,0.036-0.088L472.283,342.824z"/>
			</g>
			<g>
				<g>
					<path fill="#00BD70" d="M477.64,346.221l-1.536-5.244l1.104-0.438l1.027,3.498l0.449-4.074l1.109-0.434l-0.681,6.115
						L477.64,346.221z"/>
				</g>
			</g>
			<g>
				<g>
					<path fill="#00BD70" d="M484.625,338.783l-0.191,1.289l-2.189,0.23l-0.158,1.068l1.829-0.189l-0.191,1.291l-1.826,0.184
						l-0.158,1.08l2.192-0.234l-0.188,1.287l-3.286,0.346l0.88-6.006L484.625,338.783z"/>
				</g>
			</g>
			<g>
				<g>
					<path fill="#00BD70" d="M485.932,342.803l-0.715,2.135l-1.026-0.176l1.992-5.969l1.714,0.285
						c0.909,0.152,1.178,0.799,0.796,1.939l-0.142,0.424c-0.144,0.443-0.333,0.787-0.559,1.035c0.046,0.293-0.004,0.658-0.152,1.1
						l-0.569,1.709l-1.025-0.174l0.566-1.711c0.1-0.281,0.032-0.441-0.194-0.482L485.932,342.803z M487.041,341.643
						c0.228,0.031,0.389-0.086,0.486-0.375l0.139-0.426c0.095-0.285,0.027-0.445-0.198-0.484l-0.686-0.117l-0.429,1.283
						L487.041,341.643z"/>
				</g>
			</g>
			<g>
				<g>
					<path fill="#00BD70" d="M489.673,343.775l-1.048,2.031l-0.917-0.432l2.933-5.684l1.529,0.719
						c0.815,0.389,0.944,1.119,0.384,2.203l-0.208,0.404c-0.218,0.422-0.455,0.734-0.708,0.93c-0.011,0.314-0.122,0.68-0.34,1.1
						l-0.837,1.627l-0.92-0.436l0.839-1.623c0.14-0.271,0.107-0.453-0.098-0.553L489.673,343.775z M490.912,342.846
						c0.204,0.098,0.376,0.01,0.515-0.26l0.211-0.406c0.138-0.268,0.105-0.449-0.1-0.547l-0.609-0.291l-0.628,1.219L490.912,342.846
						z"/>
				</g>
			</g>
			<g>
				<g>
					<path fill="#00BD70" d="M496.904,343.754l-0.805,1.104l-1.535-1.355l-0.67,0.916l1.279,1.129l-0.808,1.1l-1.278-1.125
						l-0.67,0.918l1.533,1.352l-0.808,1.1l-2.301-2.027l3.761-5.137L496.904,343.754z"/>
				</g>
			</g>
		</g>
		<g>
			<path fill="#FFFFFF" d="M467.885,373.436c0.035,0.035,0.086,0.102,0.127,0.172c0.06,0.102,0.082,0.186,0.066,0.273
				c-0.007,0.074-0.04,0.145-0.107,0.209c-0.081,0.074-0.184,0.088-0.266,0.031v0.004c0.024,0.092,0.01,0.246-0.113,0.357
				c-0.073,0.07-0.142,0.088-0.206,0.088c-0.086-0.006-0.168-0.07-0.241-0.205c-0.043-0.072-0.07-0.127-0.084-0.166L467.885,373.436
				z M467.199,374.229c0.008,0.023,0.024,0.055,0.048,0.086c0.062,0.109,0.16,0.172,0.283,0.061c0.115-0.109,0.105-0.244,0.04-0.357
				l-0.05-0.086L467.199,374.229z M467.602,373.854l0.055,0.1c0.065,0.104,0.161,0.115,0.243,0.039
				c0.1-0.088,0.093-0.199,0.033-0.303c-0.028-0.049-0.046-0.068-0.061-0.082L467.602,373.854z"/>
			<path fill="#FFFFFF" d="M468.3,375.1c-0.278,0.281-0.535,0.27-0.662,0.072c-0.135-0.199-0.064-0.502,0.183-0.756
				c0.254-0.256,0.524-0.275,0.663-0.072C468.621,374.555,468.539,374.859,468.3,375.1z M467.893,374.521
				c-0.174,0.172-0.27,0.42-0.166,0.574s0.316,0.09,0.499-0.094c0.163-0.166,0.277-0.408,0.169-0.578
				C468.285,374.262,468.071,374.344,467.893,374.521z"/>
			<path fill="#FFFFFF" d="M468.773,374.818c0.048,0.037,0.104,0.096,0.151,0.158c0.077,0.104,0.108,0.189,0.096,0.281
				c-0.005,0.072-0.046,0.154-0.105,0.217c-0.103,0.115-0.218,0.131-0.307,0.078l-0.003,0.004c0.026,0.084-0.007,0.176-0.074,0.283
				c-0.095,0.141-0.157,0.242-0.177,0.285l-0.072-0.094c0.015-0.033,0.069-0.127,0.151-0.252c0.094-0.137,0.104-0.223,0.043-0.311
				l-0.069-0.082l-0.34,0.365l-0.068-0.092L468.773,374.818z M468.486,375.299l0.072,0.098c0.076,0.1,0.185,0.096,0.273,0
				c0.103-0.111,0.093-0.225,0.021-0.326c-0.034-0.043-0.063-0.072-0.08-0.084L468.486,375.299z"/>
			<path fill="#FFFFFF" d="M469.201,375.377c0.057,0.043,0.117,0.098,0.179,0.168c0.108,0.119,0.153,0.252,0.146,0.379
				c-0.012,0.137-0.069,0.271-0.189,0.416c-0.125,0.145-0.257,0.229-0.379,0.25c-0.129,0.018-0.258-0.041-0.369-0.174
				c-0.055-0.061-0.098-0.117-0.131-0.17L469.201,375.377z M468.608,376.246c0.017,0.027,0.043,0.059,0.072,0.098
				c0.162,0.182,0.369,0.148,0.57-0.094c0.182-0.209,0.216-0.428,0.056-0.613c-0.041-0.041-0.075-0.076-0.102-0.09L468.608,376.246z
				"/>
			<path fill="#FFFFFF" d="M469.729,376.828l-0.243-0.248l-0.264,0.334l0.27,0.273l-0.079,0.096l-0.353-0.355l0.73-0.916
				l0.338,0.344l-0.079,0.098l-0.257-0.262l-0.231,0.293l0.246,0.244L469.729,376.828z"/>
			<path fill="#FFFFFF" d="M469.86,377.209l-0.288,0.232l-0.086-0.082l0.92-0.74l0.105,0.09l-0.478,1.146l-0.091-0.08l0.151-0.357
				L469.86,377.209z M470.147,377.305l0.137-0.332c0.031-0.072,0.064-0.139,0.096-0.195l-0.002-0.004
				c-0.053,0.049-0.105,0.094-0.161,0.141l-0.267,0.213L470.147,377.305z"/>
			<path fill="#FFFFFF" d="M470.883,377.035l-0.396,0.576c-0.152,0.219-0.148,0.359-0.057,0.434
				c0.104,0.082,0.234,0.043,0.383-0.172l0.396-0.576l0.089,0.072l-0.389,0.564c-0.205,0.301-0.399,0.332-0.551,0.215
				c-0.14-0.113-0.168-0.312,0.04-0.613l0.396-0.57L470.883,377.035z"/>
			<path fill="#FFFFFF" d="M471.199,378.748l0.051-0.279c0.019-0.113,0.031-0.188,0.045-0.256l-0.005-0.004
				c-0.055,0.043-0.11,0.08-0.203,0.143l-0.228,0.158l-0.104-0.072l0.542-0.35l0.105-0.645l0.112,0.084l-0.062,0.299
				c-0.015,0.076-0.027,0.145-0.043,0.211h0.007c0.057-0.045,0.103-0.076,0.17-0.121l0.249-0.162l0.106,0.072l-0.528,0.33
				l-0.107,0.67L471.199,378.748z"/>
		</g>
		<polygon fill="#FFFFFF" points="480.279,348.287 479.452,353.77 484.021,352.318 479.67,354.865 482.623,360.234 478.709,355.592 
			469.64,364.16 477.961,354.666 474.512,352.229 478.578,353.879 		"/>
		<g>
			<path fill="#00BD70" d="M491.674,388.445c0,0,0.128-1.926,0.168-2.779c0.043-0.943-0.151-3.828-0.229-4.842
				c-0.054-0.707-0.344-2.355-0.458-2.959c-0.112-0.602-0.226-1.076-0.318-1.609c-0.046-0.268-0.079-0.527-0.108-0.77
				c0.651,1.723,1.949,2.758,1.949,2.758c-0.585-1.535-0.727-3.902-0.727-3.902l0,0c0.066,0.057,0.125,0.115,0.194,0.17
				c0.16,0.131,0.323,0.266,0.488,0.387c0.494,0.375,0.935,0.617,1.661,0.9l1.488,0.529c0,0-1.745-1.424-2.413-2.961
				c-1.325-3.047,2.013-8.592,1.169-11.582c-0.247-0.893-1.403-1.43-0.765-2.477c0.535-0.875,4.67-3.535,4.67-3.535
				s-1.071,0.18-1.781,0.328c-0.578,0.127-1.268,0.166-1.268,0.166s1.037-0.533,1.434-0.744c1.184-0.59,3.153-2.307,3.153-2.307
				s-1.363,0.771-2.906,1.256c-0.306,0.096-0.811,0.207-1.092,0.236c0,0,1.583-0.662,2.177-1.037c2.315-1.346,3.224-3.35,3.224-3.35
				s-0.729,0.879-1.618,1.406c-0.966,0.566-2.053,0.969-2.601,1.086c-2.796,0.664-3.978-0.779-6.25-0.109
				c-0.916,0.326-1.911,1.416-2.587,2.408l-6.098,1.117c0,0,6.279,2.619,6.611,2.793c0.335,0.164,0.264,0.555-0.348,1.301
				c-0.26,0.318-2.345,2.744-3.059,5.295c-0.128,0.432-0.664,0.623-1.24,0.594c-0.771,0.004-1.055-0.078-1.337-0.102l0.062,0.676
				c0,0,1.186,0.186,1.514,0.273c0.345,0.096,0.663,0.355,0.75,0.721c-0.061,0.1-0.148,0.32-0.23,0.455
				c-0.04,0.078-0.079,0.162-0.103,0.248l-0.053-0.014l-0.349-0.066c-0.114-0.021-0.238-0.057-0.356-0.086
				c0,0-1.536-0.201-1.68-0.516c-0.147-0.316-0.809-1.473-1.863-2.055c0,0,0.669,1.92,0.729,2.004c0,0-1.643,0.303-2.896,0.752
				l-0.249,0.1c0,0,0.717,0.184,1.445,0.18c0.702-0.008,1.173-0.023,1.173-0.023l-1.735,2.338c0,0,1.48-0.74,2.907-1.938
				c0.228-0.283,0.399-0.211,0.554-0.201c0.122,0.012,2.236,0.457,2.236,0.457l0.295,0.053c0.073,0.158,0.185,0.299,0.328,0.377
				c0.15,0.08,0.779,0.234,0.928,0.293c0.148,0.055,0.264,0.143,0.376,0.248c0.224,0.221,0.379,0.518,0.492,0.842
				c0.222,0.66,0.266,1.438,0.218,2.227c-0.041,0.787-0.173,1.594-0.344,2.4c-0.174,0.818-0.378,1.619-0.604,2.432
				c-0.228,0.807-0.479,1.617-0.688,2.438c-0.187,0.725-0.358,1.527-0.475,2.457c-0.105,0.812-0.169,1.617-0.211,2.42l-0.021,0.408
				l0.232-0.371c0.13-0.207,0.257-0.422,0.372-0.637c0.108-0.213,0.214-0.432,0.312-0.648c0.196-0.443,0.36-0.896,0.511-1.34
				c0.117-0.393,0.166-0.512,0.443-1.586c0,0-0.048,0.691-0.074,1.582c-0.012,0.445-0.034,0.889-0.017,1.33
				c0.023,0.666,0.162,2.062,0.162,2.062s0.39-1.779,0.506-2.262l0.533-2.17c0.062-0.24,0.259-0.975,0.326-1.209
				c-0.024,0.348-0.006,1.668,0.017,2.178c0.016,0.518,0.119,2.031,0.139,2.285l0.062,0.756l0.047,0.6c0,0,0.534-1.83,0.689-2.434
				c0.275-1.072,0.57-2.309,0.57-2.309c0.029,0.756,0.369,2.473,0.439,2.758c0.137,0.562,0.664,2.195,0.767,2.457
				C491.142,387.32,491.674,388.445,491.674,388.445z"/>
			<path fill="#FFFFFF" d="M491.837,389.432l-0.383-0.811c-0.018-0.047-0.534-1.135-0.633-1.41
				c-0.099-0.252-0.633-1.908-0.771-2.486c-0.048-0.184-0.189-0.881-0.301-1.582c-0.079,0.328-0.169,0.684-0.258,1.014
				c-0.151,0.604-0.665,2.369-0.688,2.447l-0.362,1.25l-0.208-2.531c-0.017-0.223-0.122-1.771-0.139-2.299
				c-0.006-0.127-0.011-0.295-0.016-0.492l-0.396,1.619c-0.115,0.469-0.497,2.232-0.504,2.248l-0.324,1.5l-0.141-1.395
				c-0.003-0.061-0.139-1.418-0.165-2.086c-0.013-0.346,0-0.703,0.009-1.047l0.002-0.045c-0.139,0.404-0.28,0.752-0.426,1.092
				c-0.096,0.219-0.209,0.449-0.328,0.682c-0.108,0.201-0.233,0.418-0.387,0.662l-0.689,1.098l0.062-1.203
				c0.057-0.973,0.119-1.732,0.213-2.445c0.11-0.842,0.269-1.662,0.486-2.498c0.132-0.525,0.287-1.053,0.434-1.561
				c0.084-0.297,0.173-0.592,0.254-0.887c0.24-0.857,0.439-1.645,0.602-2.406c0.19-0.916,0.298-1.664,0.338-2.354
				c0.046-0.861-0.021-1.557-0.206-2.125c-0.115-0.326-0.268-0.584-0.448-0.762c-0.109-0.104-0.208-0.172-0.323-0.221
				c-0.05-0.018-0.165-0.051-0.298-0.086c-0.313-0.088-0.546-0.16-0.645-0.213c-0.146-0.078-0.273-0.203-0.363-0.373l-0.214-0.035
				c-0.803-0.176-2.107-0.443-2.218-0.459c-0.023,0-0.05-0.006-0.081-0.006c-0.048-0.008-0.099-0.01-0.136-0.004
				c-0.011,0.004-0.047,0.016-0.11,0.09l-0.049,0.057c-1.436,1.207-2.904,1.945-2.967,1.977l-0.787,0.396l1.997-2.701
				c-0.198,0.008-0.453,0.012-0.75,0.018c-0.743,0.006-1.462-0.176-1.491-0.186l-0.748-0.195l1.077-0.438
				c0.271-0.09,0.567-0.186,0.889-0.277c0.645-0.182,1.277-0.324,1.671-0.402c-0.108-0.289-0.288-0.787-0.59-1.658l-0.264-0.762
				l0.628,0.35c1.256,0.693,1.932,2.121,1.938,2.133c0.096,0.139,0.879,0.334,1.55,0.422c0.058,0.014,0.102,0.023,0.145,0.035
				c0.073,0.021,0.144,0.039,0.215,0.049l0.209,0.043c0.008-0.016,0.013-0.025,0.021-0.041c0.044-0.072,0.084-0.164,0.125-0.25
				c0.01-0.016,0.02-0.037,0.028-0.059c-0.094-0.227-0.321-0.42-0.595-0.492c-0.316-0.086-1.485-0.27-1.498-0.27l-0.134-0.018
				l-0.108-1.229l0.343,0.023c0.089,0.002,0.181,0.018,0.281,0.031c0.232,0.031,0.52,0.068,1.045,0.068
				c0.206,0.014,0.397-0.01,0.557-0.053c0.104-0.033,0.349-0.117,0.401-0.287c0.448-1.609,1.544-3.521,3.078-5.377l0.05-0.059
				c0.435-0.529,0.464-0.723,0.461-0.775c0-0.035-0.033-0.076-0.098-0.107c-0.262-0.137-4.43-1.885-6.6-2.789l-0.844-0.352
				l6.978-1.279c0.412-0.584,1.503-2.002,2.666-2.42l0.062-0.016c1.135-0.32,1.995-0.139,2.913,0.047
				c0.939,0.199,1.913,0.4,3.296,0.072c0.074-0.014,0.153-0.035,0.242-0.061c0.522-0.148,1.438-0.492,2.291-0.994
				c0.826-0.488,1.52-1.32,1.526-1.332l1.017-1.221l-0.661,1.463c-0.039,0.074-0.827,1.779-2.769,3.123
				c0.658-0.297,1.096-0.547,1.104-0.547l1.932-1.088l-1.769,1.535c-0.081,0.072-2.019,1.752-3.222,2.352
				c-0.017,0.01-0.036,0.021-0.057,0.031c0.699-0.143,1.646-0.303,1.658-0.307l1.121-0.184l-1.078,0.695
				c-1.572,1.006-4.199,2.832-4.559,3.414c-0.271,0.447-0.115,0.742,0.304,1.311c0.201,0.271,0.408,0.555,0.511,0.904
				c0.412,1.473-0.108,3.428-0.656,5.51c-0.588,2.209-1.198,4.504-0.523,6.049c0.643,1.482,2.343,2.881,2.357,2.895l1.317,1.072
				l-3.09-1.102c-0.735-0.285-1.198-0.535-1.703-0.918c-0.074-0.059-0.147-0.111-0.221-0.176c0.089,0.816,0.277,2.146,0.648,3.115
				l0.392,1.016l-0.777-0.617c-0.038-0.025-0.661-0.531-1.261-1.408c0.044,0.209,0.089,0.434,0.133,0.674
				c0.121,0.633,0.409,2.266,0.467,2.986c0.072,0.951,0.271,3.893,0.224,4.871c-0.039,0.854-0.168,2.771-0.168,2.789
				L491.837,389.432z M490.013,380.156l0.063,1.6c0.03,0.717,0.358,2.408,0.433,2.701c0.137,0.568,0.659,2.174,0.756,2.434
				c0.035,0.096,0.129,0.309,0.237,0.553c0.036-0.59,0.083-1.295,0.101-1.723c0.041-0.879-0.134-3.613-0.224-4.799
				c-0.055-0.658-0.326-2.234-0.459-2.934c-0.051-0.275-0.1-0.521-0.151-0.762c-0.06-0.285-0.117-0.557-0.168-0.848
				c-0.048-0.281-0.077-0.545-0.11-0.783l-0.25-2.146l0.708,1.877c0.313,0.822,0.779,1.486,1.172,1.945
				c-0.312-1.35-0.4-2.762-0.407-2.844l-0.043-0.719l0.452,0.398c0.063,0.057,0.125,0.105,0.194,0.166
				c0.142,0.119,0.307,0.256,0.478,0.385c0.491,0.371,0.915,0.6,1.625,0.877l0.172,0.062c-0.518-0.555-1.104-1.287-1.44-2.057
				c-0.742-1.709-0.105-4.104,0.511-6.424c0.527-1.986,1.024-3.867,0.65-5.195c-0.077-0.273-0.264-0.525-0.446-0.77
				c-0.359-0.486-0.808-1.09-0.273-1.957c0.398-0.658,2.418-2.084,3.715-2.949c-0.231,0.037-0.46,0.082-0.661,0.127
				c-0.589,0.129-1.269,0.168-1.297,0.172l-1.15,0.072l1.157-0.596c0,0,1.028-0.533,1.424-0.742
				c0.428-0.215,0.972-0.592,1.488-0.973c-0.366,0.15-0.773,0.301-1.188,0.434c-0.04,0.01-0.083,0.023-0.129,0.037
				c-0.292,0.078-0.731,0.18-1.009,0.203l-1.626,0.148l1.646-0.682c0.013-0.008,1.565-0.652,2.126-1.012
				c0.861-0.496,1.522-1.096,2.007-1.637c-0.086,0.061-0.175,0.117-0.267,0.172c-0.903,0.523-1.866,0.891-2.415,1.047
				c-0.099,0.025-0.189,0.051-0.269,0.07c-1.467,0.346-2.524,0.127-3.461-0.07c-0.866-0.184-1.686-0.354-2.726-0.059l-0.046,0.01
				c-0.841,0.307-1.8,1.375-2.414,2.279l-0.081,0.117l-5.214,0.953c1.733,0.725,5.514,2.311,5.777,2.445
				c0.234,0.117,0.29,0.316,0.297,0.465c0.01,0.318-0.191,0.715-0.633,1.258l-0.053,0.061c-1.469,1.773-2.508,3.584-2.934,5.094
				c-0.062,0.225-0.26,0.613-0.852,0.779c-0.206,0.055-0.443,0.08-0.681,0.07c-0.475,0-0.774-0.031-0.995-0.059l0.008,0.105
				c0.324,0.049,1.134,0.182,1.399,0.252c0.435,0.119,0.781,0.453,0.875,0.857l0.027,0.113l-0.068,0.125
				c-0.021,0.039-0.047,0.096-0.076,0.156c-0.045,0.102-0.099,0.217-0.151,0.307c-0.031,0.047-0.055,0.107-0.071,0.156l-0.082,0.301
				l-0.64-0.129c-0.067-0.01-0.153-0.033-0.239-0.051c-0.039-0.018-0.08-0.029-0.122-0.039c-0.59-0.072-1.635-0.262-1.793-0.609
				c-0.005-0.01-0.386-0.814-1.104-1.473c0.194,0.543,0.355,0.982,0.392,1.057l0.294,0.387l-0.524,0.078
				c-0.007,0.002-0.988,0.189-1.996,0.467c0.124,0.012,0.249,0.018,0.38,0.018c0.696-0.006,1.168-0.029,1.168-0.029l0.432-0.02
				l-1.407,1.9c0.537-0.324,1.259-0.799,1.965-1.389c0.125-0.148,0.257-0.242,0.398-0.281c0.118-0.035,0.218-0.023,0.297-0.016
				c0.017,0.002,0.036,0.006,0.056,0.006c0.129,0.014,1.767,0.352,2.266,0.461l0.378,0.07l0.036,0.088
				c0.06,0.127,0.148,0.23,0.251,0.285c0.084,0.045,0.382,0.131,0.581,0.186c0.146,0.043,0.272,0.08,0.331,0.102
				c0.155,0.061,0.29,0.156,0.429,0.281c0.223,0.223,0.402,0.527,0.539,0.922c0.209,0.633,0.285,1.389,0.23,2.328
				c-0.038,0.717-0.149,1.5-0.351,2.447c-0.165,0.783-0.366,1.582-0.61,2.453c-0.079,0.299-0.168,0.596-0.257,0.895
				c-0.145,0.506-0.297,1.021-0.432,1.535c-0.208,0.814-0.359,1.605-0.465,2.416c-0.079,0.592-0.134,1.219-0.185,1.986
				c0.043-0.078,0.086-0.15,0.124-0.225c0.113-0.213,0.219-0.426,0.303-0.633c0.177-0.396,0.34-0.822,0.5-1.303l0.063-0.207
				c0.078-0.26,0.153-0.508,0.374-1.355l0.64-2.48l-0.178,2.449c0.002,0.008-0.053,0.693-0.074,1.559l-0.008,0.305
				c-0.016,0.332-0.023,0.678-0.011,1.012c0.007,0.166,0.021,0.379,0.037,0.609c0.067-0.307,0.132-0.58,0.166-0.73l0.535-2.172
				c0.063-0.246,0.261-0.982,0.33-1.227l0.608-2.182l-0.146,2.152c-0.023,0.33-0.007,1.648,0.013,2.148
				c0.017,0.494,0.118,1.984,0.139,2.273l0.017,0.166c0.127-0.455,0.257-0.918,0.321-1.164c0.27-1.055,0.566-2.289,0.57-2.301
				L490.013,380.156z"/>
		</g>
		<path fill="#FFFFFF" d="M491.647,355.562c-0.109,0.988-0.643,1.867-1.193,1.951c-0.549,0.086-0.908-0.648-0.8-1.641
			c0.114-0.994,0.646-1.871,1.192-1.953C491.4,353.83,491.756,354.568,491.647,355.562z"/>
		<path fill="#00BD70" d="M490.732,355.301c-0.017-0.564-0.753-0.455-0.865,0.377c-0.201,1.529,0.373,1.412,0.57,1.303
			c0.384-0.211,0.398-0.955,0.396-1.207l-0.633-0.051L490.732,355.301z"/>
	</g>
	<g>
		<path fill="#FFFFFF" d="M403.685,424.898l2.694-1.201l1.617,3.65l0.77-4.713l2.681-1.195l2.073,3.443l0.32-4.51l2.678-1.193
			l-0.86,8.189l-2.782,1.24l-2.338-3.877l-0.874,5.311l-2.78,1.234L403.685,424.898z"/>
		<path fill="#FFFFFF" d="M416.683,419.107l2.701-1.143l1.483,3.73l0.912-4.74l2.689-1.137l1.939,3.527l0.46-4.547l2.688-1.141
			l-1.113,8.262l-2.788,1.178l-2.188-3.979l-1.031,5.342l-2.791,1.178L416.683,419.107z"/>
		<path fill="#FFFFFF" d="M429.736,413.586l2.705-1.084l1.346,3.812l1.056-4.77l2.698-1.078l1.799,3.621l0.605-4.58l2.694-1.078
			l-1.373,8.311l-2.794,1.117l-2.035-4.076l-1.194,5.369l-2.794,1.113L429.736,413.586z"/>
		<path fill="#FFFFFF" d="M443.246,413.832l2.742-1.051l0.132,2.107l-2.739,1.049L443.246,413.832z"/>
		<path fill="#FFFFFF" d="M447.479,406.604l4.746-1.744c1.034-0.377,1.815-0.461,2.35-0.244c0.53,0.215,0.814,0.699,0.842,1.449
			c0.031,0.773-0.223,1.475-0.768,2.117c-0.546,0.637-1.39,1.17-2.543,1.596l-1.562,0.576l0.115,2.834l-2.871,1.055L447.479,406.604
			z M450.48,408.805l0.697-0.254c0.552-0.205,0.934-0.428,1.152-0.664c0.217-0.244,0.319-0.484,0.307-0.732
			c-0.008-0.24-0.116-0.408-0.314-0.502c-0.199-0.094-0.566-0.043-1.1,0.148l-0.812,0.301L450.48,408.805z"/>
		<path fill="#FFFFFF" d="M457.098,403.104l2.862-0.996l0.102,7.709l-2.86,1L457.098,403.104z"/>
		<path fill="#FFFFFF" d="M468.271,403.926l2.49-0.178c-0.182,0.65-0.455,1.227-0.824,1.744c-0.371,0.514-0.827,0.959-1.364,1.338
			c-0.539,0.375-1.227,0.691-2.054,0.963c-1.005,0.33-1.826,0.477-2.457,0.432c-0.63-0.037-1.173-0.295-1.62-0.762
			c-0.451-0.469-0.664-1.188-0.646-2.15c0.026-1.297,0.454-2.422,1.282-3.377c0.827-0.957,1.983-1.68,3.474-2.16
			c1.163-0.381,2.076-0.482,2.735-0.299s1.141,0.629,1.447,1.352l-2.533,1.291c-0.084-0.205-0.176-0.354-0.267-0.432
			c-0.157-0.137-0.35-0.215-0.577-0.234c-0.232-0.027-0.486,0.01-0.772,0.102c-0.646,0.213-1.15,0.594-1.503,1.143
			c-0.268,0.406-0.407,0.965-0.424,1.664c-0.019,0.863,0.129,1.404,0.432,1.627c0.305,0.215,0.736,0.234,1.301,0.053
			c0.547-0.18,0.964-0.439,1.245-0.793C467.923,404.896,468.134,404.457,468.271,403.926z"/>
		<path fill="#FFFFFF" d="M471.58,402.41l3.726-1.111l-0.099,1.695l-3.728,1.113L471.58,402.41z"/>
		<path fill="#FFFFFF" d="M476.169,396.896l2.977-0.775l1.453,5.223l2.665-6.303l2.886-0.754l-4.278,8.902l-3.085,0.807
			L476.169,396.896z"/>
		<path fill="#FFFFFF" d="M487.649,393.971l7.541-1.443l-0.345,1.742l-4.718,0.902l-0.256,1.301l4.379-0.836l-0.329,1.666
			l-4.381,0.836l-0.314,1.611l4.854-0.928l-0.364,1.852l-7.676,1.467L487.649,393.971z"/>
		<path fill="#FFFFFF" d="M495.09,400.576l2.022-8.246l4.646-0.699c0.862-0.137,1.507-0.172,1.929-0.102
			c0.418,0.064,0.725,0.262,0.916,0.586c0.188,0.318,0.218,0.742,0.089,1.27c-0.112,0.457-0.316,0.869-0.609,1.232
			c-0.297,0.365-0.656,0.68-1.078,0.943c-0.273,0.164-0.624,0.322-1.06,0.473c0.307,0.051,0.522,0.115,0.649,0.195
			c0.087,0.049,0.199,0.176,0.341,0.367c0.142,0.186,0.228,0.34,0.264,0.447l0.765,2.188l-3.15,0.473l-0.874-2.291
			c-0.105-0.295-0.224-0.48-0.346-0.559c-0.168-0.096-0.383-0.127-0.636-0.086l-0.244,0.041l-0.824,3.34L495.09,400.576z
			 M499.095,395.248l1.173-0.178c0.131-0.021,0.383-0.096,0.767-0.225c0.192-0.064,0.366-0.174,0.518-0.328
			c0.151-0.156,0.25-0.328,0.29-0.504c0.065-0.266,0.026-0.459-0.127-0.572c-0.146-0.113-0.477-0.135-0.984-0.057l-1.229,0.188
			L499.095,395.248z"/>
		<path fill="#FFFFFF" d="M504.838,399.078l1.765-8.201l4.672-0.828c0.87-0.148,1.517-0.203,1.948-0.148
			c0.429,0.053,0.743,0.234,0.944,0.549c0.206,0.314,0.252,0.729,0.137,1.256c-0.096,0.455-0.29,0.869-0.575,1.236
			c-0.285,0.365-0.635,0.689-1.06,0.957c-0.267,0.176-0.62,0.342-1.055,0.496c0.316,0.047,0.534,0.105,0.666,0.18
			c0.089,0.045,0.207,0.162,0.357,0.348c0.146,0.189,0.242,0.332,0.281,0.443l0.848,2.135l-3.168,0.562l-0.962-2.244
			c-0.119-0.289-0.242-0.471-0.371-0.537c-0.173-0.094-0.387-0.119-0.646-0.072l-0.251,0.041l-0.714,3.334L504.838,399.078z
			 M508.704,393.703l1.183-0.209c0.129-0.023,0.383-0.102,0.765-0.244c0.194-0.068,0.366-0.184,0.511-0.336
			c0.152-0.162,0.244-0.332,0.28-0.51c0.06-0.268,0.011-0.451-0.145-0.561c-0.158-0.109-0.494-0.119-1.002-0.029l-1.232,0.221
			L508.704,393.703z"/>
		<path fill="#FFFFFF" d="M516.008,389.191l7.567-1.58l-0.305,1.734l-4.733,0.992l-0.226,1.295l4.391-0.916l-0.29,1.652
			l-4.394,0.918l-0.284,1.604l4.877-1.012l-0.321,1.834l-7.706,1.619L516.008,389.191z"/>
		<path fill="#FFFFFF" d="M524.139,393.094l2.726-0.658l-0.312,2.25l-2.721,0.648L524.139,393.094z"/>
		<path fill="#FFFFFF" d="M529.215,386.254l7.04-1.922l-0.158,1.717l-4.18,1.137l-0.132,1.396l3.571-0.971l-0.151,1.607
			l-3.568,0.971l-0.306,3.258l-2.858,0.779L529.215,386.254z"/>
		<path fill="#FFFFFF" d="M537.181,391.785l0.452-7.893l4.758-1.418c0.885-0.264,1.554-0.4,2.014-0.406
			c0.458-0.012,0.822,0.117,1.086,0.385c0.267,0.262,0.382,0.645,0.353,1.146c-0.026,0.438-0.155,0.846-0.391,1.232
			c-0.239,0.377-0.552,0.727-0.947,1.039c-0.254,0.197-0.59,0.396-1.023,0.611c0.336-0.008,0.581,0.021,0.729,0.068
			c0.102,0.037,0.245,0.127,0.433,0.279c0.185,0.15,0.311,0.275,0.373,0.369l1.246,1.875l-3.221,0.963l-1.384-1.959
			c-0.179-0.252-0.34-0.402-0.485-0.447c-0.197-0.066-0.428-0.057-0.688,0.023l-0.252,0.074l-0.183,3.205L537.181,391.785z
			 M540.315,386.236l1.203-0.357c0.127-0.039,0.387-0.146,0.765-0.334c0.188-0.088,0.348-0.217,0.478-0.387
			c0.127-0.166,0.198-0.338,0.205-0.514c0.015-0.254-0.068-0.42-0.249-0.502c-0.182-0.078-0.532-0.041-1.057,0.115l-1.254,0.373
			L540.315,386.236z"/>
	</g>
	<g>
		<g>
			<path fill="#FFFFFF" d="M493.373,421.025c-7.233-0.02-13.403-2.34-18.377-6.902c-14.664-13.465-14.755-42.836-14.832-68.756
				c-0.023-7.729-0.045-15.029-0.501-20.824c-0.481-6.086-0.396-19.805-1.681-10.861c-0.735,7.475,1.529,35.277,1.529,35.277
				l-12.816,6.398l-1.512-35.654c-0.804-6.499,1.747-19.742,7.65-24.231c2.68-2.042,6.021-2.477,8.943-1.173
				c6.968,3.118,9.307,12.168,10.651,29.234c0.497,6.286,0.521,13.817,0.544,21.798c0.063,20.967,0.147,49.68,10.686,59.354
				c3.012,2.766,6.753,3.867,11.763,3.445c18.168-1.498,16.585-48.658,15.826-71.318c-0.174-5.125-0.32-9.549-0.306-13.162
				c0.037-8.028-1.376-35.343-1.679-18.671c0.176,14.708,0.607,28.642,0.611,28.901l-12.821,6.182
				c-0.031-1.402-0.714-34.42-0.678-46.57c0.021-6.895,3.3-9.801,5.251-10.918c2.879-1.648,6.313-1.557,9.425,0.257
				c8.044,4.685,12.788,19.965,12.699,40.879c-0.015,3.363,0.13,7.682,0.297,12.672c1.031,30.67,2.754,82.006-27.567,84.516
				C495.424,420.979,494.386,421.025,493.373,421.025z"/>
			<g>
				<path fill="#009E5C" d="M493.367,421.193c-3.45,0.008-6.942-0.516-10.197-1.742c-3.258-1.217-6.252-3.115-8.773-5.523
					c-2.528-2.379-4.597-5.246-6.243-8.297c-1.674-3.047-2.903-6.311-3.922-9.621c-1.991-6.645-3.013-13.523-3.705-20.393
					c-0.665-6.883-0.928-13.791-1.077-20.688c-0.152-6.895-0.168-13.793-0.359-20.66l-0.205-5.139l-0.36-5.127
					c-0.257-3.478-0.343-6.927-0.577-10.325c-0.061-0.808-0.133-1.763-0.266-2.333c-0.004-0.018-0.016-0.047-0.003-0.014
					l0.046,0.096c0.006,0.01,0.121,0.204,0.32,0.33c0.385,0.309,1.051,0.195,1.283-0.004c0.078-0.049,0.15-0.115,0.21-0.188
					l0.061-0.076c0.064-0.102,0.045-0.086,0.048-0.079c-0.023,0.062-0.076,0.263-0.112,0.438c-0.081,0.374-0.147,0.784-0.21,1.196
					l-0.09,0.623l-0.023,0.157c0.012-0.133,0,0.055,0,0.066l-0.016,0.323l-0.062,1.287c0,0.836-0.03,1.638-0.004,2.502
					c0.047,3.403,0.239,6.834,0.417,10.261c0.389,6.857,0.905,13.725,1.49,20.57l0.087,1.021l-0.93,0.471l-12.775,6.477
					l-2.207,1.121l-0.133-2.5c-0.623-11.879-1.055-23.768-1.575-35.649l0.013,0.136c-0.381-3.563-0.01-6.919,0.604-10.258
					c0.646-3.322,1.619-6.599,3.181-9.713c1.562-3.061,3.876-6.237,7.749-7.523c1.836-0.616,3.873-0.708,5.767-0.218
					c0.944,0.233,1.875,0.646,2.628,1.064c0.872,0.483,1.612,1,2.32,1.63c2.828,2.524,4.3,5.907,5.316,9.132
					c0.999,3.268,1.572,6.562,2.027,9.842c0.445,3.295,0.763,6.529,0.997,9.859l0.266,4.889l0.13,4.953
					c0.182,13.102-0.22,26.121,0.736,39.037c0.505,6.438,1.263,12.885,2.988,19.01c0.87,3.045,1.982,6.033,3.613,8.629
					c0.803,1.287,1.769,2.506,2.815,3.475c1.146,1.035,2.333,1.779,3.718,2.301c1.364,0.52,2.845,0.77,4.36,0.834
					c1.462,0.035,3.217-0.01,4.403-0.41c2.721-0.797,4.873-3.072,6.417-5.711c3.065-5.398,4.381-11.857,5.332-18.193
					c0.907-6.387,1.297-12.871,1.478-19.357c0.174-6.492,0.109-12.998-0.054-19.508c-0.153-6.518-0.45-13.018-0.462-19.596
					c-0.026-6.467-0.314-13.003-0.72-19.477l-0.187-2.414l-0.122-1.186l-0.077-0.56l-0.045-0.237l-0.015-0.064
					c0.003,0.018,0.014,0.043,0.024,0.061c0.033,0.006,0.053,0.262,0.503,0.465c1.452,0.1,1.052-0.344,1.311-0.471
					c0.027-0.059,0.026-0.053,0.036-0.086c0.008-0.033-0.004,0.024-0.005,0.033l-0.033,0.235l-0.053,0.562l-0.066,1.19l-0.073,2.423
					l0.163,9.744l0.362,19.566l0.012,0.623l-0.562,0.27l-12.841,6.148l-1.321,0.633l-0.021-1.457
					c-0.144-9.432-0.342-18.859-0.393-28.297l-0.107-14.154c0.04-2.375-0.192-4.66,0.234-7.183c0.382-2.427,1.378-4.859,3.138-6.709
					c1.726-1.849,4.233-2.989,6.793-3.03c2.558-0.063,5.026,0.959,6.958,2.463c3.924,3.105,6.11,7.62,7.689,12.081
					c1.556,4.519,2.455,9.209,3.029,13.913c0.557,4.709,0.771,9.447,0.734,14.177c0,9.421,0.508,18.833,0.57,28.276
					c0.082,9.434-0.122,18.891-1.18,28.277c-0.544,4.689-1.275,9.363-2.396,13.953c-1.141,4.58-2.637,9.107-4.888,13.279
					c-2.225,4.158-5.294,7.99-9.339,10.527c-1.999,1.287-4.23,2.191-6.531,2.771c-1.155,0.27-2.325,0.488-3.507,0.594
					c-1.193,0.105-2.36,0.113-3.542,0.174h-0.001H493.367z M493.371,420.857c1.172-0.062,2.364-0.07,3.517-0.176
					c1.167-0.104,2.32-0.316,3.459-0.584c2.267-0.572,4.463-1.463,6.433-2.729c3.981-2.498,7.014-6.277,9.219-10.402
					c2.234-4.137,3.723-8.639,4.858-13.199c1.113-4.572,1.855-9.232,2.343-13.916c0.979-9.369,1.104-18.809,0.943-28.227
					c-0.136-9.418-0.744-18.844-0.839-28.285c-0.016-4.699-0.275-9.397-0.876-14.048c-0.611-4.644-1.549-9.261-3.114-13.649
					c-1.565-4.332-3.784-8.652-7.366-11.411c-1.79-1.362-3.949-2.203-6.134-2.128c-2.162,0.053-4.275,1.034-5.759,2.643
					c-1.489,1.602-2.356,3.73-2.683,5.947c-0.365,2.146-0.135,4.607-0.142,6.936l0.218,14.135c0.101,9.424,0.35,18.85,0.54,28.275
					l-1.345-0.822L509.452,333l-0.552,0.893l-0.467-19.564l-0.214-9.818l0.067-2.469l0.065-1.253l0.058-0.655l0.053-0.369
					c0.021-0.093,0.023-0.136,0.062-0.268c0.026-0.079,0.039-0.125,0.087-0.23c0.29-0.162-0.092-0.672,1.419-0.554
					c0.486,0.228,0.542,0.532,0.592,0.581l0.081,0.205l0.061,0.232l0.071,0.362l0.092,0.651l0.134,1.247l0.199,2.462
					c0.432,6.546,0.74,13.049,0.791,19.629c0.045,6.469,0.377,13.004,0.565,19.527c0.197,6.533,0.297,13.076,0.158,19.629
					c-0.148,6.551-0.506,13.115-1.399,19.652c-0.453,3.266-1.04,6.527-1.887,9.752c-0.86,3.217-1.958,6.42-3.675,9.412
					c-1.694,2.934-4.266,5.84-7.896,6.943c-0.431,0.145-0.915,0.244-1.397,0.338c-0.467,0.064-0.747,0.117-1.299,0.152
					c-0.854,0.074-1.723,0.08-2.591,0.062c-1.74-0.062-3.52-0.342-5.214-0.973c-1.68-0.602-3.301-1.629-4.577-2.773
					c-1.362-1.238-2.431-2.602-3.368-4.068c-1.858-2.93-3.054-6.125-3.998-9.328c-1.855-6.439-2.661-13.02-3.22-19.57
					c-1.059-13.115-0.74-26.223-1.009-39.201l-0.158-4.83l-0.298-4.879c-0.256-3.174-0.56-6.439-0.994-9.606
					c-0.44-3.177-1-6.331-1.912-9.304c-0.919-2.951-2.237-5.762-4.337-7.611c-0.506-0.46-1.117-0.874-1.671-1.182
					c-0.673-0.369-1.248-0.615-1.889-0.776c-1.266-0.325-2.617-0.267-3.877,0.152c-0.609,0.198-1.273,0.534-1.758,0.854
					l-0.489,0.344l-0.359,0.295c-0.257,0.224-0.511,0.455-0.748,0.719c-0.966,1.025-1.773,2.297-2.459,3.649
					c-1.368,2.719-2.28,5.754-2.874,8.828c-0.575,3.062-0.891,6.273-0.566,9.207l0.008,0.082l0.002,0.055
					c0.487,11.885,1.062,23.768,1.446,35.656l-2.34-1.379l12.854-6.32l-0.841,1.492c-0.497-6.891-0.923-13.773-1.223-20.68
					c-0.149-3.455-0.237-6.912-0.211-10.397c-0.007-0.858,0.046-1.778,0.067-2.665l0.092-1.292l0.025-0.323l0.024-0.254l0.024-0.161
					l0.105-0.655c0.076-0.439,0.155-0.877,0.263-1.342c0.062-0.244,0.106-0.465,0.239-0.805c0.043-0.094,0.065-0.176,0.191-0.367
					l0.105-0.144c0.078-0.089,0.171-0.173,0.268-0.243c0.069-0.066,0.431-0.229,0.664-0.225c0.248-0.018,0.555,0.068,0.771,0.215
					c0.237,0.16,0.393,0.393,0.419,0.453c0.07,0.123,0.089,0.18,0.115,0.242c0.053,0.133,0.069,0.207,0.094,0.295
					c0.229,1.115,0.229,1.89,0.295,2.796c0.179,3.482,0.203,6.925,0.396,10.323l0.258,5.189l0.094,5.191l-0.074,20.678
					c0.006,6.881,0.125,13.76,0.643,20.609c0.527,6.838,1.427,13.684,3.349,20.266c1.915,6.535,4.854,12.975,9.809,17.742
					c2.435,2.375,5.356,4.273,8.54,5.504C486.516,420.271,489.941,420.826,493.371,420.857z"/>
			</g>
		</g>
	</g>
</g>
</svg>
