<?xml version="1.0" standalone="no"?>
<!DOCTYPE svg PUBLIC "-//W3C//DTD SVG 20010904//EN"
 "http://www.w3.org/TR/2001/REC-SVG-20010904/DTD/svg10.dtd">
<svg version="1.0" xmlns="http://www.w3.org/2000/svg"
 width="350.000000pt" height="350.000000pt" viewBox="0 0 350.000000 350.000000"
 preserveAspectRatio="xMidYMid meet">
<metadata>
Created by potrace 1.11, written by Peter Selinger 2001-2013
</metadata>
<g transform="translate(0.000000,350.000000) scale(0.100000,-0.100000)"
fill="#000000" stroke="none">
<path d="M1007 3436 c-26 -7 -51 -16 -54 -20 -4 -4 7 -96 26 -205 33 -195 33
-198 17 -261 -17 -66 -47 -114 -103 -163 -45 -39 -73 -103 -73 -164 0 -66 30
-285 40 -297 8 -8 480 350 480 364 0 5 -54 55 -119 112 -66 56 -118 104 -117
106 2 1 63 -34 136 -79 73 -45 139 -82 148 -83 13 -1 49 75 51 110 1 6 -20 19
-45 29 -117 44 -152 108 -194 351 -16 98 -33 187 -36 197 -7 21 -83 23 -157 3z"/>
<path d="M1330 3194 c-75 -14 -73 -12 -66 -57 12 -73 28 -115 59 -153 27 -33
94 -73 123 -74 6 0 23 37 39 83 46 136 55 131 29 -19 l-16 -93 31 -38 c16 -21
37 -55 46 -76 l15 -37 115 6 c67 4 115 3 115 -2 0 -5 -50 -22 -111 -38 -74
-19 -109 -32 -106 -41 3 -6 8 -37 12 -68 9 -67 -23 -58 303 -87 l234 -20 41
34 c93 75 159 93 257 72 36 -8 66 -13 67 -12 2 1 -19 38 -46 82 -159 257 -399
432 -700 511 -80 21 -123 26 -256 29 -88 1 -171 0 -185 -2z"/>
<path d="M885 3034 c-294 -178 -495 -487 -544 -839 -59 -424 143 -870 504
-1109 61 -41 195 -110 201 -104 2 3 -9 67 -25 144 -35 162 -184 933 -202 1045
l-12 76 -49 -30 c-62 -39 -74 -29 -14 12 25 17 48 35 51 40 3 5 -4 65 -15 133
-26 158 -26 279 -1 333 10 22 42 63 71 90 65 63 91 112 97 187 3 32 4 58 2 58
-2 0 -31 -16 -64 -36z m-288 -1486 c-3 -10 -1 -18 3 -18 19 0 40 -33 34 -52
-4 -15 -3 -18 6 -13 8 5 18 1 27 -11 12 -17 10 -22 -19 -48 l-33 -28 37 26 37
26 17 -25 c16 -24 16 -27 -1 -45 -10 -11 -28 -20 -40 -20 -29 0 -58 43 -49 73
6 19 5 20 -10 8 -14 -11 -16 -11 -16 2 0 8 3 17 8 20 4 2 2 3 -5 1 -19 -5 -45
21 -41 42 2 12 -4 23 -17 29 -28 15 -25 32 10 55 33 22 60 10 52 -22z m151
-190 c19 -19 14 -30 -10 -22 -21 6 -22 5 -8 -11 14 -17 13 -18 -7 -13 -13 4
-23 2 -23 -2 0 -18 21 -20 49 -5 38 19 47 6 25 -37 l-17 -33 27 24 c32 30 48
20 18 -12 -28 -30 -16 -44 13 -17 25 24 55 18 55 -11 0 -12 5 -16 15 -13 8 4
15 1 15 -4 0 -6 -9 -14 -20 -17 -11 -3 -20 -15 -20 -26 0 -10 -4 -19 -10 -19
-5 0 -10 7 -10 15 0 8 -7 15 -15 15 -22 0 -18 17 5 23 11 3 20 13 20 23 0 16
-3 15 -23 -4 -13 -12 -28 -22 -33 -22 -18 0 -54 49 -48 65 5 11 -1 15 -19 15
-15 0 -31 9 -41 25 -16 24 -16 26 11 50 33 28 35 29 51 13z"/>
<path d="M535 1540 c-3 -5 -1 -10 4 -10 6 0 11 5 11 10 0 6 -2 10 -4 10 -3 0
-8 -4 -11 -10z"/>
<path d="M583 1503 c-23 -9 -15 -35 10 -31 12 2 22 9 22 17 0 16 -14 22 -32
14z"/>
<path d="M662 1388 c-18 -18 -15 -28 8 -28 13 0 20 7 20 20 0 23 -10 26 -28 8z"/>
<path d="M1480 2814 c0 -11 -3 -36 -6 -56 l-7 -38 37 0 c26 0 36 4 36 15 0 21
-25 68 -44 84 -14 11 -16 11 -16 -5z"/>
<path d="M1520 2651 c-14 -4 -25 -11 -25 -16 0 -11 98 -195 102 -192 7 7 -34
211 -42 213 -6 1 -21 -1 -35 -5z"/>
<path d="M1140 2450 c-146 -87 -268 -160 -272 -162 -5 -3 165 -1017 221 -1308
19 -100 21 -107 61 -142 53 -47 115 -68 220 -75 158 -10 327 40 419 123 53 47
71 82 71 135 0 46 -84 500 -100 536 -15 35 -57 37 -136 4 -74 -30 -211 -67
-219 -59 -3 3 27 35 65 73 39 37 69 69 68 70 -2 1 -25 8 -53 14 -27 7 -77 24
-109 39 -54 24 -57 27 -35 33 13 4 75 7 137 8 61 1 112 3 112 5 0 3 -13 40
-30 82 -16 43 -28 80 -25 82 6 6 78 -52 113 -93 17 -19 43 -55 58 -80 14 -25
28 -45 29 -43 2 2 -12 80 -30 173 -18 94 -45 240 -60 325 l-28 155 -104 133
c-58 72 -105 132 -106 131 -1 0 -121 -72 -267 -159z m295 -1164 c28 -12 65
-39 83 -60 26 -30 32 -45 32 -84 -1 -87 -58 -169 -132 -187 -18 -5 -28 -14
-28 -26 0 -10 -6 -19 -13 -19 -18 0 -117 69 -124 86 -8 20 38 85 76 107 32 19
32 19 38 -2 6 -25 6 -25 43 -6 34 17 70 61 70 84 0 21 -43 63 -88 86 -32 16
-34 16 -39 -4 -3 -11 -25 -30 -50 -42 -63 -30 -103 -95 -103 -164 0 -30 6 -59
15 -71 8 -10 14 -23 14 -29 0 -26 -48 72 -53 109 -14 93 50 199 140 231 53 19
61 18 119 -9z"/>
<path d="M2294 2530 c-23 -11 -59 -36 -82 -55 -47 -41 -50 -41 -271 -20 -85 8
-156 13 -158 11 -2 -2 85 -59 194 -126 109 -67 213 -133 231 -147 53 -40 45
-59 -71 -175 -84 -83 -111 -118 -142 -181 -21 -42 -44 -82 -52 -88 -13 -12
-96 -8 -138 6 -11 4 9 -8 45 -27 35 -18 73 -45 84 -60 19 -27 19 -28 0 -63
-10 -19 -19 -35 -20 -35 -5 0 -138 57 -166 71 -24 12 -52 42 -80 84 -45 70
-63 74 -29 7 l20 -40 -87 4 -87 4 68 -17 68 -16 -48 -50 c-54 -55 -46 -57 56
-11 29 13 60 24 68 24 27 0 235 -93 240 -107 3 -8 27 -25 53 -38 56 -29 103
-81 119 -134 6 -21 11 -81 11 -132 0 -108 -19 -198 -85 -399 -46 -144 -75
-276 -75 -344 l1 -41 25 40 c13 22 45 104 70 183 25 79 47 142 48 140 2 -2 -1
-46 -6 -98 -5 -52 -7 -135 -6 -185 l3 -90 13 45 c42 146 98 320 102 320 3 0 3
-51 2 -112 -4 -118 6 -323 15 -314 3 3 25 72 48 153 l43 148 6 -50 c18 -148
31 -211 67 -322 22 -67 44 -125 49 -128 30 -18 -4 432 -46 623 -32 148 -63
335 -53 325 4 -4 21 -42 38 -85 28 -72 89 -183 97 -176 1 2 -1 23 -7 46 -11
52 -27 192 -21 192 3 0 38 -31 78 -69 40 -39 87 -77 105 -87 l32 -16 -36 50
c-21 27 -49 76 -65 108 -24 52 -27 70 -26 154 1 84 7 115 55 275 47 159 54
190 54 270 0 88 -1 92 -37 145 -21 30 -40 70 -44 88 -10 49 38 89 176 143 125
49 127 42 -28 69 -40 6 -72 14 -70 16 2 1 55 14 118 28 167 36 183 44 85 46
-44 0 -107 7 -140 14 l-60 12 100 13 c124 15 204 35 274 67 58 26 65 39 12 24
-126 -36 -264 -20 -440 52 -153 62 -231 72 -297 38z m99 -58 c45 -49 45 -139
1 -192 -54 -64 -124 -23 -124 72 0 100 75 173 123 120z"/>
<path d="M2307 2418 c-26 -19 -33 -82 -13 -113 19 -29 29 -31 50 -9 24 23 20
61 -6 70 -21 6 -21 7 -3 20 17 13 17 16 4 29 -12 12 -18 13 -32 3z"/>
<path d="M1630 2488 c0 -53 32 -161 63 -213 39 -66 39 -88 1 -40 -13 17 -24
26 -24 20 0 -5 16 -105 36 -222 l37 -211 71 -21 c98 -29 102 -28 125 25 32 71
101 162 186 243 63 60 75 76 63 86 -13 12 -491 310 -535 334 -18 9 -23 9 -23
-1z"/>
<path d="M2622 2048 c-16 -16 -15 -50 2 -73 13 -17 14 -14 17 33 4 54 1 60
-19 40z"/>
<path d="M1766 1698 c3 -13 7 -23 8 -24 19 -12 119 -45 123 -40 12 12 -30 44
-85 66 l-53 20 7 -22z"/>
<path d="M1794 1533 c19 -68 87 -487 84 -526 -2 -26 1 -47 6 -47 4 0 45 17 91
39 l83 39 11 64 c24 140 6 261 -46 310 -16 14 -47 35 -70 47 -24 12 -43 26
-43 31 0 6 -10 14 -22 19 -13 5 -40 17 -61 26 -37 15 -38 15 -33 -2z"/>
</g>
</svg>
