<?xml version="1.0" encoding="utf-8"?>
<!-- Generator: Adobe Illustrator 16.0.0, SVG Export Plug-In . SVG Version: 6.00 Build 0)  -->
<!DOCTYPE svg PUBLIC "-//W3C//DTD SVG 1.1//EN" "http://www.w3.org/Graphics/SVG/1.1/DTD/svg11.dtd">
<svg version="1.1" id="Calque_1" xmlns="http://www.w3.org/2000/svg" xmlns:xlink="http://www.w3.org/1999/xlink" x="0px" y="0px"
	 width="400px" height="400px" viewBox="0 0 400 400" enable-background="new 0 0 400 400" xml:space="preserve">
<g>
	<path fill="#9ACAEB" d="M213.404,30.498c74.864,0,135.559,60.692,135.559,135.561c0,74.868-60.694,135.556-135.559,135.556
		c-74.867,0-135.561-60.688-135.561-135.556C77.843,91.19,138.536,30.5,213.404,30.498z"/>
	<path fill="#FFFFFF" d="M73.653,166.06c0-77.059,62.69-139.748,139.75-139.748c77.057,0,139.747,62.689,139.747,139.748
		c0,77.054-62.69,139.745-139.747,139.745C136.345,305.805,73.653,243.113,73.653,166.06z M82.03,166.059
		c0,72.435,58.935,131.368,131.373,131.368c72.438,0,131.371-58.931,131.371-131.367c0-72.44-58.934-131.372-131.371-131.372
		C140.964,34.688,82.03,93.62,82.03,166.059z"/>
</g>
<g>
	<path fill="#00BD70" d="M209.739,310.966c10.338,1.647,24.082,3.111,36.514-2.926c9.302-4.515,12.071-9.206,13.31-16.962
		c0,0,23.347-123.77,29.035-159.44c5.687-35.675,5.27-42.016-7.949-53.223c-9.861-8.361-10.587-21.175-9.645-26.979
		c0.668-4.138,3.622-21.694,5.272-32.034c1.647-10.338,1.337-11.715-14.174-14.188l2.069,0.329
		c-15.51-2.472-16.233-1.26-17.882,9.078c-1.647,10.34-4.713,27.884-5.271,32.031c-0.809,5.953-5.101,18.227-17.24,22.696
		c-19.292,7.103-19.362,17.984-24.104,48.106c-5.614,35.689-29.032,159.448-29.032,159.448c-1.24,7.75-0.069,13.07,7.367,20.259
		c9.94,9.606,23.455,12.487,33.798,14.132"/>
	<path fill="#FFFFFF" d="M211.766,311.604c-7.543-1.143-15.136-2.762-22.149-6.008c-6.978-3.244-13.349-8.082-17.575-14.736
		c-2.082-3.37-2.834-7.528-2.438-11.411c0.137-1.958,0.533-3.876,0.869-5.733l1.022-5.636l4.076-22.545l8.078-45.104l7.936-45.125
		l3.781-22.578c1.234-7.533,2.603-15.037,3.658-22.596c1.17-7.547,2.06-15.167,4.317-22.771c1.169-3.773,2.865-7.596,5.569-10.788
		c2.677-3.215,6.197-5.552,9.79-7.27c0.899-0.447,1.815-0.828,2.729-1.218l1.381-0.542l1.236-0.522
		c0.424-0.193,0.91-0.371,1.282-0.573l1.09-0.609c0.733-0.364,1.445-0.948,2.172-1.406c2.771-2.125,5.104-4.852,6.811-7.979
		c1.724-3.095,2.935-6.588,3.432-10.017l1.781-11.342l3.627-22.672c0.368-1.943,0.607-3.926,1.734-6.225
		c0.563-1.137,1.606-2.351,2.898-3.051c1.276-0.686,2.548-0.939,3.68-1.058c2.268-0.204,4.255-0.007,6.23,0.192
		c1.965,0.217,3.881,0.495,5.785,0.787l-0.79,4.953l-2.072-0.317l0.793-4.978c1.904,0.291,3.815,0.597,5.753,0.981
		c1.945,0.4,3.902,0.805,6.023,1.689c1.048,0.456,2.204,1.088,3.239,2.15c1.047,1.078,1.698,2.602,1.901,3.887
		c0.395,2.593,0.019,4.563-0.211,6.536l-3.548,22.651l-1.769,11.233c-0.476,3.42-0.233,6.942,0.546,10.33
		c0.758,3.389,2.171,6.571,4.085,9.355c1.019,1.346,2.078,2.667,3.354,3.773c1.187,1.124,2.885,2.46,4.308,3.874
		c2.916,2.771,5.728,6.298,7.264,10.466c1.534,4.155,1.847,8.401,1.847,12.399c-0.098,8.021-1.273,15.615-2.417,23.209
		c-1.135,7.581-2.572,15.123-3.864,22.618l-4.015,22.539l-8.636,45.003l-4.365,22.482l-4.503,22.447l-4.563,22.438l-2.325,11.281
		c-0.898,3.903-3.043,7.846-6.233,10.431c-1.554,1.32-3.255,2.387-4.985,3.323c-0.88,0.487-1.719,0.87-2.667,1.33
		c-0.891,0.364-1.741,0.753-2.661,1.091c-3.741,1.396-7.543,2.205-11.416,2.611c-7.742,0.812-15.456-0.16-22.949-1.584l0.098-0.621
		c7.541,0.986,15.192,1.529,22.632,0.438c3.695-0.543,7.37-1.521,10.729-2.939c0.853-0.354,1.722-0.803,2.583-1.198
		c0.748-0.407,1.63-0.854,2.396-1.333c1.582-0.944,3.083-1.996,4.385-3.206c2.633-2.408,4.263-5.521,4.98-9.072l1.94-11.205
		l3.851-22.565l15.632-90.18l3.814-22.572c1.26-7.548,2.646-15.009,3.728-22.527c0.561-3.754,1.078-7.504,1.519-11.233
		c0.456-3.726,0.807-7.44,0.865-11.056c0.038-3.609-0.256-7.104-1.358-10.143c-1.1-3.034-3.104-5.682-5.671-8.18
		c-1.276-1.289-2.59-2.311-4.174-3.812c-1.582-1.427-2.918-3.105-4.164-4.826c-2.367-3.529-4.026-7.481-4.881-11.55
		c-0.875-4.051-1.103-8.274-0.482-12.41l1.947-11.356l3.849-22.528c0.272-1.793,0.508-3.658,0.312-4.855
		c-0.104-0.598-0.251-0.89-0.521-1.205c-0.297-0.312-0.815-0.671-1.509-0.975c-2.908-1.21-6.82-1.813-10.485-2.456l0.793-4.978
		l2.065,0.342l-0.787,4.953c-3.683-0.574-7.572-1.267-10.754-1.065c-0.763,0.066-1.394,0.236-1.809,0.448
		c-0.393,0.225-0.67,0.49-0.974,1.051c-0.604,1.127-0.981,2.982-1.307,4.777l-3.856,22.536l-1.897,11.273
		c-0.65,4.12-2.047,7.943-4.063,11.501c-1.992,3.557-4.744,6.742-8.064,9.222c-0.887,0.562-1.674,1.186-2.649,1.679
		c-0.961,0.527-1.912,1.018-2.766,1.337l-1.406,0.575l-1.292,0.491c-0.845,0.352-1.697,0.692-2.513,1.088
		c-3.293,1.533-6.29,3.513-8.549,6.166c-2.279,2.632-3.812,5.907-4.935,9.397c-2.179,7.035-3.19,14.651-4.427,22.166
		c-1.142,7.561-2.578,15.074-3.891,22.604l-4.021,22.576l-8.519,45.034l-8.657,45.002l-4.365,22.495l-1.099,5.623
		c-0.364,1.894-0.771,3.722-0.927,5.576c-0.417,3.704,0.211,7.442,2.104,10.638c3.892,6.346,10.101,11.275,16.873,14.518
		c6.838,3.293,14.331,5.01,21.84,6.254L211.766,311.604z"/>
</g>
<g>
	<g>
		<path fill="#2AA137" stroke="#FFFFFF" stroke-width="0.5" stroke-miterlimit="10" d="M234.686,251.745"/>
	</g>
	<g>
		<path fill="#00BD70" d="M246.463,280.861c0.527-3.668,0.527-9.4-5.215-16.348c-5.538-6.695-12.525-7.281-12.525-7.281
			s0.189-2.061,0.273-2.779c0.046-0.426,0.357-2.128-1.622-1.453c-7.321,2.499-11.513,6.818-12.532,8.075
			c-1.717,2.116-1.709,2.515-0.528,4.928c4.325,8.224,12.333,9.808,12.333,9.808s0.253-2.377,0.393-2.929
			c0.14-0.548-0.482-2.217,2.188-0.969c5.158,2.005,9.101,7.792,10.09,9.746c1.35,2.383,0.923,2.543-0.257,3.897
			c-4.871,5.088-10.796,7.978-12.364,8.372c-1.562,0.394-2.347,0.226-2.253-0.646c0.091-0.871,0.208-3.424,0.208-3.424
			s-11.392-0.666-15.953-11.896c-5.765-12.729,0.028-20.937,9.462-25.354c9.117-4.271,16.479-0.752,16.479-0.752
			c-2.233-0.992-4.653-1.664-7.212-1.938c-13.173-1.42-25.003,8.11-26.415,21.285c-1.421,13.173,8.109,24.998,21.279,26.417
			c6.79,0.733,13.023-1.442,17.612-5.36C242.456,290.085,245.811,285.402,246.463,280.861z"/>
	</g>
</g>
<polygon fill="#FFFFFF" points="223.551,88.601 259.751,66.642 228.944,93.448 301.61,149.552 222.213,102.368 187.026,147.539 
	213.764,98.83 175.487,88.443 215.831,89.681 209.084,48.433 "/>
<g>
	<path fill="#00BD70" d="M109.429,377.012c0.936-2.287,5.779-16.287,7.059-21.051c0.668-2.373,3.846-16.632,4.197-22.618
		c0,0,2.498,9.065,4.815,16.875c1.302,4.39,5.828,17.587,5.828,17.587l0.499-4.807l0.625-6.073
		c0.196-2.024,1.288-14.19,1.479-18.257c0.256-4.061,0.551-14.5,0.377-17.193c0.563,1.736,2.253,7.047,2.773,8.815l4.479,15.86
		c0.971,3.533,4.219,16.654,4.219,16.654s1.385-11.279,1.686-16.59c0.196-3.471,0.043-6.943-0.01-10.408
		c-0.121-6.926-0.495-12.25-0.495-12.25c2.339,7.809,2.771,8.637,3.758,11.448c1.275,3.198,2.702,6.353,4.381,9.386
		c0.824,1.524,1.741,3.004,2.721,4.44c0.976,1.448,2.057,2.821,3.189,4.159l2.029,2.395l-0.148-3.143
		c-0.304-6.198-0.744-12.398-1.599-18.561c-0.957-7.027-2.363-12.971-3.942-18.25c-1.765-5.973-3.914-11.775-5.822-17.63
		c-1.93-5.864-3.645-11.727-5.096-17.751c-1.412-5.953-2.49-12.018-2.787-18.117c-0.296-6.082,0.166-12.264,2.185-17.964
		c1.043-2.815,2.466-5.511,4.452-7.712c1.015-1.097,2.061-2.012,3.365-2.801c1.31-0.766,6.894-3.389,8.248-4.372
		c1.295-0.913,2.296-2.246,2.941-3.662l2.634-1.101c0,0,18.779-8.2,19.882-8.539c1.342-0.405,2.877-1.387,4.881,0.335
		c12.479,6.278,25.514,8.798,25.514,8.798l-15.115-14.544c0,0,4.187-0.897,10.405-2.403c6.454-1.574,12.832-4.621,12.832-4.621
		l-2.201-0.24c-11.077-0.705-25.595,0.547-25.595,0.547c0.571-0.797,6.697-17.386,6.697-17.386
		c-9.42,6.94-15.396,17.481-16.738,20.294c-1.305,2.763-14.937,7.776-14.937,7.776c-1.054,0.479-2.154,1.06-3.176,1.452l-3.08,1.326
		l-0.477,0.203c-0.197-0.604-0.527-1.189-0.913-1.697c-0.693-0.896-1.458-2.393-1.96-3.083c0.807-3.043,3.666-5.841,6.718-7.32
		c2.902-1.413,13.472-5.519,13.472-5.519l0.604-5.448c-2.49,0.769-5.037,2.078-11.861,3.779c-5.109,1.491-9.843,1.187-10.938-1.901
		c-6.039-18.454-24.254-32.94-26.506-34.854c-5.334-4.499-5.917-7.424-2.938-9.448c2.962-2.094,58.875-36.625,58.875-36.625
		l-53.892,4.752c-5.888-6.303-14.572-12.635-22.664-13.189c-20.053-0.187-30.692,13.76-55.366,14.733
		c-4.855,0.292-14.433-0.458-22.954-2.729c-7.785-2.186-14.159-7.491-14.159-7.491s7.836,13.748,28.217,19.155
		c5.186,1.672,19.143,3.314,19.143,3.314c-2.487,0.422-6.94,0.673-9.646,0.595c-13.592-0.401-25.612-3.421-25.612-3.421
		s17.303,9.095,27.701,11.132c3.465,0.78,12.575,2.678,12.575,2.678s-6.075,1.19-11.188,1.505
		c-6.276,0.384-15.727,1.354-15.727,1.354s36.34,11.735,40.979,17.428c5.544,6.809-4.747,13.591-7.061,21.137
		c-7.799,25.409,21.176,61.567,9.086,88.459c-6.095,13.567-21.691,28.61-21.691,28.61l13.236-7.467
		c6.45-3.831,10.397-6.706,14.799-10.742c1.502-1.342,2.944-2.746,4.373-4.151c0.603-0.593,1.156-1.153,1.748-1.755l0,0
		c0,0-1.511,18.941-6.873,32.268c0,0,11.631-11.007,17.574-25.96c-0.281,1.968-0.591,4.058-1.033,6.285
		c-0.877,4.397-1.938,8.373-2.992,13.334c-1.09,4.979-3.84,18.586-4.404,24.301c-0.803,8.091-2.837,31.193-2.55,38.503
		c0.258,6.649,1.196,21.488,1.196,21.488S108.549,379.32,109.429,377.012z"/>
	<path fill="#FFFFFF" d="M101.64,389.453c-0.011-0.148-0.941-14.939-1.199-21.541c-0.296-7.589,1.801-31.141,2.56-38.791
		c0.572-5.766,3.29-19.264,4.438-24.527c0.424-1.992,0.85-3.824,1.263-5.593c-5.414,8.247-10.985,13.573-11.32,13.89l-6.961,6.584
		l3.577-8.889c3.392-8.417,5.218-19.29,6.081-25.854c-0.64,0.604-1.3,1.217-1.97,1.817c-4.529,4.147-8.631,7.13-15.188,11.024
		l-27.515,15.513l11.792-11.379c0.153-0.149,15.381-14.931,21.237-27.963c6.121-13.618,0.988-30.283-3.975-46.402
		c-4.645-15.083-9.033-29.333-5.205-41.812c0.905-2.953,2.795-5.645,4.616-8.249c3.775-5.387,5.182-8.05,2.82-10.95
		c-3.096-3.798-26.174-12.295-39.996-16.758l-9.477-3.061l9.905-1.017c0.089-0.009,8.463-0.865,14.653-1.285
		c-0.183-0.04-0.349-0.078-0.507-0.113C50.694,142.027,33.717,133.143,33,132.766l-15.508-8.151l16.989,4.268
		c0.069,0.016,3.945,0.979,9.715,1.875c-17.041-6.283-23.835-17.912-24.145-18.452L14.33,102.27l8.881,7.39
		c0.061,0.051,6.114,5.042,13.359,7.077c7.527,2.007,15.583,2.719,20.195,2.719c0.772,0,1.473-0.018,2.139-0.058
		c12.223-0.482,20.868-4.24,29.226-7.875c8.115-3.529,15.785-6.863,25.825-6.863l0.54,0.007
		c10.246,0.702,19.759,9.422,23.343,13.104l61.688-5.439l-7.521,4.644c-19.317,11.932-56.465,34.928-58.796,36.577
		c-0.562,0.379-0.854,0.738-0.874,1.062c-0.02,0.38,0.211,1.869,3.99,5.059l0.438,0.364c13.399,11.173,22.884,23.756,26.688,35.388
		c0.44,1.238,2.614,1.372,3.53,1.372c1.414,0,3.092-0.273,4.928-0.805c4.648-1.159,7.199-2.106,9.248-2.869
		c0.921-0.342,1.714-0.636,2.503-0.882l3.052-0.94l-1.099,9.886l-1.183,0.459c-0.104,0.041-10.523,4.091-13.314,5.447
		c-2.429,1.182-4.469,3.18-5.323,5.162c0.084,0.139,0.169,0.287,0.262,0.434c0.334,0.568,0.701,1.195,1.056,1.656
		c0.069,0.088,0.14,0.182,0.204,0.276l1.85-0.794c0.616-0.234,1.258-0.547,1.904-0.857c0.389-0.187,0.778-0.371,1.301-0.604
		c5.944-2.189,12.903-5.424,13.769-6.715c0.059-0.129,6.19-12.831,17.384-21.08l5.63-4.148l-2.423,6.562
		c-2.773,7.509-4.419,11.823-5.409,14.323c3.453-0.227,9.062-0.521,14.746-0.521c2.843,0,5.443,0.075,7.825,0.229l9.511,1.043
		l-6.636,3.17c-0.269,0.129-6.65,3.162-13.242,4.768c-2.627,0.636-4.893,1.166-6.638,1.562l17.407,16.752l-6.951-1.347
		c-0.544-0.102-13.465-2.645-26.055-8.979l-0.423-0.282c-0.555-0.479-0.872-0.479-0.99-0.479c-0.325,0-0.753,0.151-1.203,0.313
		c-0.248,0.086-0.485,0.17-0.687,0.231c-0.988,0.34-12.596,5.373-19.711,8.479l-1.916,0.803c-0.83,1.531-1.941,2.812-3.236,3.724
		c-0.918,0.666-2.955,1.705-5.731,3.101c-1.185,0.595-2.225,1.112-2.662,1.368c-1.039,0.628-1.936,1.379-2.896,2.415
		c-1.615,1.789-2.974,4.155-4.035,7.003c-1.717,4.861-2.392,10.477-2.062,17.165c0.26,5.33,1.128,10.964,2.729,17.729
		c1.365,5.641,3.017,11.393,5.054,17.592c0.694,2.133,1.425,4.26,2.153,6.391c1.256,3.674,2.556,7.467,3.685,11.288
		c1.832,6.122,3.146,12.194,4.014,18.562c0.748,5.4,1.245,11.182,1.615,18.748l0.438,9.293l-6.01-7.091
		c-1.325-1.563-2.416-2.983-3.322-4.333c-1.055-1.547-2.012-3.105-2.823-4.609c-1.285-2.328-2.492-4.828-3.679-7.641l0.009,0.312
		c0.06,2.695,0.116,5.478-0.039,8.259c-0.302,5.317-1.64,16.264-1.697,16.729l-1.383,11.271l-2.729-11.021
		c-0.033-0.133-3.252-13.138-4.2-16.589l-3.34-11.823c-0.061,1.516-0.125,2.869-0.188,3.869c-0.197,4.213-1.313,16.586-1.485,18.372
		l-2.104,20.333l-3.084-8.988c-0.184-0.539-4.554-13.291-5.854-17.67c-0.723-2.442-1.469-5.02-2.153-7.406
		c-1.062,5.712-2.389,11.531-2.827,13.098c-1.307,4.846-6.214,19.027-7.123,21.254c-0.906,2.369-5.574,12.073-5.771,12.486
		l-3.473,7.207L101.64,389.453z M122.703,332.773c0.026,0.092,2.521,9.141,4.807,16.838c0.536,1.797,1.629,5.133,2.728,8.414
		l0.136-1.314c0.23-2.355,1.286-14.277,1.474-18.188c0.251-4.004,0.539-14.386,0.377-16.929l-1.069-16.589l5.151,15.809
		c0.57,1.75,2.271,7.096,2.8,8.896l4.481,15.879c0.302,1.108,0.825,3.121,1.396,5.38c0.175-1.826,0.319-3.551,0.396-4.88
		c0.146-2.619,0.088-5.319,0.029-7.935l-0.043-2.319c-0.121-6.785-0.487-12.089-0.489-12.142l-1.323-18.836l5.417,18.09
		c1.848,6.162,2.487,7.924,3.166,9.789l0.533,1.483c1.362,3.433,2.756,6.423,4.272,9.165c0.754,1.393,1.635,2.83,2.615,4.27
		c0.336,0.494,0.688,0.994,1.073,1.508c-0.344-5.922-0.79-10.705-1.413-15.204c-0.839-6.154-2.105-12.019-3.877-17.938
		c-1.108-3.742-2.394-7.496-3.633-11.125c-0.734-2.148-1.472-4.295-2.172-6.44c-2.073-6.304-3.757-12.162-5.146-17.925
		c-1.666-7.024-2.569-12.904-2.841-18.498c-0.357-7.238,0.395-13.377,2.312-18.795c1.25-3.375,2.887-6.196,4.881-8.403
		c1.241-1.335,2.451-2.345,3.845-3.187c0.51-0.297,1.637-0.867,2.922-1.514c1.768-0.888,4.442-2.23,5.178-2.765
		c0.91-0.642,1.709-1.642,2.244-2.818l0.342-0.749l3.358-1.4c4.43-1.937,18.975-8.272,20.111-8.627
		c0.169-0.049,0.34-0.113,0.518-0.176c0.695-0.25,1.561-0.562,2.616-0.562c1.237,0,2.415,0.442,3.505,1.313
		c6.168,3.078,12.51,5.232,17.229,6.604l-12.273-11.81l3.851-0.826c0.013-0.004,4.174-0.9,10.349-2.396
		c1.133-0.274,2.268-0.599,3.366-0.946c-8.892,0.008-17.565,0.748-17.651,0.754l-4.604,0.525l2.631-3.689
		c0.324-0.608,1.813-4.454,3.586-9.152c-6.433,6.773-9.897,13.947-9.938,14.033c-1.451,3.078-10.714,6.867-15.964,8.793
		c-0.353,0.16-0.715,0.332-1.077,0.508c-0.746,0.359-1.498,0.716-2.136,0.962l-5.663,2.435l-0.711-2.178
		c-0.115-0.345-0.32-0.729-0.582-1.068c-0.474-0.613-0.933-1.387-1.336-2.068c-0.247-0.417-0.472-0.805-0.66-1.062l-0.584-0.808
		l0.255-0.959c0.899-3.397,3.973-6.798,7.826-8.67c2.385-1.161,9.578-4.002,12.443-5.125l0.096-0.857
		c-1.961,0.718-4.619,1.643-8.823,2.689c-2.132,0.623-4.214,0.952-6.021,0.952c-5.224-0.002-6.926-2.609-7.492-4.211
		c-3.582-10.941-12.603-22.844-25.408-33.521l-0.46-0.387c-3.861-3.255-5.597-5.948-5.466-8.469c0.062-1.172,0.578-2.87,2.668-4.289
		c2.347-1.658,36.058-22.526,51.47-32.054l-46.109,4.066l-0.696-0.747c-5.337-5.717-13.729-12.012-21.148-12.524l-0.38-0.002
		c-9.169,0-16.448,3.166-24.153,6.517c-8.305,3.611-17.72,7.704-30.688,8.215c-0.699,0.042-1.482,0.063-2.346,0.063
		c-4.865,0-13.359-0.748-21.303-2.867c-0.799-0.224-1.578-0.479-2.344-0.754c4.234,3.176,10.021,6.395,17.604,8.409
		c4.935,1.591,18.607,3.212,18.746,3.228l14.498,1.707l-14.394,2.438c-2.47,0.418-6.354,0.637-8.915,0.637
		c-0.407,0-0.791-0.005-1.146-0.015c-3.684-0.108-7.237-0.403-10.477-0.776c4.498,1.873,9.291,3.608,13.086,4.352
		c3.457,0.778,12.541,2.671,12.545,2.671l10.145,2.113l-10.168,1.992c-0.254,0.049-6.273,1.22-11.465,1.54
		c-1.773,0.111-3.816,0.266-5.83,0.435c11.378,3.98,29.113,10.683,32.576,14.936c4.608,5.658,0.59,11.392-2.639,16
		c-1.64,2.338-3.33,4.754-4.044,7.074c-3.45,11.249,0.753,24.9,5.203,39.352c5.191,16.861,10.562,34.295,3.791,49.35
		c-3.056,6.807-8.339,13.874-12.981,19.363l1.551-0.875c6.321-3.756,10.103-6.499,14.474-10.504
		c1.532-1.374,3.025-2.828,4.301-4.085c0.596-0.583,1.141-1.136,1.723-1.729l4.037-4.106l-0.457,5.741
		c-0.049,0.611-0.982,11.932-3.92,23.264c3.529-4.493,7.746-10.749,10.586-17.896l6.502-16.355l-2.479,17.428
		c-0.285,1.979-0.599,4.105-1.056,6.398c-0.476,2.404-1.009,4.684-1.568,7.062c-0.466,1.985-0.949,4.039-1.434,6.312
		c-1.26,5.787-3.842,18.783-4.364,24.059c-0.943,9.528-2.81,31.41-2.541,38.217c0.131,3.32,0.433,8.75,0.698,13.312
		c1-2.139,1.858-4.034,2.172-4.858c0.905-2.218,5.7-16.065,6.979-20.823c0.69-2.457,3.789-16.482,4.123-22.175l0.738-12.671
		L122.703,332.773z"/>
</g>
<path fill="#FFFFFF" d="M114.824,116.162c4.858-0.551,9.493,5.139,10.35,12.703c0.854,7.567-2.396,14.146-7.256,14.691
	c-4.864,0.556-9.504-5.133-10.356-12.697C106.703,123.295,109.959,116.712,114.824,116.162z"/>
<path fill="#00BD70" d="M120.372,128.918l-5.623,1.805c-0.042,1.972,0.003,7.781,3.399,8.583c1.722,0.408,6.802,0.073,5.156-11.512
	c-0.887-6.256-7.381-5.498-7.607-1.019L120.372,128.918z"/>
</svg>
